M48
; DRILL file {KiCad (5.1.10-1-10_14)} date Sunday, September 19, 2021 at 11:37:49 AM
; FORMAT={-:-/ absolute / inch / decimal}
; #@! TF.CreationDate,2021-09-19T11:37:49+09:00
; #@! TF.GenerationSoftware,Kicad,Pcbnew,(5.1.10-1-10_14)
FMAT,2
INCH
T1C0.0157
T2C0.0315
T3C0.0394
T4C0.0402
T5C0.0591
T6C0.0669
T7C0.0709
T8C0.0748
T9C0.1575
%
G90
G05
T1
X6.2598Y-5.0394
X6.5866Y-5.0984
X7.0173Y-5.4325
X7.2953Y-4.5748
X7.4606Y-5.248
T3
X7.1409Y-5.6496
X7.2409Y-5.6496
X7.3409Y-5.6496
X7.4409Y-5.6496
T4
X6.8941Y-3.1642
X6.8941Y-3.2642
X6.8941Y-3.3642
X6.8941Y-3.4642
X6.8941Y-3.5642
X6.8941Y-3.6642
X6.8941Y-3.7642
X6.8941Y-3.8642
X6.8941Y-3.9642
X6.8941Y-4.0642
X6.8941Y-4.1642
X6.8941Y-4.2642
X6.8941Y-4.3642
X6.8941Y-4.4642
X6.8941Y-4.5642
X6.8941Y-4.6642
X6.8941Y-4.7642
X6.8941Y-4.8642
X6.8941Y-4.9642
X6.8941Y-5.0642
X7.1441Y-5.0551
X7.2441Y-5.0551
X7.3441Y-5.0551
X7.5941Y-3.1642
X7.5941Y-3.2642
X7.5941Y-3.3642
X7.5941Y-3.4642
X7.5941Y-3.5642
X7.5941Y-3.6642
X7.5941Y-3.7642
X7.5941Y-3.8642
X7.5941Y-3.9642
X7.5941Y-4.0642
X7.5941Y-4.1642
X7.5941Y-4.2642
X7.5941Y-4.3642
X7.5941Y-4.4642
X7.5941Y-4.5642
X7.5941Y-4.6642
X7.5941Y-4.7642
X7.5941Y-4.8642
X7.5941Y-4.9642
X7.5941Y-5.0642
T5
X7.1486Y-3.2886
X7.3396Y-3.2886
T6
X3.0407Y-4.7969
X3.157Y-4.1377
X3.2732Y-3.4786
X3.3894Y-2.8195
X3.4347Y-4.8663
X3.5509Y-4.2072
X3.6671Y-3.5481
X3.7386Y-4.9199
X3.7833Y-2.889
X3.8549Y-4.2608
X3.9711Y-3.6017
X4.0873Y-2.9426
X4.1326Y-4.9894
X4.2488Y-4.3303
X4.365Y-3.6711
X4.4365Y-5.043
X4.4812Y-3.012
X4.5528Y-4.3839
X4.669Y-3.7247
X4.7852Y-3.0656
X4.8305Y-5.1124
X4.9467Y-4.4533
X5.0629Y-3.7942
X5.1344Y-5.166
X5.1791Y-3.1351
X5.2507Y-4.5069
X5.3669Y-3.8478
X5.4831Y-3.1887
X5.5284Y-5.2355
X5.6446Y-4.5764
X5.7608Y-3.9173
X5.877Y-3.2581
X5.9485Y-4.63
X6.0068Y-5.3199
X6.0648Y-3.9709
X6.181Y-3.3117
X6.3425Y-4.6994
X6.4007Y-5.3893
X6.4587Y-4.0403
X6.5749Y-3.3812
X7.9133Y-3.3812
X8.0295Y-4.0403
X8.0875Y-5.3893
X8.1457Y-4.6994
X8.3072Y-3.3117
X8.4234Y-3.9709
X8.4814Y-5.3199
X8.5396Y-4.63
X8.6112Y-3.2581
X8.7274Y-3.9173
X8.8436Y-4.5764
X8.9598Y-5.2355
X9.0051Y-3.1887
X9.1213Y-3.8478
X9.2375Y-4.5069
X9.3091Y-3.1351
X9.3538Y-5.166
X9.4253Y-3.7942
X9.5415Y-4.4533
X9.6577Y-5.1124
X9.703Y-3.0656
X9.8192Y-3.7247
X9.9354Y-4.3839
X10.007Y-3.012
X10.0517Y-5.043
X10.1232Y-3.6711
X10.2394Y-4.3303
X10.3556Y-4.9894
X10.4009Y-2.9426
X10.5171Y-3.6017
X10.6333Y-4.2608
X10.7049Y-2.889
X10.7495Y-4.9199
X10.8211Y-3.5481
X10.9373Y-4.2072
X11.0535Y-4.8663
X11.0988Y-2.8195
X11.215Y-3.4786
X11.3312Y-4.1377
X11.4474Y-4.7969
T7
X7.1368Y-3.1693
X7.3514Y-3.1693
T8
X3.0245Y-4.794
X3.1407Y-4.1349
X3.2569Y-3.4757
X3.3731Y-2.8166
X3.451Y-4.8692
X3.5672Y-4.2101
X3.6834Y-3.5509
X3.7224Y-4.9171
X3.7996Y-2.8918
X3.8386Y-4.2579
X3.9548Y-3.5988
X4.071Y-2.9397
X4.1488Y-4.9923
X4.2651Y-4.3331
X4.3813Y-3.674
X4.4203Y-5.0401
X4.4975Y-3.0149
X4.5365Y-4.381
X4.6527Y-3.7219
X4.7689Y-3.0627
X4.8467Y-5.1153
X4.963Y-4.4562
X5.0792Y-3.7971
X5.1181Y-5.1632
X5.1954Y-3.1379
X5.2344Y-4.504
X5.3506Y-3.8449
X5.4668Y-3.1858
X5.5446Y-5.2384
X5.6609Y-4.5792
X5.7771Y-3.9201
X5.8933Y-3.261
X5.9323Y-4.6271
X5.9905Y-5.317
X6.0485Y-3.968
X6.1647Y-3.3089
X6.3588Y-4.7023
X6.417Y-5.3922
X6.475Y-4.0432
X6.5912Y-3.3841
X7.897Y-3.3841
X8.0132Y-4.0432
X8.0712Y-5.3922
X8.1294Y-4.7023
X8.3235Y-3.3089
X8.4397Y-3.968
X8.4977Y-5.317
X8.5559Y-4.6271
X8.5949Y-3.261
X8.7111Y-3.9201
X8.8273Y-4.5792
X8.9435Y-5.2384
X9.0214Y-3.1858
X9.1376Y-3.8449
X9.2538Y-4.504
X9.2928Y-3.1379
X9.37Y-5.1632
X9.409Y-3.7971
X9.5252Y-4.4562
X9.6414Y-5.1153
X9.7193Y-3.0627
X9.8355Y-3.7219
X9.9517Y-4.381
X9.9907Y-3.0149
X10.0679Y-5.0401
X10.1069Y-3.674
X10.2231Y-4.3331
X10.3393Y-4.9923
X10.4172Y-2.9397
X10.5334Y-3.5988
X10.6496Y-4.2579
X10.6886Y-2.8918
X10.7658Y-4.9171
X10.8048Y-3.5509
X10.921Y-4.2101
X11.0372Y-4.8692
X11.1151Y-2.8166
X11.2313Y-3.4757
X11.3475Y-4.1349
X11.4637Y-4.794
T9
X3.2377Y-4.8316
X3.3539Y-4.1725
X3.4702Y-3.5133
X3.5864Y-2.8542
X3.9356Y-4.9547
X4.0518Y-4.2955
X4.168Y-3.6364
X4.2843Y-2.9773
X4.6335Y-5.0777
X4.7497Y-4.4186
X4.8659Y-3.7595
X4.9822Y-3.1003
X5.3314Y-5.2008
X5.4476Y-4.5416
X5.5638Y-3.8825
X5.6801Y-3.2234
X6.1455Y-4.6647
X6.2038Y-5.3546
X6.2617Y-4.0056
X6.378Y-3.3465
X8.1102Y-3.3465
X8.2265Y-4.0056
X8.2844Y-5.3546
X8.3427Y-4.6647
X8.8081Y-3.2234
X8.9244Y-3.8825
X9.0406Y-4.5416
X9.1568Y-5.2008
X9.506Y-3.1003
X9.6222Y-3.7595
X9.7385Y-4.4186
X9.8547Y-5.0777
X10.2039Y-2.9773
X10.3201Y-3.6364
X10.4364Y-4.2955
X10.5526Y-4.9547
X10.9018Y-2.8542
X11.018Y-3.5133
X11.1343Y-4.1725
X11.2505Y-4.8316
T2
G00X3.0056Y-4.9466
M15
G01X3.0211Y-4.9493
M16
G05
G00X3.0996Y-4.7057
M15
G01X3.1151Y-4.7084
M16
G05
G00X3.1218Y-4.2874
M15
G01X3.1373Y-4.2902
M16
G05
G00X3.1896Y-5.059
M15
G01X3.2051Y-5.0617
M16
G05
G00X3.2158Y-4.0466
M15
G01X3.2313Y-4.0493
M16
G05
G00X3.238Y-3.6283
M15
G01X3.2535Y-3.6311
M16
G05
G00X3.3058Y-4.3999
M15
G01X3.3213Y-4.4026
M16
G05
G00X3.332Y-3.3875
M15
G01X3.3475Y-3.3902
M16
G05
G00X3.3542Y-2.9692
M15
G01X3.3697Y-2.9719
M16
G05
G00X3.3632Y-4.6506
M15
G01X3.3787Y-4.6534
M16
G05
G00X3.4221Y-3.7407
M15
G01X3.4376Y-3.7435
M16
G05
G00X3.4483Y-2.7283
M15
G01X3.4638Y-2.7311
M16
G05
G00X3.4794Y-3.9915
M15
G01X3.4949Y-3.9942
M16
G05
G00X3.5383Y-3.0816
M15
G01X3.5538Y-3.0843
M16
G05
G00X3.5956Y-3.3324
M15
G01X3.6111Y-3.3351
M16
G05
G00X3.7034Y-5.0696
M15
G01X3.719Y-5.0724
M16
G05
G00X3.7118Y-2.6733
M15
G01X3.7273Y-2.676
M16
G05
G00X3.7975Y-4.8288
M15
G01X3.813Y-4.8315
M16
G05
G00X3.8197Y-4.4105
M15
G01X3.8352Y-4.4132
M16
G05
G00X3.8875Y-5.182
M15
G01X3.903Y-5.1848
M16
G05
G00X3.9137Y-4.1696
M15
G01X3.9292Y-4.1724
M16
G05
G00X3.9359Y-3.7514
M15
G01X3.9514Y-3.7541
M16
G05
G00X4.0037Y-4.5229
M15
G01X4.0192Y-4.5257
M16
G05
G00X4.0299Y-3.5105
M15
G01X4.0454Y-3.5132
M16
G05
G00X4.0521Y-3.0923
M15
G01X4.0676Y-3.095
M16
G05
G00X4.0611Y-4.7737
M15
G01X4.0766Y-4.7764
M16
G05
G00X4.12Y-3.8638
M15
G01X4.1355Y-3.8665
M16
G05
G00X4.1462Y-2.8514
M15
G01X4.1617Y-2.8541
M16
G05
G00X4.1773Y-4.1146
M15
G01X4.1928Y-4.1173
M16
G05
G00X4.2362Y-3.2047
M15
G01X4.2517Y-3.2074
M16
G05
G00X4.2935Y-3.4554
M15
G01X4.309Y-3.4582
M16
G05
G00X4.4013Y-5.1927
M15
G01X4.4169Y-5.1954
M16
G05
G00X4.4097Y-2.7963
M15
G01X4.4252Y-2.7991
M16
G05
G00X4.4954Y-4.9518
M15
G01X4.5109Y-4.9546
M16
G05
G00X4.5176Y-4.5336
M15
G01X4.5331Y-4.5363
M16
G05
G00X4.5854Y-5.3051
M15
G01X4.6009Y-5.3078
M16
G05
G00X4.6116Y-4.2927
M15
G01X4.6271Y-4.2954
M16
G05
G00X4.6338Y-3.8744
M15
G01X4.6493Y-3.8772
M16
G05
G00X4.7016Y-4.646
M15
G01X4.7171Y-4.6487
M16
G05
G00X4.7278Y-3.6336
M15
G01X4.7433Y-3.6363
M16
G05
G00X4.75Y-3.2153
M15
G01X4.7655Y-3.2181
M16
G05
G00X4.759Y-4.8967
M15
G01X4.7745Y-4.8995
M16
G05
G00X4.8179Y-3.9869
M15
G01X4.8334Y-3.9896
M16
G05
G00X4.8441Y-2.9744
M15
G01X4.8596Y-2.9772
M16
G05
G00X4.8752Y-4.2376
M15
G01X4.8907Y-4.2404
M16
G05
G00X4.9341Y-3.3277
M15
G01X4.9496Y-3.3305
M16
G05
G00X4.9914Y-3.5785
M15
G01X5.0069Y-3.5812
M16
G05
G00X5.0992Y-5.3157
M15
G01X5.1147Y-5.3185
M16
G05
G00X5.1076Y-2.9194
M15
G01X5.1231Y-2.9221
M16
G05
G00X5.1933Y-5.0749
M15
G01X5.2088Y-5.0776
M16
G05
G00X5.2155Y-4.6566
M15
G01X5.231Y-4.6594
M16
G05
G00X5.2833Y-5.4282
M15
G01X5.2988Y-5.4309
M16
G05
G00X5.3095Y-4.4158
M15
G01X5.325Y-4.4185
M16
G05
G00X5.3317Y-3.9975
M15
G01X5.3472Y-4.0002
M16
G05
G00X5.3995Y-4.769
M15
G01X5.415Y-4.7718
M16
G05
G00X5.4257Y-3.7566
M15
G01X5.4412Y-3.7594
M16
G05
G00X5.4479Y-3.3384
M15
G01X5.4634Y-3.3411
M16
G05
G00X5.4568Y-5.0198
M15
G01X5.4724Y-5.0225
M16
G05
G00X5.5157Y-4.1099
M15
G01X5.5313Y-4.1126
M16
G05
G00X5.5419Y-3.0975
M15
G01X5.5575Y-3.1002
M16
G05
G00X5.5731Y-4.3607
M15
G01X5.5886Y-4.3634
M16
G05
G00X5.632Y-3.4508
M15
G01X5.6475Y-3.4535
M16
G05
G00X5.6893Y-3.7016
M15
G01X5.7048Y-3.7043
M16
G05
G00X5.8055Y-3.0424
M15
G01X5.821Y-3.0452
M16
G05
G00X5.9134Y-4.7797
M15
G01X5.9289Y-4.7824
M16
G05
G00X5.9716Y-5.4696
M15
G01X5.9871Y-5.4723
M16
G05
G00X6.0074Y-4.5388
M15
G01X6.0229Y-4.5415
M16
G05
G00X6.0296Y-4.1206
M15
G01X6.0451Y-4.1233
M16
G05
G00X6.0657Y-5.2287
M15
G01X6.0812Y-5.2314
M16
G05
G00X6.0974Y-4.8921
M15
G01X6.1129Y-4.8948
M16
G05
G00X6.1236Y-3.8797
M15
G01X6.1391Y-3.8824
M16
G05
G00X6.1458Y-3.4614
M15
G01X6.1613Y-3.4642
M16
G05
G00X6.1557Y-5.582
M15
G01X6.1712Y-5.5847
M16
G05
G00X6.2136Y-4.233
M15
G01X6.2292Y-4.2357
M16
G05
G00X6.2398Y-3.2206
M15
G01X6.2554Y-3.2233
M16
G05
G00X6.271Y-4.4837
M15
G01X6.2865Y-4.4865
M16
G05
G00X6.3292Y-5.1736
M15
G01X6.3447Y-5.1764
M16
G05
G00X6.3299Y-3.5738
M15
G01X6.3454Y-3.5766
M16
G05
G00X6.3872Y-3.8246
M15
G01X6.4027Y-3.8274
M16
G05
G00X6.5034Y-3.1655
M15
G01X6.5189Y-3.1682
M16
G05
G00X7.9314Y-3.5339
M15
G01X7.9469Y-3.5312
M16
G05
G00X7.9374Y-3.2754
M15
G01X7.9529Y-3.2727
M16
G05
G00X8.0476Y-4.193
M15
G01X8.0631Y-4.1903
M16
G05
G00X8.0536Y-3.9345
M15
G01X8.0691Y-3.9318
M16
G05
G00X8.1056Y-5.542
M15
G01X8.1211Y-5.5393
M16
G05
G00X8.1116Y-5.2835
M15
G01X8.1271Y-5.2808
M16
G05
G00X8.1428Y-3.5766
M15
G01X8.1583Y-3.5738
M16
G05
G00X8.1638Y-4.8521
M15
G01X8.1794Y-4.8494
M16
G05
G00X8.1662Y-3.1335
M15
G01X8.1817Y-3.1308
M16
G05
G00X8.1698Y-4.5936
M15
G01X8.1853Y-4.5909
M16
G05
G00X8.259Y-4.2357
M15
G01X8.2745Y-4.233
M16
G05
G00X8.2825Y-3.7926
M15
G01X8.298Y-3.7899
M16
G05
G00X8.317Y-5.5847
M15
G01X8.3325Y-5.582
M16
G05
G00X8.3404Y-5.1416
M15
G01X8.3559Y-5.1389
M16
G05
G00X8.3753Y-4.8948
M15
G01X8.3908Y-4.8921
M16
G05
G00X8.3987Y-4.4517
M15
G01X8.4142Y-4.449
M16
G05
G00X8.6293Y-3.4108
M15
G01X8.6448Y-3.4081
M16
G05
G00X8.6353Y-3.1523
M15
G01X8.6508Y-3.1496
M16
G05
G00X8.7455Y-4.07
M15
G01X8.761Y-4.0672
M16
G05
G00X8.7515Y-3.8115
M15
G01X8.767Y-3.8087
M16
G05
G00X8.8407Y-3.4535
M15
G01X8.8562Y-3.4508
M16
G05
G00X8.8617Y-4.7291
M15
G01X8.8773Y-4.7264
M16
G05
G00X8.8641Y-3.0104
M15
G01X8.8796Y-3.0077
M16
G05
G00X8.8677Y-4.4706
M15
G01X8.8832Y-4.4678
M16
G05
G00X8.9569Y-4.1126
M15
G01X8.9724Y-4.1099
M16
G05
G00X8.978Y-5.3882
M15
G01X8.9935Y-5.3855
M16
G05
G00X8.9803Y-3.6696
M15
G01X8.9959Y-3.6668
M16
G05
G00X8.984Y-5.1297
M15
G01X8.9995Y-5.127
M16
G05
G00X9.0732Y-4.7718
M15
G01X9.0887Y-4.769
M16
G05
G00X9.0966Y-4.3287
M15
G01X9.1121Y-4.326
M16
G05
G00X9.1894Y-5.4309
M15
G01X9.2049Y-5.4282
M16
G05
G00X9.2128Y-4.9878
M15
G01X9.2283Y-4.9851
M16
G05
G00X9.3272Y-3.2878
M15
G01X9.3427Y-3.2851
M16
G05
G00X9.3332Y-3.0293
M15
G01X9.3487Y-3.0265
M16
G05
G00X9.4434Y-3.9469
M15
G01X9.4589Y-3.9442
M16
G05
G00X9.4494Y-3.6884
M15
G01X9.4649Y-3.6857
M16
G05
G00X9.5386Y-3.3305
M15
G01X9.5541Y-3.3277
M16
G05
G00X9.5596Y-4.606
M15
G01X9.5751Y-4.6033
M16
G05
G00X9.562Y-2.8874
M15
G01X9.5775Y-2.8846
M16
G05
G00X9.5656Y-4.3475
M15
G01X9.5811Y-4.3448
M16
G05
G00X9.6548Y-3.9896
M15
G01X9.6703Y-3.9869
M16
G05
G00X9.6759Y-5.2652
M15
G01X9.6914Y-5.2624
M16
G05
G00X9.6782Y-3.5465
M15
G01X9.6938Y-3.5438
M16
G05
G00X9.6818Y-5.0066
M15
G01X9.6974Y-5.0039
M16
G05
G00X9.7711Y-4.6487
M15
G01X9.7866Y-4.646
M16
G05
G00X9.7945Y-4.2056
M15
G01X9.81Y-4.2029
M16
G05
G00X9.8873Y-5.3078
M15
G01X9.9028Y-5.3051
M16
G05
G00X9.9107Y-4.8648
M15
G01X9.9262Y-4.862
M16
G05
G00X10.0251Y-3.1647
M15
G01X10.0406Y-3.162
M16
G05
G00X10.0311Y-2.9062
M15
G01X10.0466Y-2.9035
M16
G05
G00X10.1413Y-3.8239
M15
G01X10.1568Y-3.8211
M16
G05
G00X10.1473Y-3.5653
M15
G01X10.1628Y-3.5626
M16
G05
G00X10.2365Y-3.2074
M15
G01X10.252Y-3.2047
M16
G05
G00X10.2575Y-4.483
M15
G01X10.273Y-4.4802
M16
G05
G00X10.2599Y-2.7643
M15
G01X10.2754Y-2.7616
M16
G05
G00X10.2635Y-4.2245
M15
G01X10.279Y-4.2217
M16
G05
G00X10.3527Y-3.8665
M15
G01X10.3682Y-3.8638
M16
G05
G00X10.3738Y-5.1421
M15
G01X10.3893Y-5.1394
M16
G05
G00X10.3761Y-3.4234
M15
G01X10.3916Y-3.4207
M16
G05
G00X10.3797Y-4.8836
M15
G01X10.3953Y-4.8809
M16
G05
G00X10.4689Y-4.5257
M15
G01X10.4845Y-4.5229
M16
G05
G00X10.4924Y-4.0826
M15
G01X10.5079Y-4.0798
M16
G05
G00X10.5852Y-5.1848
M15
G01X10.6007Y-5.182
M16
G05
G00X10.6086Y-4.7417
M15
G01X10.6241Y-4.739
M16
G05
G00X10.723Y-3.0417
M15
G01X10.7385Y-3.0389
M16
G05
G00X10.729Y-2.7832
M15
G01X10.7445Y-2.7804
M16
G05
G00X10.8392Y-3.7008
M15
G01X10.8547Y-3.6981
M16
G05
G00X10.8452Y-3.4423
M15
G01X10.8607Y-3.4395
M16
G05
G00X10.9344Y-3.0843
M15
G01X10.9499Y-3.0816
M16
G05
G00X10.9554Y-4.3599
M15
G01X10.9709Y-4.3572
M16
G05
G00X10.9578Y-2.6413
M15
G01X10.9733Y-2.6385
M16
G05
G00X10.9614Y-4.1014
M15
G01X10.9769Y-4.0987
M16
G05
G00X11.0506Y-3.7435
M15
G01X11.0661Y-3.7407
M16
G05
G00X11.0717Y-5.019
M15
G01X11.0872Y-5.0163
M16
G05
G00X11.074Y-3.3004
M15
G01X11.0895Y-3.2977
M16
G05
G00X11.0776Y-4.7605
M15
G01X11.0931Y-4.7578
M16
G05
G00X11.1668Y-4.4026
M15
G01X11.1823Y-4.3999
M16
G05
G00X11.1903Y-3.9595
M15
G01X11.2058Y-3.9568
M16
G05
G00X11.2831Y-5.0617
M15
G01X11.2986Y-5.059
M16
G05
G00X11.3065Y-4.6186
M15
G01X11.322Y-4.6159
M16
G05
T0
M30
