%TF.GenerationSoftware,KiCad,Pcbnew,(5.1.10-1-10_14)*%
%TF.CreationDate,2021-09-19T11:37:43+09:00*%
%TF.ProjectId,Vpico,56706963-6f2e-46b6-9963-61645f706362,rev?*%
%TF.SameCoordinates,Original*%
%TF.FileFunction,Copper,L1,Top*%
%TF.FilePolarity,Positive*%
%FSLAX46Y46*%
G04 Gerber Fmt 4.6, Leading zero omitted, Abs format (unit mm)*
G04 Created by KiCad (PCBNEW (5.1.10-1-10_14)) date 2021-09-19 11:37:43*
%MOMM*%
%LPD*%
G01*
G04 APERTURE LIST*
%TA.AperFunction,WasherPad*%
%ADD10C,2.100000*%
%TD*%
%TA.AperFunction,WasherPad*%
%ADD11C,1.900000*%
%TD*%
%TA.AperFunction,ComponentPad*%
%ADD12O,1.700000X1.700000*%
%TD*%
%TA.AperFunction,ComponentPad*%
%ADD13R,1.700000X1.700000*%
%TD*%
%TA.AperFunction,SMDPad,CuDef*%
%ADD14R,1.700000X3.500000*%
%TD*%
%TA.AperFunction,SMDPad,CuDef*%
%ADD15R,3.500000X1.700000*%
%TD*%
%TA.AperFunction,ViaPad*%
%ADD16C,0.800000*%
%TD*%
%TA.AperFunction,Conductor*%
%ADD17C,0.250000*%
%TD*%
%TA.AperFunction,Conductor*%
%ADD18C,0.400000*%
%TD*%
%TA.AperFunction,Conductor*%
%ADD19C,0.254000*%
%TD*%
%TA.AperFunction,Conductor*%
%ADD20C,0.100000*%
%TD*%
G04 APERTURE END LIST*
%TO.P,SW30,1*%
%TO.N,Net-(D30-Pad2)*%
%TA.AperFunction,ComponentPad*%
G36*
G01*
X277233894Y-110924211D02*
X277233894Y-110924211D01*
G75*
G02*
X278045054Y-109765755I984808J173648D01*
G01*
X278537458Y-109678931D01*
G75*
G02*
X279695914Y-110490091I173648J-984808D01*
G01*
X279695914Y-110490091D01*
G75*
G02*
X278884754Y-111648547I-984808J-173648D01*
G01*
X278392350Y-111735371D01*
G75*
G02*
X277233894Y-110924211I-173648J984808D01*
G01*
G37*
%TD.AperFunction*%
D10*
%TO.P,SW30,*%
%TO.N,*%
X277393753Y-106935860D03*
X288226639Y-105025730D03*
%TO.P,SW30,2*%
%TO.N,C10*%
%TA.AperFunction,ComponentPad*%
G36*
G01*
X282603710Y-112008221D02*
X282603710Y-112008221D01*
G75*
G02*
X283414870Y-110849765I984808J173648D01*
G01*
X283907274Y-110762941D01*
G75*
G02*
X285065730Y-111574101I173648J-984808D01*
G01*
X285065730Y-111574101D01*
G75*
G02*
X284254570Y-112732557I-984808J-173648D01*
G01*
X283762166Y-112819381D01*
G75*
G02*
X282603710Y-112008221I-173648J984808D01*
G01*
G37*
%TD.AperFunction*%
%TA.AperFunction,ComponentPad*%
G36*
G01*
X283198465Y-100753965D02*
X283198465Y-100753965D01*
G75*
G02*
X284009625Y-99595509I984808J173648D01*
G01*
X284502029Y-99508685D01*
G75*
G02*
X285660485Y-100319845I173648J-984808D01*
G01*
X285660485Y-100319845D01*
G75*
G02*
X284849325Y-101478301I-984808J-173648D01*
G01*
X284356921Y-101565125D01*
G75*
G02*
X283198465Y-100753965I-173648J984808D01*
G01*
G37*
%TD.AperFunction*%
%TO.P,SW30,1*%
%TO.N,Net-(D30-Pad2)*%
%TA.AperFunction,ComponentPad*%
G36*
G01*
X277386002Y-104358043D02*
X277386002Y-104358043D01*
G75*
G02*
X278197162Y-103199587I984808J173648D01*
G01*
X278689566Y-103112763D01*
G75*
G02*
X279848022Y-103923923I173648J-984808D01*
G01*
X279848022Y-103923923D01*
G75*
G02*
X279036862Y-105082379I-984808J-173648D01*
G01*
X278544458Y-105169203D01*
G75*
G02*
X277386002Y-104358043I-173648J984808D01*
G01*
G37*
%TD.AperFunction*%
D11*
%TO.P,SW30,*%
%TO.N,*%
X287813019Y-105098662D03*
X277807373Y-106862928D03*
%TD*%
%TO.P,SW26,1*%
%TO.N,Net-(D26-Pad2)*%
%TA.AperFunction,ComponentPad*%
G36*
G01*
X206327736Y-123426880D02*
X206327736Y-123426880D01*
G75*
G02*
X207138896Y-122268424I984808J173648D01*
G01*
X207631300Y-122181600D01*
G75*
G02*
X208789756Y-122992760I173648J-984808D01*
G01*
X208789756Y-122992760D01*
G75*
G02*
X207978596Y-124151216I-984808J-173648D01*
G01*
X207486192Y-124238040D01*
G75*
G02*
X206327736Y-123426880I-173648J984808D01*
G01*
G37*
%TD.AperFunction*%
D10*
%TO.P,SW26,*%
%TO.N,*%
X206487595Y-119438529D03*
X217320481Y-117528399D03*
%TO.P,SW26,2*%
%TO.N,C6*%
%TA.AperFunction,ComponentPad*%
G36*
G01*
X211697552Y-124510890D02*
X211697552Y-124510890D01*
G75*
G02*
X212508712Y-123352434I984808J173648D01*
G01*
X213001116Y-123265610D01*
G75*
G02*
X214159572Y-124076770I173648J-984808D01*
G01*
X214159572Y-124076770D01*
G75*
G02*
X213348412Y-125235226I-984808J-173648D01*
G01*
X212856008Y-125322050D01*
G75*
G02*
X211697552Y-124510890I-173648J984808D01*
G01*
G37*
%TD.AperFunction*%
%TA.AperFunction,ComponentPad*%
G36*
G01*
X212292307Y-113256634D02*
X212292307Y-113256634D01*
G75*
G02*
X213103467Y-112098178I984808J173648D01*
G01*
X213595871Y-112011354D01*
G75*
G02*
X214754327Y-112822514I173648J-984808D01*
G01*
X214754327Y-112822514D01*
G75*
G02*
X213943167Y-113980970I-984808J-173648D01*
G01*
X213450763Y-114067794D01*
G75*
G02*
X212292307Y-113256634I-173648J984808D01*
G01*
G37*
%TD.AperFunction*%
%TO.P,SW26,1*%
%TO.N,Net-(D26-Pad2)*%
%TA.AperFunction,ComponentPad*%
G36*
G01*
X206479844Y-116860712D02*
X206479844Y-116860712D01*
G75*
G02*
X207291004Y-115702256I984808J173648D01*
G01*
X207783408Y-115615432D01*
G75*
G02*
X208941864Y-116426592I173648J-984808D01*
G01*
X208941864Y-116426592D01*
G75*
G02*
X208130704Y-117585048I-984808J-173648D01*
G01*
X207638300Y-117671872D01*
G75*
G02*
X206479844Y-116860712I-173648J984808D01*
G01*
G37*
%TD.AperFunction*%
D11*
%TO.P,SW26,*%
%TO.N,*%
X216906861Y-117601331D03*
X206901215Y-119365597D03*
%TD*%
%TO.P,SW32,1*%
%TO.N,Net-(D32-Pad2)*%
%TA.AperFunction,ComponentPad*%
G36*
G01*
X93033567Y-128586279D02*
X93033567Y-128586279D01*
G75*
G02*
X94192023Y-127775119I984808J-173648D01*
G01*
X94684427Y-127861943D01*
G75*
G02*
X95495587Y-129020399I-173648J-984808D01*
G01*
X95495587Y-129020399D01*
G75*
G02*
X94337131Y-129831559I-984808J173648D01*
G01*
X93844727Y-129744735D01*
G75*
G02*
X93033567Y-128586279I173648J984808D01*
G01*
G37*
%TD.AperFunction*%
D10*
%TO.P,SW32,*%
%TO.N,*%
X94547881Y-124893129D03*
X105380767Y-126803259D03*
%TO.P,SW32,2*%
%TO.N,C2*%
%TA.AperFunction,ComponentPad*%
G36*
G01*
X97708790Y-131441500D02*
X97708790Y-131441500D01*
G75*
G02*
X98867246Y-130630340I984808J-173648D01*
G01*
X99359650Y-130717164D01*
G75*
G02*
X100170810Y-131875620I-173648J-984808D01*
G01*
X100170810Y-131875620D01*
G75*
G02*
X99012354Y-132686780I-984808J173648D01*
G01*
X98519950Y-132599956D01*
G75*
G02*
X97708790Y-131441500I173648J984808D01*
G01*
G37*
%TD.AperFunction*%
%TA.AperFunction,ComponentPad*%
G36*
G01*
X102116858Y-121069377D02*
X102116858Y-121069377D01*
G75*
G02*
X103275314Y-120258217I984808J-173648D01*
G01*
X103767718Y-120345041D01*
G75*
G02*
X104578878Y-121503497I-173648J-984808D01*
G01*
X104578878Y-121503497D01*
G75*
G02*
X103420422Y-122314657I-984808J173648D01*
G01*
X102928018Y-122227833D01*
G75*
G02*
X102116858Y-121069377I173648J984808D01*
G01*
G37*
%TD.AperFunction*%
%TO.P,SW32,1*%
%TO.N,Net-(D32-Pad2)*%
%TA.AperFunction,ComponentPad*%
G36*
G01*
X95422263Y-122468123D02*
X95422263Y-122468123D01*
G75*
G02*
X96580719Y-121656963I984808J-173648D01*
G01*
X97073123Y-121743787D01*
G75*
G02*
X97884283Y-122902243I-173648J-984808D01*
G01*
X97884283Y-122902243D01*
G75*
G02*
X96725827Y-123713403I-984808J173648D01*
G01*
X96233423Y-123626579D01*
G75*
G02*
X95422263Y-122468123I173648J984808D01*
G01*
G37*
%TD.AperFunction*%
D11*
%TO.P,SW32,*%
%TO.N,*%
X104967147Y-126730327D03*
X94961501Y-124966061D03*
%TD*%
D12*
%TO.P,J1,4*%
%TO.N,Net-(J1-Pad4)*%
X181380000Y-143500000D03*
%TO.P,J1,3*%
%TO.N,GND*%
X183920000Y-143500000D03*
%TO.P,J1,2*%
%TO.N,Net-(J1-Pad2)*%
X186460000Y-143500000D03*
D13*
%TO.P,J1,1*%
%TO.N,VIN*%
X189000000Y-143500000D03*
%TD*%
D11*
%TO.P,SW36,*%
%TO.N,*%
X205421599Y-136888745D03*
X215427245Y-135124479D03*
%TO.P,SW36,1*%
%TO.N,Net-(D36-Pad2)*%
%TA.AperFunction,ComponentPad*%
G36*
G01*
X205000228Y-134383860D02*
X205000228Y-134383860D01*
G75*
G02*
X205811388Y-133225404I984808J173648D01*
G01*
X206303792Y-133138580D01*
G75*
G02*
X207462248Y-133949740I173648J-984808D01*
G01*
X207462248Y-133949740D01*
G75*
G02*
X206651088Y-135108196I-984808J-173648D01*
G01*
X206158684Y-135195020D01*
G75*
G02*
X205000228Y-134383860I-173648J984808D01*
G01*
G37*
%TD.AperFunction*%
%TO.P,SW36,2*%
%TO.N,C6*%
%TA.AperFunction,ComponentPad*%
G36*
G01*
X210812691Y-130779782D02*
X210812691Y-130779782D01*
G75*
G02*
X211623851Y-129621326I984808J173648D01*
G01*
X212116255Y-129534502D01*
G75*
G02*
X213274711Y-130345662I173648J-984808D01*
G01*
X213274711Y-130345662D01*
G75*
G02*
X212463551Y-131504118I-984808J-173648D01*
G01*
X211971147Y-131590942D01*
G75*
G02*
X210812691Y-130779782I-173648J984808D01*
G01*
G37*
%TD.AperFunction*%
%TA.AperFunction,ComponentPad*%
G36*
G01*
X210217936Y-142034038D02*
X210217936Y-142034038D01*
G75*
G02*
X211029096Y-140875582I984808J173648D01*
G01*
X211521500Y-140788758D01*
G75*
G02*
X212679956Y-141599918I173648J-984808D01*
G01*
X212679956Y-141599918D01*
G75*
G02*
X211868796Y-142758374I-984808J-173648D01*
G01*
X211376392Y-142845198D01*
G75*
G02*
X210217936Y-142034038I-173648J984808D01*
G01*
G37*
%TD.AperFunction*%
D10*
%TO.P,SW36,*%
%TO.N,*%
X215840865Y-135051547D03*
X205007979Y-136961677D03*
%TO.P,SW36,1*%
%TO.N,Net-(D36-Pad2)*%
%TA.AperFunction,ComponentPad*%
G36*
G01*
X204848120Y-140950028D02*
X204848120Y-140950028D01*
G75*
G02*
X205659280Y-139791572I984808J173648D01*
G01*
X206151684Y-139704748D01*
G75*
G02*
X207310140Y-140515908I173648J-984808D01*
G01*
X207310140Y-140515908D01*
G75*
G02*
X206498980Y-141674364I-984808J-173648D01*
G01*
X206006576Y-141761188D01*
G75*
G02*
X204848120Y-140950028I-173648J984808D01*
G01*
G37*
%TD.AperFunction*%
%TD*%
D11*
%TO.P,SW35,*%
%TO.N,*%
X152572755Y-135124479D03*
X162578401Y-136888745D03*
%TO.P,SW35,1*%
%TO.N,Net-(D35-Pad2)*%
%TA.AperFunction,ComponentPad*%
G36*
G01*
X153033517Y-132626541D02*
X153033517Y-132626541D01*
G75*
G02*
X154191973Y-131815381I984808J-173648D01*
G01*
X154684377Y-131902205D01*
G75*
G02*
X155495537Y-133060661I-173648J-984808D01*
G01*
X155495537Y-133060661D01*
G75*
G02*
X154337081Y-133871821I-984808J173648D01*
G01*
X153844677Y-133784997D01*
G75*
G02*
X153033517Y-132626541I173648J984808D01*
G01*
G37*
%TD.AperFunction*%
%TO.P,SW35,2*%
%TO.N,C5*%
%TA.AperFunction,ComponentPad*%
G36*
G01*
X159728112Y-131227795D02*
X159728112Y-131227795D01*
G75*
G02*
X160886568Y-130416635I984808J-173648D01*
G01*
X161378972Y-130503459D01*
G75*
G02*
X162190132Y-131661915I-173648J-984808D01*
G01*
X162190132Y-131661915D01*
G75*
G02*
X161031676Y-132473075I-984808J173648D01*
G01*
X160539272Y-132386251D01*
G75*
G02*
X159728112Y-131227795I173648J984808D01*
G01*
G37*
%TD.AperFunction*%
%TA.AperFunction,ComponentPad*%
G36*
G01*
X155320044Y-141599918D02*
X155320044Y-141599918D01*
G75*
G02*
X156478500Y-140788758I984808J-173648D01*
G01*
X156970904Y-140875582D01*
G75*
G02*
X157782064Y-142034038I-173648J-984808D01*
G01*
X157782064Y-142034038D01*
G75*
G02*
X156623608Y-142845198I-984808J173648D01*
G01*
X156131204Y-142758374D01*
G75*
G02*
X155320044Y-141599918I173648J984808D01*
G01*
G37*
%TD.AperFunction*%
D10*
%TO.P,SW35,*%
%TO.N,*%
X162992021Y-136961677D03*
X152159135Y-135051547D03*
%TO.P,SW35,1*%
%TO.N,Net-(D35-Pad2)*%
%TA.AperFunction,ComponentPad*%
G36*
G01*
X150644821Y-138744697D02*
X150644821Y-138744697D01*
G75*
G02*
X151803277Y-137933537I984808J-173648D01*
G01*
X152295681Y-138020361D01*
G75*
G02*
X153106841Y-139178817I-173648J-984808D01*
G01*
X153106841Y-139178817D01*
G75*
G02*
X151948385Y-139989977I-984808J173648D01*
G01*
X151455981Y-139903153D01*
G75*
G02*
X150644821Y-138744697I173648J984808D01*
G01*
G37*
%TD.AperFunction*%
%TD*%
D12*
%TO.P,U1,43*%
%TO.N,Net-(J1-Pad2)*%
X186540000Y-128400000D03*
D14*
X186540000Y-129300000D03*
D13*
%TO.P,U1,42*%
%TO.N,GND*%
X184000000Y-128400000D03*
D14*
X184000000Y-129300000D03*
D12*
%TO.P,U1,41*%
%TO.N,Net-(J1-Pad4)*%
X181460000Y-128400000D03*
D14*
X181460000Y-129300000D03*
D15*
%TO.P,U1,21*%
%TO.N,C10*%
X193790000Y-128630000D03*
%TO.P,U1,22*%
%TO.N,C9*%
X193790000Y-126090000D03*
%TO.P,U1,23*%
%TO.N,GND*%
X193790000Y-123550000D03*
%TO.P,U1,24*%
%TO.N,C8*%
X193790000Y-121010000D03*
%TO.P,U1,25*%
%TO.N,C7*%
X193790000Y-118470000D03*
%TO.P,U1,26*%
%TO.N,C6*%
X193790000Y-115930000D03*
%TO.P,U1,27*%
%TO.N,LED*%
X193790000Y-113390000D03*
%TO.P,U1,28*%
%TO.N,GND*%
X193790000Y-110850000D03*
%TO.P,U1,29*%
%TO.N,Net-(U1-Pad29)*%
X193790000Y-108310000D03*
%TO.P,U1,30*%
%TO.N,Net-(U1-Pad30)*%
X193790000Y-105770000D03*
%TO.P,U1,31*%
%TO.N,Net-(U1-Pad31)*%
X193790000Y-103230000D03*
%TO.P,U1,32*%
%TO.N,Net-(U1-Pad32)*%
X193790000Y-100690000D03*
%TO.P,U1,33*%
%TO.N,GND*%
X193790000Y-98150000D03*
%TO.P,U1,34*%
%TO.N,Net-(U1-Pad34)*%
X193790000Y-95610000D03*
%TO.P,U1,35*%
%TO.N,Net-(U1-Pad35)*%
X193790000Y-93070000D03*
%TO.P,U1,36*%
%TO.N,Net-(U1-Pad36)*%
X193790000Y-90530000D03*
%TO.P,U1,37*%
%TO.N,Net-(U1-Pad37)*%
X193790000Y-87990000D03*
%TO.P,U1,38*%
%TO.N,Net-(U1-Pad38)*%
X193790000Y-85450000D03*
%TO.P,U1,39*%
%TO.N,VIN*%
X193790000Y-82910000D03*
%TO.P,U1,40*%
%TO.N,VCC*%
X193790000Y-80370000D03*
%TO.P,U1,20*%
%TO.N,C1*%
X174210000Y-128630000D03*
%TO.P,U1,19*%
%TO.N,C2*%
X174210000Y-126090000D03*
%TO.P,U1,18*%
%TO.N,GND*%
X174210000Y-123550000D03*
%TO.P,U1,17*%
%TO.N,C3*%
X174210000Y-121010000D03*
%TO.P,U1,16*%
%TO.N,C4*%
X174210000Y-118470000D03*
%TO.P,U1,15*%
%TO.N,C5*%
X174210000Y-115930000D03*
%TO.P,U1,14*%
%TO.N,R4*%
X174210000Y-113390000D03*
%TO.P,U1,13*%
%TO.N,GND*%
X174210000Y-110850000D03*
%TO.P,U1,12*%
%TO.N,R3*%
X174210000Y-108310000D03*
%TO.P,U1,11*%
%TO.N,R2*%
X174210000Y-105770000D03*
%TO.P,U1,10*%
%TO.N,R1*%
X174210000Y-103230000D03*
%TO.P,U1,9*%
%TO.N,Net-(U1-Pad9)*%
X174210000Y-100690000D03*
%TO.P,U1,8*%
%TO.N,GND*%
X174210000Y-98150000D03*
%TO.P,U1,7*%
%TO.N,Net-(U1-Pad7)*%
X174210000Y-95610000D03*
%TO.P,U1,6*%
%TO.N,Net-(U1-Pad6)*%
X174210000Y-93070000D03*
%TO.P,U1,5*%
%TO.N,Net-(U1-Pad5)*%
X174210000Y-90530000D03*
%TO.P,U1,4*%
%TO.N,Net-(U1-Pad4)*%
X174210000Y-87990000D03*
%TO.P,U1,3*%
%TO.N,GND*%
X174210000Y-85450000D03*
%TO.P,U1,2*%
%TO.N,Net-(U1-Pad2)*%
X174210000Y-82910000D03*
%TO.P,U1,1*%
%TO.N,Net-(U1-Pad1)*%
X174210000Y-80370000D03*
D12*
%TO.P,U1,40*%
%TO.N,VCC*%
X192890000Y-80370000D03*
%TO.P,U1,39*%
%TO.N,VIN*%
X192890000Y-82910000D03*
D13*
%TO.P,U1,38*%
%TO.N,Net-(U1-Pad38)*%
X192890000Y-85450000D03*
D12*
%TO.P,U1,37*%
%TO.N,Net-(U1-Pad37)*%
X192890000Y-87990000D03*
%TO.P,U1,36*%
%TO.N,Net-(U1-Pad36)*%
X192890000Y-90530000D03*
%TO.P,U1,35*%
%TO.N,Net-(U1-Pad35)*%
X192890000Y-93070000D03*
%TO.P,U1,34*%
%TO.N,Net-(U1-Pad34)*%
X192890000Y-95610000D03*
D13*
%TO.P,U1,33*%
%TO.N,GND*%
X192890000Y-98150000D03*
D12*
%TO.P,U1,32*%
%TO.N,Net-(U1-Pad32)*%
X192890000Y-100690000D03*
%TO.P,U1,31*%
%TO.N,Net-(U1-Pad31)*%
X192890000Y-103230000D03*
%TO.P,U1,30*%
%TO.N,Net-(U1-Pad30)*%
X192890000Y-105770000D03*
%TO.P,U1,29*%
%TO.N,Net-(U1-Pad29)*%
X192890000Y-108310000D03*
D13*
%TO.P,U1,28*%
%TO.N,GND*%
X192890000Y-110850000D03*
D12*
%TO.P,U1,27*%
%TO.N,LED*%
X192890000Y-113390000D03*
%TO.P,U1,26*%
%TO.N,C6*%
X192890000Y-115930000D03*
%TO.P,U1,25*%
%TO.N,C7*%
X192890000Y-118470000D03*
%TO.P,U1,24*%
%TO.N,C8*%
X192890000Y-121010000D03*
D13*
%TO.P,U1,23*%
%TO.N,GND*%
X192890000Y-123550000D03*
D12*
%TO.P,U1,22*%
%TO.N,C9*%
X192890000Y-126090000D03*
%TO.P,U1,21*%
%TO.N,C10*%
X192890000Y-128630000D03*
%TO.P,U1,20*%
%TO.N,C1*%
X175110000Y-128630000D03*
%TO.P,U1,19*%
%TO.N,C2*%
X175110000Y-126090000D03*
D13*
%TO.P,U1,18*%
%TO.N,GND*%
X175110000Y-123550000D03*
D12*
%TO.P,U1,17*%
%TO.N,C3*%
X175110000Y-121010000D03*
%TO.P,U1,16*%
%TO.N,C4*%
X175110000Y-118470000D03*
%TO.P,U1,15*%
%TO.N,C5*%
X175110000Y-115930000D03*
%TO.P,U1,14*%
%TO.N,R4*%
X175110000Y-113390000D03*
D13*
%TO.P,U1,13*%
%TO.N,GND*%
X175110000Y-110850000D03*
D12*
%TO.P,U1,12*%
%TO.N,R3*%
X175110000Y-108310000D03*
%TO.P,U1,11*%
%TO.N,R2*%
X175110000Y-105770000D03*
%TO.P,U1,10*%
%TO.N,R1*%
X175110000Y-103230000D03*
%TO.P,U1,9*%
%TO.N,Net-(U1-Pad9)*%
X175110000Y-100690000D03*
D13*
%TO.P,U1,8*%
%TO.N,GND*%
X175110000Y-98150000D03*
D12*
%TO.P,U1,7*%
%TO.N,Net-(U1-Pad7)*%
X175110000Y-95610000D03*
%TO.P,U1,6*%
%TO.N,Net-(U1-Pad6)*%
X175110000Y-93070000D03*
%TO.P,U1,5*%
%TO.N,Net-(U1-Pad5)*%
X175110000Y-90530000D03*
%TO.P,U1,4*%
%TO.N,Net-(U1-Pad4)*%
X175110000Y-87990000D03*
D13*
%TO.P,U1,3*%
%TO.N,GND*%
X175110000Y-85450000D03*
D12*
%TO.P,U1,2*%
%TO.N,Net-(U1-Pad2)*%
X175110000Y-82910000D03*
%TO.P,U1,1*%
%TO.N,Net-(U1-Pad1)*%
X175110000Y-80370000D03*
%TD*%
%TO.P,SW40,1*%
%TO.N,Net-(D40-Pad2)*%
%TA.AperFunction,ComponentPad*%
G36*
G01*
X280185913Y-127665943D02*
X280185913Y-127665943D01*
G75*
G02*
X280997073Y-126507487I984808J173648D01*
G01*
X281489477Y-126420663D01*
G75*
G02*
X282647933Y-127231823I173648J-984808D01*
G01*
X282647933Y-127231823D01*
G75*
G02*
X281836773Y-128390279I-984808J-173648D01*
G01*
X281344369Y-128477103D01*
G75*
G02*
X280185913Y-127665943I-173648J984808D01*
G01*
G37*
%TD.AperFunction*%
D10*
%TO.P,SW40,*%
%TO.N,*%
X280345772Y-123677592D03*
X291178658Y-121767462D03*
%TO.P,SW40,2*%
%TO.N,C10*%
%TA.AperFunction,ComponentPad*%
G36*
G01*
X285555729Y-128749953D02*
X285555729Y-128749953D01*
G75*
G02*
X286366889Y-127591497I984808J173648D01*
G01*
X286859293Y-127504673D01*
G75*
G02*
X288017749Y-128315833I173648J-984808D01*
G01*
X288017749Y-128315833D01*
G75*
G02*
X287206589Y-129474289I-984808J-173648D01*
G01*
X286714185Y-129561113D01*
G75*
G02*
X285555729Y-128749953I-173648J984808D01*
G01*
G37*
%TD.AperFunction*%
%TA.AperFunction,ComponentPad*%
G36*
G01*
X286150484Y-117495697D02*
X286150484Y-117495697D01*
G75*
G02*
X286961644Y-116337241I984808J173648D01*
G01*
X287454048Y-116250417D01*
G75*
G02*
X288612504Y-117061577I173648J-984808D01*
G01*
X288612504Y-117061577D01*
G75*
G02*
X287801344Y-118220033I-984808J-173648D01*
G01*
X287308940Y-118306857D01*
G75*
G02*
X286150484Y-117495697I-173648J984808D01*
G01*
G37*
%TD.AperFunction*%
%TO.P,SW40,1*%
%TO.N,Net-(D40-Pad2)*%
%TA.AperFunction,ComponentPad*%
G36*
G01*
X280338021Y-121099775D02*
X280338021Y-121099775D01*
G75*
G02*
X281149181Y-119941319I984808J173648D01*
G01*
X281641585Y-119854495D01*
G75*
G02*
X282800041Y-120665655I173648J-984808D01*
G01*
X282800041Y-120665655D01*
G75*
G02*
X281988881Y-121824111I-984808J-173648D01*
G01*
X281496477Y-121910935D01*
G75*
G02*
X280338021Y-121099775I-173648J984808D01*
G01*
G37*
%TD.AperFunction*%
D11*
%TO.P,SW40,*%
%TO.N,*%
X290765038Y-121840394D03*
X280759392Y-123604660D03*
%TD*%
%TO.P,SW39,1*%
%TO.N,Net-(D39-Pad2)*%
%TA.AperFunction,ComponentPad*%
G36*
G01*
X262459374Y-130791610D02*
X262459374Y-130791610D01*
G75*
G02*
X263270534Y-129633154I984808J173648D01*
G01*
X263762938Y-129546330D01*
G75*
G02*
X264921394Y-130357490I173648J-984808D01*
G01*
X264921394Y-130357490D01*
G75*
G02*
X264110234Y-131515946I-984808J-173648D01*
G01*
X263617830Y-131602770D01*
G75*
G02*
X262459374Y-130791610I-173648J984808D01*
G01*
G37*
%TD.AperFunction*%
D10*
%TO.P,SW39,*%
%TO.N,*%
X262619233Y-126803259D03*
X273452119Y-124893129D03*
%TO.P,SW39,2*%
%TO.N,C9*%
%TA.AperFunction,ComponentPad*%
G36*
G01*
X267829190Y-131875620D02*
X267829190Y-131875620D01*
G75*
G02*
X268640350Y-130717164I984808J173648D01*
G01*
X269132754Y-130630340D01*
G75*
G02*
X270291210Y-131441500I173648J-984808D01*
G01*
X270291210Y-131441500D01*
G75*
G02*
X269480050Y-132599956I-984808J-173648D01*
G01*
X268987646Y-132686780D01*
G75*
G02*
X267829190Y-131875620I-173648J984808D01*
G01*
G37*
%TD.AperFunction*%
%TA.AperFunction,ComponentPad*%
G36*
G01*
X268423945Y-120621364D02*
X268423945Y-120621364D01*
G75*
G02*
X269235105Y-119462908I984808J173648D01*
G01*
X269727509Y-119376084D01*
G75*
G02*
X270885965Y-120187244I173648J-984808D01*
G01*
X270885965Y-120187244D01*
G75*
G02*
X270074805Y-121345700I-984808J-173648D01*
G01*
X269582401Y-121432524D01*
G75*
G02*
X268423945Y-120621364I-173648J984808D01*
G01*
G37*
%TD.AperFunction*%
%TO.P,SW39,1*%
%TO.N,Net-(D39-Pad2)*%
%TA.AperFunction,ComponentPad*%
G36*
G01*
X262611482Y-124225442D02*
X262611482Y-124225442D01*
G75*
G02*
X263422642Y-123066986I984808J173648D01*
G01*
X263915046Y-122980162D01*
G75*
G02*
X265073502Y-123791322I173648J-984808D01*
G01*
X265073502Y-123791322D01*
G75*
G02*
X264262342Y-124949778I-984808J-173648D01*
G01*
X263769938Y-125036602D01*
G75*
G02*
X262611482Y-124225442I-173648J984808D01*
G01*
G37*
%TD.AperFunction*%
D11*
%TO.P,SW39,*%
%TO.N,*%
X273038499Y-124966061D03*
X263032853Y-126730327D03*
%TD*%
%TO.P,SW38,1*%
%TO.N,Net-(D38-Pad2)*%
%TA.AperFunction,ComponentPad*%
G36*
G01*
X244732834Y-133917277D02*
X244732834Y-133917277D01*
G75*
G02*
X245543994Y-132758821I984808J173648D01*
G01*
X246036398Y-132671997D01*
G75*
G02*
X247194854Y-133483157I173648J-984808D01*
G01*
X247194854Y-133483157D01*
G75*
G02*
X246383694Y-134641613I-984808J-173648D01*
G01*
X245891290Y-134728437D01*
G75*
G02*
X244732834Y-133917277I-173648J984808D01*
G01*
G37*
%TD.AperFunction*%
D10*
%TO.P,SW38,*%
%TO.N,*%
X244892693Y-129928926D03*
X255725579Y-128018796D03*
%TO.P,SW38,2*%
%TO.N,C8*%
%TA.AperFunction,ComponentPad*%
G36*
G01*
X250102650Y-135001287D02*
X250102650Y-135001287D01*
G75*
G02*
X250913810Y-133842831I984808J173648D01*
G01*
X251406214Y-133756007D01*
G75*
G02*
X252564670Y-134567167I173648J-984808D01*
G01*
X252564670Y-134567167D01*
G75*
G02*
X251753510Y-135725623I-984808J-173648D01*
G01*
X251261106Y-135812447D01*
G75*
G02*
X250102650Y-135001287I-173648J984808D01*
G01*
G37*
%TD.AperFunction*%
%TA.AperFunction,ComponentPad*%
G36*
G01*
X250697405Y-123747031D02*
X250697405Y-123747031D01*
G75*
G02*
X251508565Y-122588575I984808J173648D01*
G01*
X252000969Y-122501751D01*
G75*
G02*
X253159425Y-123312911I173648J-984808D01*
G01*
X253159425Y-123312911D01*
G75*
G02*
X252348265Y-124471367I-984808J-173648D01*
G01*
X251855861Y-124558191D01*
G75*
G02*
X250697405Y-123747031I-173648J984808D01*
G01*
G37*
%TD.AperFunction*%
%TO.P,SW38,1*%
%TO.N,Net-(D38-Pad2)*%
%TA.AperFunction,ComponentPad*%
G36*
G01*
X244884942Y-127351109D02*
X244884942Y-127351109D01*
G75*
G02*
X245696102Y-126192653I984808J173648D01*
G01*
X246188506Y-126105829D01*
G75*
G02*
X247346962Y-126916989I173648J-984808D01*
G01*
X247346962Y-126916989D01*
G75*
G02*
X246535802Y-128075445I-984808J-173648D01*
G01*
X246043398Y-128162269D01*
G75*
G02*
X244884942Y-127351109I-173648J984808D01*
G01*
G37*
%TD.AperFunction*%
D11*
%TO.P,SW38,*%
%TO.N,*%
X255311959Y-128091728D03*
X245306313Y-129855994D03*
%TD*%
%TO.P,SW37,1*%
%TO.N,Net-(D37-Pad2)*%
%TA.AperFunction,ComponentPad*%
G36*
G01*
X227006295Y-137042944D02*
X227006295Y-137042944D01*
G75*
G02*
X227817455Y-135884488I984808J173648D01*
G01*
X228309859Y-135797664D01*
G75*
G02*
X229468315Y-136608824I173648J-984808D01*
G01*
X229468315Y-136608824D01*
G75*
G02*
X228657155Y-137767280I-984808J-173648D01*
G01*
X228164751Y-137854104D01*
G75*
G02*
X227006295Y-137042944I-173648J984808D01*
G01*
G37*
%TD.AperFunction*%
D10*
%TO.P,SW37,*%
%TO.N,*%
X227166154Y-133054593D03*
X237999040Y-131144463D03*
%TO.P,SW37,2*%
%TO.N,C7*%
%TA.AperFunction,ComponentPad*%
G36*
G01*
X232376111Y-138126954D02*
X232376111Y-138126954D01*
G75*
G02*
X233187271Y-136968498I984808J173648D01*
G01*
X233679675Y-136881674D01*
G75*
G02*
X234838131Y-137692834I173648J-984808D01*
G01*
X234838131Y-137692834D01*
G75*
G02*
X234026971Y-138851290I-984808J-173648D01*
G01*
X233534567Y-138938114D01*
G75*
G02*
X232376111Y-138126954I-173648J984808D01*
G01*
G37*
%TD.AperFunction*%
%TA.AperFunction,ComponentPad*%
G36*
G01*
X232970866Y-126872698D02*
X232970866Y-126872698D01*
G75*
G02*
X233782026Y-125714242I984808J173648D01*
G01*
X234274430Y-125627418D01*
G75*
G02*
X235432886Y-126438578I173648J-984808D01*
G01*
X235432886Y-126438578D01*
G75*
G02*
X234621726Y-127597034I-984808J-173648D01*
G01*
X234129322Y-127683858D01*
G75*
G02*
X232970866Y-126872698I-173648J984808D01*
G01*
G37*
%TD.AperFunction*%
%TO.P,SW37,1*%
%TO.N,Net-(D37-Pad2)*%
%TA.AperFunction,ComponentPad*%
G36*
G01*
X227158403Y-130476776D02*
X227158403Y-130476776D01*
G75*
G02*
X227969563Y-129318320I984808J173648D01*
G01*
X228461967Y-129231496D01*
G75*
G02*
X229620423Y-130042656I173648J-984808D01*
G01*
X229620423Y-130042656D01*
G75*
G02*
X228809263Y-131201112I-984808J-173648D01*
G01*
X228316859Y-131287936D01*
G75*
G02*
X227158403Y-130476776I-173648J984808D01*
G01*
G37*
%TD.AperFunction*%
D11*
%TO.P,SW37,*%
%TO.N,*%
X237585420Y-131217395D03*
X227579774Y-132981661D03*
%TD*%
%TO.P,SW34,1*%
%TO.N,Net-(D34-Pad2)*%
%TA.AperFunction,ComponentPad*%
G36*
G01*
X128486646Y-134837613D02*
X128486646Y-134837613D01*
G75*
G02*
X129645102Y-134026453I984808J-173648D01*
G01*
X130137506Y-134113277D01*
G75*
G02*
X130948666Y-135271733I-173648J-984808D01*
G01*
X130948666Y-135271733D01*
G75*
G02*
X129790210Y-136082893I-984808J173648D01*
G01*
X129297806Y-135996069D01*
G75*
G02*
X128486646Y-134837613I173648J984808D01*
G01*
G37*
%TD.AperFunction*%
D10*
%TO.P,SW34,*%
%TO.N,*%
X130000960Y-131144463D03*
X140833846Y-133054593D03*
%TO.P,SW34,2*%
%TO.N,C4*%
%TA.AperFunction,ComponentPad*%
G36*
G01*
X133161869Y-137692834D02*
X133161869Y-137692834D01*
G75*
G02*
X134320325Y-136881674I984808J-173648D01*
G01*
X134812729Y-136968498D01*
G75*
G02*
X135623889Y-138126954I-173648J-984808D01*
G01*
X135623889Y-138126954D01*
G75*
G02*
X134465433Y-138938114I-984808J173648D01*
G01*
X133973029Y-138851290D01*
G75*
G02*
X133161869Y-137692834I173648J984808D01*
G01*
G37*
%TD.AperFunction*%
%TA.AperFunction,ComponentPad*%
G36*
G01*
X137569937Y-127320711D02*
X137569937Y-127320711D01*
G75*
G02*
X138728393Y-126509551I984808J-173648D01*
G01*
X139220797Y-126596375D01*
G75*
G02*
X140031957Y-127754831I-173648J-984808D01*
G01*
X140031957Y-127754831D01*
G75*
G02*
X138873501Y-128565991I-984808J173648D01*
G01*
X138381097Y-128479167D01*
G75*
G02*
X137569937Y-127320711I173648J984808D01*
G01*
G37*
%TD.AperFunction*%
%TO.P,SW34,1*%
%TO.N,Net-(D34-Pad2)*%
%TA.AperFunction,ComponentPad*%
G36*
G01*
X130875342Y-128719457D02*
X130875342Y-128719457D01*
G75*
G02*
X132033798Y-127908297I984808J-173648D01*
G01*
X132526202Y-127995121D01*
G75*
G02*
X133337362Y-129153577I-173648J-984808D01*
G01*
X133337362Y-129153577D01*
G75*
G02*
X132178906Y-129964737I-984808J173648D01*
G01*
X131686502Y-129877913D01*
G75*
G02*
X130875342Y-128719457I173648J984808D01*
G01*
G37*
%TD.AperFunction*%
D11*
%TO.P,SW34,*%
%TO.N,*%
X140420226Y-132981661D03*
X130414580Y-131217395D03*
%TD*%
%TO.P,SW33,1*%
%TO.N,Net-(D33-Pad2)*%
%TA.AperFunction,ComponentPad*%
G36*
G01*
X110760107Y-131711946D02*
X110760107Y-131711946D01*
G75*
G02*
X111918563Y-130900786I984808J-173648D01*
G01*
X112410967Y-130987610D01*
G75*
G02*
X113222127Y-132146066I-173648J-984808D01*
G01*
X113222127Y-132146066D01*
G75*
G02*
X112063671Y-132957226I-984808J173648D01*
G01*
X111571267Y-132870402D01*
G75*
G02*
X110760107Y-131711946I173648J984808D01*
G01*
G37*
%TD.AperFunction*%
D10*
%TO.P,SW33,*%
%TO.N,*%
X112274421Y-128018796D03*
X123107307Y-129928926D03*
%TO.P,SW33,2*%
%TO.N,C3*%
%TA.AperFunction,ComponentPad*%
G36*
G01*
X115435330Y-134567167D02*
X115435330Y-134567167D01*
G75*
G02*
X116593786Y-133756007I984808J-173648D01*
G01*
X117086190Y-133842831D01*
G75*
G02*
X117897350Y-135001287I-173648J-984808D01*
G01*
X117897350Y-135001287D01*
G75*
G02*
X116738894Y-135812447I-984808J173648D01*
G01*
X116246490Y-135725623D01*
G75*
G02*
X115435330Y-134567167I173648J984808D01*
G01*
G37*
%TD.AperFunction*%
%TA.AperFunction,ComponentPad*%
G36*
G01*
X119843398Y-124195044D02*
X119843398Y-124195044D01*
G75*
G02*
X121001854Y-123383884I984808J-173648D01*
G01*
X121494258Y-123470708D01*
G75*
G02*
X122305418Y-124629164I-173648J-984808D01*
G01*
X122305418Y-124629164D01*
G75*
G02*
X121146962Y-125440324I-984808J173648D01*
G01*
X120654558Y-125353500D01*
G75*
G02*
X119843398Y-124195044I173648J984808D01*
G01*
G37*
%TD.AperFunction*%
%TO.P,SW33,1*%
%TO.N,Net-(D33-Pad2)*%
%TA.AperFunction,ComponentPad*%
G36*
G01*
X113148803Y-125593790D02*
X113148803Y-125593790D01*
G75*
G02*
X114307259Y-124782630I984808J-173648D01*
G01*
X114799663Y-124869454D01*
G75*
G02*
X115610823Y-126027910I-173648J-984808D01*
G01*
X115610823Y-126027910D01*
G75*
G02*
X114452367Y-126839070I-984808J173648D01*
G01*
X113959963Y-126752246D01*
G75*
G02*
X113148803Y-125593790I173648J984808D01*
G01*
G37*
%TD.AperFunction*%
D11*
%TO.P,SW33,*%
%TO.N,*%
X122693687Y-129855994D03*
X112688041Y-128091728D03*
%TD*%
%TO.P,SW31,1*%
%TO.N,Net-(D31-Pad2)*%
%TA.AperFunction,ComponentPad*%
G36*
G01*
X75307028Y-125460612D02*
X75307028Y-125460612D01*
G75*
G02*
X76465484Y-124649452I984808J-173648D01*
G01*
X76957888Y-124736276D01*
G75*
G02*
X77769048Y-125894732I-173648J-984808D01*
G01*
X77769048Y-125894732D01*
G75*
G02*
X76610592Y-126705892I-984808J173648D01*
G01*
X76118188Y-126619068D01*
G75*
G02*
X75307028Y-125460612I173648J984808D01*
G01*
G37*
%TD.AperFunction*%
D10*
%TO.P,SW31,*%
%TO.N,*%
X76821342Y-121767462D03*
X87654228Y-123677592D03*
%TO.P,SW31,2*%
%TO.N,C1*%
%TA.AperFunction,ComponentPad*%
G36*
G01*
X79982251Y-128315833D02*
X79982251Y-128315833D01*
G75*
G02*
X81140707Y-127504673I984808J-173648D01*
G01*
X81633111Y-127591497D01*
G75*
G02*
X82444271Y-128749953I-173648J-984808D01*
G01*
X82444271Y-128749953D01*
G75*
G02*
X81285815Y-129561113I-984808J173648D01*
G01*
X80793411Y-129474289D01*
G75*
G02*
X79982251Y-128315833I173648J984808D01*
G01*
G37*
%TD.AperFunction*%
%TA.AperFunction,ComponentPad*%
G36*
G01*
X84390319Y-117943710D02*
X84390319Y-117943710D01*
G75*
G02*
X85548775Y-117132550I984808J-173648D01*
G01*
X86041179Y-117219374D01*
G75*
G02*
X86852339Y-118377830I-173648J-984808D01*
G01*
X86852339Y-118377830D01*
G75*
G02*
X85693883Y-119188990I-984808J173648D01*
G01*
X85201479Y-119102166D01*
G75*
G02*
X84390319Y-117943710I173648J984808D01*
G01*
G37*
%TD.AperFunction*%
%TO.P,SW31,1*%
%TO.N,Net-(D31-Pad2)*%
%TA.AperFunction,ComponentPad*%
G36*
G01*
X77695724Y-119342456D02*
X77695724Y-119342456D01*
G75*
G02*
X78854180Y-118531296I984808J-173648D01*
G01*
X79346584Y-118618120D01*
G75*
G02*
X80157744Y-119776576I-173648J-984808D01*
G01*
X80157744Y-119776576D01*
G75*
G02*
X78999288Y-120587736I-984808J173648D01*
G01*
X78506884Y-120500912D01*
G75*
G02*
X77695724Y-119342456I173648J984808D01*
G01*
G37*
%TD.AperFunction*%
D11*
%TO.P,SW31,*%
%TO.N,*%
X87240608Y-123604660D03*
X77234962Y-121840394D03*
%TD*%
%TO.P,SW29,1*%
%TO.N,Net-(D29-Pad2)*%
%TA.AperFunction,ComponentPad*%
G36*
G01*
X259507355Y-114049878D02*
X259507355Y-114049878D01*
G75*
G02*
X260318515Y-112891422I984808J173648D01*
G01*
X260810919Y-112804598D01*
G75*
G02*
X261969375Y-113615758I173648J-984808D01*
G01*
X261969375Y-113615758D01*
G75*
G02*
X261158215Y-114774214I-984808J-173648D01*
G01*
X260665811Y-114861038D01*
G75*
G02*
X259507355Y-114049878I-173648J984808D01*
G01*
G37*
%TD.AperFunction*%
D10*
%TO.P,SW29,*%
%TO.N,*%
X259667214Y-110061527D03*
X270500100Y-108151397D03*
%TO.P,SW29,2*%
%TO.N,C9*%
%TA.AperFunction,ComponentPad*%
G36*
G01*
X264877171Y-115133888D02*
X264877171Y-115133888D01*
G75*
G02*
X265688331Y-113975432I984808J173648D01*
G01*
X266180735Y-113888608D01*
G75*
G02*
X267339191Y-114699768I173648J-984808D01*
G01*
X267339191Y-114699768D01*
G75*
G02*
X266528031Y-115858224I-984808J-173648D01*
G01*
X266035627Y-115945048D01*
G75*
G02*
X264877171Y-115133888I-173648J984808D01*
G01*
G37*
%TD.AperFunction*%
%TA.AperFunction,ComponentPad*%
G36*
G01*
X265471926Y-103879632D02*
X265471926Y-103879632D01*
G75*
G02*
X266283086Y-102721176I984808J173648D01*
G01*
X266775490Y-102634352D01*
G75*
G02*
X267933946Y-103445512I173648J-984808D01*
G01*
X267933946Y-103445512D01*
G75*
G02*
X267122786Y-104603968I-984808J-173648D01*
G01*
X266630382Y-104690792D01*
G75*
G02*
X265471926Y-103879632I-173648J984808D01*
G01*
G37*
%TD.AperFunction*%
%TO.P,SW29,1*%
%TO.N,Net-(D29-Pad2)*%
%TA.AperFunction,ComponentPad*%
G36*
G01*
X259659463Y-107483710D02*
X259659463Y-107483710D01*
G75*
G02*
X260470623Y-106325254I984808J173648D01*
G01*
X260963027Y-106238430D01*
G75*
G02*
X262121483Y-107049590I173648J-984808D01*
G01*
X262121483Y-107049590D01*
G75*
G02*
X261310323Y-108208046I-984808J-173648D01*
G01*
X260817919Y-108294870D01*
G75*
G02*
X259659463Y-107483710I-173648J984808D01*
G01*
G37*
%TD.AperFunction*%
D11*
%TO.P,SW29,*%
%TO.N,*%
X270086480Y-108224329D03*
X260080834Y-109988595D03*
%TD*%
%TO.P,SW28,1*%
%TO.N,Net-(D28-Pad2)*%
%TA.AperFunction,ComponentPad*%
G36*
G01*
X241780815Y-117175545D02*
X241780815Y-117175545D01*
G75*
G02*
X242591975Y-116017089I984808J173648D01*
G01*
X243084379Y-115930265D01*
G75*
G02*
X244242835Y-116741425I173648J-984808D01*
G01*
X244242835Y-116741425D01*
G75*
G02*
X243431675Y-117899881I-984808J-173648D01*
G01*
X242939271Y-117986705D01*
G75*
G02*
X241780815Y-117175545I-173648J984808D01*
G01*
G37*
%TD.AperFunction*%
D10*
%TO.P,SW28,*%
%TO.N,*%
X241940674Y-113187194D03*
X252773560Y-111277064D03*
%TO.P,SW28,2*%
%TO.N,C8*%
%TA.AperFunction,ComponentPad*%
G36*
G01*
X247150631Y-118259555D02*
X247150631Y-118259555D01*
G75*
G02*
X247961791Y-117101099I984808J173648D01*
G01*
X248454195Y-117014275D01*
G75*
G02*
X249612651Y-117825435I173648J-984808D01*
G01*
X249612651Y-117825435D01*
G75*
G02*
X248801491Y-118983891I-984808J-173648D01*
G01*
X248309087Y-119070715D01*
G75*
G02*
X247150631Y-118259555I-173648J984808D01*
G01*
G37*
%TD.AperFunction*%
%TA.AperFunction,ComponentPad*%
G36*
G01*
X247745386Y-107005299D02*
X247745386Y-107005299D01*
G75*
G02*
X248556546Y-105846843I984808J173648D01*
G01*
X249048950Y-105760019D01*
G75*
G02*
X250207406Y-106571179I173648J-984808D01*
G01*
X250207406Y-106571179D01*
G75*
G02*
X249396246Y-107729635I-984808J-173648D01*
G01*
X248903842Y-107816459D01*
G75*
G02*
X247745386Y-107005299I-173648J984808D01*
G01*
G37*
%TD.AperFunction*%
%TO.P,SW28,1*%
%TO.N,Net-(D28-Pad2)*%
%TA.AperFunction,ComponentPad*%
G36*
G01*
X241932923Y-110609377D02*
X241932923Y-110609377D01*
G75*
G02*
X242744083Y-109450921I984808J173648D01*
G01*
X243236487Y-109364097D01*
G75*
G02*
X244394943Y-110175257I173648J-984808D01*
G01*
X244394943Y-110175257D01*
G75*
G02*
X243583783Y-111333713I-984808J-173648D01*
G01*
X243091379Y-111420537D01*
G75*
G02*
X241932923Y-110609377I-173648J984808D01*
G01*
G37*
%TD.AperFunction*%
D11*
%TO.P,SW28,*%
%TO.N,*%
X252359940Y-111349996D03*
X242354294Y-113114262D03*
%TD*%
%TO.P,SW27,1*%
%TO.N,Net-(D27-Pad2)*%
%TA.AperFunction,ComponentPad*%
G36*
G01*
X224054276Y-120301212D02*
X224054276Y-120301212D01*
G75*
G02*
X224865436Y-119142756I984808J173648D01*
G01*
X225357840Y-119055932D01*
G75*
G02*
X226516296Y-119867092I173648J-984808D01*
G01*
X226516296Y-119867092D01*
G75*
G02*
X225705136Y-121025548I-984808J-173648D01*
G01*
X225212732Y-121112372D01*
G75*
G02*
X224054276Y-120301212I-173648J984808D01*
G01*
G37*
%TD.AperFunction*%
D10*
%TO.P,SW27,*%
%TO.N,*%
X224214135Y-116312861D03*
X235047021Y-114402731D03*
%TO.P,SW27,2*%
%TO.N,C7*%
%TA.AperFunction,ComponentPad*%
G36*
G01*
X229424092Y-121385222D02*
X229424092Y-121385222D01*
G75*
G02*
X230235252Y-120226766I984808J173648D01*
G01*
X230727656Y-120139942D01*
G75*
G02*
X231886112Y-120951102I173648J-984808D01*
G01*
X231886112Y-120951102D01*
G75*
G02*
X231074952Y-122109558I-984808J-173648D01*
G01*
X230582548Y-122196382D01*
G75*
G02*
X229424092Y-121385222I-173648J984808D01*
G01*
G37*
%TD.AperFunction*%
%TA.AperFunction,ComponentPad*%
G36*
G01*
X230018847Y-110130966D02*
X230018847Y-110130966D01*
G75*
G02*
X230830007Y-108972510I984808J173648D01*
G01*
X231322411Y-108885686D01*
G75*
G02*
X232480867Y-109696846I173648J-984808D01*
G01*
X232480867Y-109696846D01*
G75*
G02*
X231669707Y-110855302I-984808J-173648D01*
G01*
X231177303Y-110942126D01*
G75*
G02*
X230018847Y-110130966I-173648J984808D01*
G01*
G37*
%TD.AperFunction*%
%TO.P,SW27,1*%
%TO.N,Net-(D27-Pad2)*%
%TA.AperFunction,ComponentPad*%
G36*
G01*
X224206384Y-113735044D02*
X224206384Y-113735044D01*
G75*
G02*
X225017544Y-112576588I984808J173648D01*
G01*
X225509948Y-112489764D01*
G75*
G02*
X226668404Y-113300924I173648J-984808D01*
G01*
X226668404Y-113300924D01*
G75*
G02*
X225857244Y-114459380I-984808J-173648D01*
G01*
X225364840Y-114546204D01*
G75*
G02*
X224206384Y-113735044I-173648J984808D01*
G01*
G37*
%TD.AperFunction*%
D11*
%TO.P,SW27,*%
%TO.N,*%
X234633401Y-114475663D03*
X224627755Y-116239929D03*
%TD*%
%TO.P,SW25,1*%
%TO.N,Net-(D25-Pad2)*%
%TA.AperFunction,ComponentPad*%
G36*
G01*
X149165205Y-121221549D02*
X149165205Y-121221549D01*
G75*
G02*
X150323661Y-120410389I984808J-173648D01*
G01*
X150816065Y-120497213D01*
G75*
G02*
X151627225Y-121655669I-173648J-984808D01*
G01*
X151627225Y-121655669D01*
G75*
G02*
X150468769Y-122466829I-984808J173648D01*
G01*
X149976365Y-122380005D01*
G75*
G02*
X149165205Y-121221549I173648J984808D01*
G01*
G37*
%TD.AperFunction*%
D10*
%TO.P,SW25,*%
%TO.N,*%
X150679519Y-117528399D03*
X161512405Y-119438529D03*
%TO.P,SW25,2*%
%TO.N,C5*%
%TA.AperFunction,ComponentPad*%
G36*
G01*
X153840428Y-124076770D02*
X153840428Y-124076770D01*
G75*
G02*
X154998884Y-123265610I984808J-173648D01*
G01*
X155491288Y-123352434D01*
G75*
G02*
X156302448Y-124510890I-173648J-984808D01*
G01*
X156302448Y-124510890D01*
G75*
G02*
X155143992Y-125322050I-984808J173648D01*
G01*
X154651588Y-125235226D01*
G75*
G02*
X153840428Y-124076770I173648J984808D01*
G01*
G37*
%TD.AperFunction*%
%TA.AperFunction,ComponentPad*%
G36*
G01*
X158248496Y-113704647D02*
X158248496Y-113704647D01*
G75*
G02*
X159406952Y-112893487I984808J-173648D01*
G01*
X159899356Y-112980311D01*
G75*
G02*
X160710516Y-114138767I-173648J-984808D01*
G01*
X160710516Y-114138767D01*
G75*
G02*
X159552060Y-114949927I-984808J173648D01*
G01*
X159059656Y-114863103D01*
G75*
G02*
X158248496Y-113704647I173648J984808D01*
G01*
G37*
%TD.AperFunction*%
%TO.P,SW25,1*%
%TO.N,Net-(D25-Pad2)*%
%TA.AperFunction,ComponentPad*%
G36*
G01*
X151553901Y-115103393D02*
X151553901Y-115103393D01*
G75*
G02*
X152712357Y-114292233I984808J-173648D01*
G01*
X153204761Y-114379057D01*
G75*
G02*
X154015921Y-115537513I-173648J-984808D01*
G01*
X154015921Y-115537513D01*
G75*
G02*
X152857465Y-116348673I-984808J173648D01*
G01*
X152365061Y-116261849D01*
G75*
G02*
X151553901Y-115103393I173648J984808D01*
G01*
G37*
%TD.AperFunction*%
D11*
%TO.P,SW25,*%
%TO.N,*%
X161098785Y-119365597D03*
X151093139Y-117601331D03*
%TD*%
%TO.P,SW24,1*%
%TO.N,Net-(D24-Pad2)*%
%TA.AperFunction,ComponentPad*%
G36*
G01*
X131438665Y-118095881D02*
X131438665Y-118095881D01*
G75*
G02*
X132597121Y-117284721I984808J-173648D01*
G01*
X133089525Y-117371545D01*
G75*
G02*
X133900685Y-118530001I-173648J-984808D01*
G01*
X133900685Y-118530001D01*
G75*
G02*
X132742229Y-119341161I-984808J173648D01*
G01*
X132249825Y-119254337D01*
G75*
G02*
X131438665Y-118095881I173648J984808D01*
G01*
G37*
%TD.AperFunction*%
D10*
%TO.P,SW24,*%
%TO.N,*%
X132952979Y-114402731D03*
X143785865Y-116312861D03*
%TO.P,SW24,2*%
%TO.N,C4*%
%TA.AperFunction,ComponentPad*%
G36*
G01*
X136113888Y-120951102D02*
X136113888Y-120951102D01*
G75*
G02*
X137272344Y-120139942I984808J-173648D01*
G01*
X137764748Y-120226766D01*
G75*
G02*
X138575908Y-121385222I-173648J-984808D01*
G01*
X138575908Y-121385222D01*
G75*
G02*
X137417452Y-122196382I-984808J173648D01*
G01*
X136925048Y-122109558D01*
G75*
G02*
X136113888Y-120951102I173648J984808D01*
G01*
G37*
%TD.AperFunction*%
%TA.AperFunction,ComponentPad*%
G36*
G01*
X140521956Y-110578979D02*
X140521956Y-110578979D01*
G75*
G02*
X141680412Y-109767819I984808J-173648D01*
G01*
X142172816Y-109854643D01*
G75*
G02*
X142983976Y-111013099I-173648J-984808D01*
G01*
X142983976Y-111013099D01*
G75*
G02*
X141825520Y-111824259I-984808J173648D01*
G01*
X141333116Y-111737435D01*
G75*
G02*
X140521956Y-110578979I173648J984808D01*
G01*
G37*
%TD.AperFunction*%
%TO.P,SW24,1*%
%TO.N,Net-(D24-Pad2)*%
%TA.AperFunction,ComponentPad*%
G36*
G01*
X133827361Y-111977725D02*
X133827361Y-111977725D01*
G75*
G02*
X134985817Y-111166565I984808J-173648D01*
G01*
X135478221Y-111253389D01*
G75*
G02*
X136289381Y-112411845I-173648J-984808D01*
G01*
X136289381Y-112411845D01*
G75*
G02*
X135130925Y-113223005I-984808J173648D01*
G01*
X134638521Y-113136181D01*
G75*
G02*
X133827361Y-111977725I173648J984808D01*
G01*
G37*
%TD.AperFunction*%
D11*
%TO.P,SW24,*%
%TO.N,*%
X143372245Y-116239929D03*
X133366599Y-114475663D03*
%TD*%
%TO.P,SW23,1*%
%TO.N,Net-(D23-Pad2)*%
%TA.AperFunction,ComponentPad*%
G36*
G01*
X113712126Y-114970214D02*
X113712126Y-114970214D01*
G75*
G02*
X114870582Y-114159054I984808J-173648D01*
G01*
X115362986Y-114245878D01*
G75*
G02*
X116174146Y-115404334I-173648J-984808D01*
G01*
X116174146Y-115404334D01*
G75*
G02*
X115015690Y-116215494I-984808J173648D01*
G01*
X114523286Y-116128670D01*
G75*
G02*
X113712126Y-114970214I173648J984808D01*
G01*
G37*
%TD.AperFunction*%
D10*
%TO.P,SW23,*%
%TO.N,*%
X115226440Y-111277064D03*
X126059326Y-113187194D03*
%TO.P,SW23,2*%
%TO.N,C3*%
%TA.AperFunction,ComponentPad*%
G36*
G01*
X118387349Y-117825435D02*
X118387349Y-117825435D01*
G75*
G02*
X119545805Y-117014275I984808J-173648D01*
G01*
X120038209Y-117101099D01*
G75*
G02*
X120849369Y-118259555I-173648J-984808D01*
G01*
X120849369Y-118259555D01*
G75*
G02*
X119690913Y-119070715I-984808J173648D01*
G01*
X119198509Y-118983891D01*
G75*
G02*
X118387349Y-117825435I173648J984808D01*
G01*
G37*
%TD.AperFunction*%
%TA.AperFunction,ComponentPad*%
G36*
G01*
X122795417Y-107453312D02*
X122795417Y-107453312D01*
G75*
G02*
X123953873Y-106642152I984808J-173648D01*
G01*
X124446277Y-106728976D01*
G75*
G02*
X125257437Y-107887432I-173648J-984808D01*
G01*
X125257437Y-107887432D01*
G75*
G02*
X124098981Y-108698592I-984808J173648D01*
G01*
X123606577Y-108611768D01*
G75*
G02*
X122795417Y-107453312I173648J984808D01*
G01*
G37*
%TD.AperFunction*%
%TO.P,SW23,1*%
%TO.N,Net-(D23-Pad2)*%
%TA.AperFunction,ComponentPad*%
G36*
G01*
X116100822Y-108852058D02*
X116100822Y-108852058D01*
G75*
G02*
X117259278Y-108040898I984808J-173648D01*
G01*
X117751682Y-108127722D01*
G75*
G02*
X118562842Y-109286178I-173648J-984808D01*
G01*
X118562842Y-109286178D01*
G75*
G02*
X117404386Y-110097338I-984808J173648D01*
G01*
X116911982Y-110010514D01*
G75*
G02*
X116100822Y-108852058I173648J984808D01*
G01*
G37*
%TD.AperFunction*%
D11*
%TO.P,SW23,*%
%TO.N,*%
X125645706Y-113114262D03*
X115640060Y-111349996D03*
%TD*%
%TO.P,SW22,1*%
%TO.N,Net-(D22-Pad2)*%
%TA.AperFunction,ComponentPad*%
G36*
G01*
X95985586Y-111844547D02*
X95985586Y-111844547D01*
G75*
G02*
X97144042Y-111033387I984808J-173648D01*
G01*
X97636446Y-111120211D01*
G75*
G02*
X98447606Y-112278667I-173648J-984808D01*
G01*
X98447606Y-112278667D01*
G75*
G02*
X97289150Y-113089827I-984808J173648D01*
G01*
X96796746Y-113003003D01*
G75*
G02*
X95985586Y-111844547I173648J984808D01*
G01*
G37*
%TD.AperFunction*%
D10*
%TO.P,SW22,*%
%TO.N,*%
X97499900Y-108151397D03*
X108332786Y-110061527D03*
%TO.P,SW22,2*%
%TO.N,C2*%
%TA.AperFunction,ComponentPad*%
G36*
G01*
X100660809Y-114699768D02*
X100660809Y-114699768D01*
G75*
G02*
X101819265Y-113888608I984808J-173648D01*
G01*
X102311669Y-113975432D01*
G75*
G02*
X103122829Y-115133888I-173648J-984808D01*
G01*
X103122829Y-115133888D01*
G75*
G02*
X101964373Y-115945048I-984808J173648D01*
G01*
X101471969Y-115858224D01*
G75*
G02*
X100660809Y-114699768I173648J984808D01*
G01*
G37*
%TD.AperFunction*%
%TA.AperFunction,ComponentPad*%
G36*
G01*
X105068877Y-104327645D02*
X105068877Y-104327645D01*
G75*
G02*
X106227333Y-103516485I984808J-173648D01*
G01*
X106719737Y-103603309D01*
G75*
G02*
X107530897Y-104761765I-173648J-984808D01*
G01*
X107530897Y-104761765D01*
G75*
G02*
X106372441Y-105572925I-984808J173648D01*
G01*
X105880037Y-105486101D01*
G75*
G02*
X105068877Y-104327645I173648J984808D01*
G01*
G37*
%TD.AperFunction*%
%TO.P,SW22,1*%
%TO.N,Net-(D22-Pad2)*%
%TA.AperFunction,ComponentPad*%
G36*
G01*
X98374282Y-105726391D02*
X98374282Y-105726391D01*
G75*
G02*
X99532738Y-104915231I984808J-173648D01*
G01*
X100025142Y-105002055D01*
G75*
G02*
X100836302Y-106160511I-173648J-984808D01*
G01*
X100836302Y-106160511D01*
G75*
G02*
X99677846Y-106971671I-984808J173648D01*
G01*
X99185442Y-106884847D01*
G75*
G02*
X98374282Y-105726391I173648J984808D01*
G01*
G37*
%TD.AperFunction*%
D11*
%TO.P,SW22,*%
%TO.N,*%
X107919166Y-109988595D03*
X97913520Y-108224329D03*
%TD*%
%TO.P,SW21,1*%
%TO.N,Net-(D21-Pad2)*%
%TA.AperFunction,ComponentPad*%
G36*
G01*
X78259047Y-108718880D02*
X78259047Y-108718880D01*
G75*
G02*
X79417503Y-107907720I984808J-173648D01*
G01*
X79909907Y-107994544D01*
G75*
G02*
X80721067Y-109153000I-173648J-984808D01*
G01*
X80721067Y-109153000D01*
G75*
G02*
X79562611Y-109964160I-984808J173648D01*
G01*
X79070207Y-109877336D01*
G75*
G02*
X78259047Y-108718880I173648J984808D01*
G01*
G37*
%TD.AperFunction*%
D10*
%TO.P,SW21,*%
%TO.N,*%
X79773361Y-105025730D03*
X90606247Y-106935860D03*
%TO.P,SW21,2*%
%TO.N,C1*%
%TA.AperFunction,ComponentPad*%
G36*
G01*
X82934270Y-111574101D02*
X82934270Y-111574101D01*
G75*
G02*
X84092726Y-110762941I984808J-173648D01*
G01*
X84585130Y-110849765D01*
G75*
G02*
X85396290Y-112008221I-173648J-984808D01*
G01*
X85396290Y-112008221D01*
G75*
G02*
X84237834Y-112819381I-984808J173648D01*
G01*
X83745430Y-112732557D01*
G75*
G02*
X82934270Y-111574101I173648J984808D01*
G01*
G37*
%TD.AperFunction*%
%TA.AperFunction,ComponentPad*%
G36*
G01*
X87342338Y-101201978D02*
X87342338Y-101201978D01*
G75*
G02*
X88500794Y-100390818I984808J-173648D01*
G01*
X88993198Y-100477642D01*
G75*
G02*
X89804358Y-101636098I-173648J-984808D01*
G01*
X89804358Y-101636098D01*
G75*
G02*
X88645902Y-102447258I-984808J173648D01*
G01*
X88153498Y-102360434D01*
G75*
G02*
X87342338Y-101201978I173648J984808D01*
G01*
G37*
%TD.AperFunction*%
%TO.P,SW21,1*%
%TO.N,Net-(D21-Pad2)*%
%TA.AperFunction,ComponentPad*%
G36*
G01*
X80647743Y-102600724D02*
X80647743Y-102600724D01*
G75*
G02*
X81806199Y-101789564I984808J-173648D01*
G01*
X82298603Y-101876388D01*
G75*
G02*
X83109763Y-103034844I-173648J-984808D01*
G01*
X83109763Y-103034844D01*
G75*
G02*
X81951307Y-103846004I-984808J173648D01*
G01*
X81458903Y-103759180D01*
G75*
G02*
X80647743Y-102600724I173648J984808D01*
G01*
G37*
%TD.AperFunction*%
D11*
%TO.P,SW21,*%
%TO.N,*%
X90192627Y-106862928D03*
X80186981Y-105098662D03*
%TD*%
%TO.P,SW20,1*%
%TO.N,Net-(D20-Pad2)*%
%TA.AperFunction,ComponentPad*%
G36*
G01*
X274281875Y-94182479D02*
X274281875Y-94182479D01*
G75*
G02*
X275093035Y-93024023I984808J173648D01*
G01*
X275585439Y-92937199D01*
G75*
G02*
X276743895Y-93748359I173648J-984808D01*
G01*
X276743895Y-93748359D01*
G75*
G02*
X275932735Y-94906815I-984808J-173648D01*
G01*
X275440331Y-94993639D01*
G75*
G02*
X274281875Y-94182479I-173648J984808D01*
G01*
G37*
%TD.AperFunction*%
D10*
%TO.P,SW20,*%
%TO.N,*%
X274441734Y-90194128D03*
X285274620Y-88283998D03*
%TO.P,SW20,2*%
%TO.N,C10*%
%TA.AperFunction,ComponentPad*%
G36*
G01*
X279651691Y-95266489D02*
X279651691Y-95266489D01*
G75*
G02*
X280462851Y-94108033I984808J173648D01*
G01*
X280955255Y-94021209D01*
G75*
G02*
X282113711Y-94832369I173648J-984808D01*
G01*
X282113711Y-94832369D01*
G75*
G02*
X281302551Y-95990825I-984808J-173648D01*
G01*
X280810147Y-96077649D01*
G75*
G02*
X279651691Y-95266489I-173648J984808D01*
G01*
G37*
%TD.AperFunction*%
%TA.AperFunction,ComponentPad*%
G36*
G01*
X280246446Y-84012233D02*
X280246446Y-84012233D01*
G75*
G02*
X281057606Y-82853777I984808J173648D01*
G01*
X281550010Y-82766953D01*
G75*
G02*
X282708466Y-83578113I173648J-984808D01*
G01*
X282708466Y-83578113D01*
G75*
G02*
X281897306Y-84736569I-984808J-173648D01*
G01*
X281404902Y-84823393D01*
G75*
G02*
X280246446Y-84012233I-173648J984808D01*
G01*
G37*
%TD.AperFunction*%
%TO.P,SW20,1*%
%TO.N,Net-(D20-Pad2)*%
%TA.AperFunction,ComponentPad*%
G36*
G01*
X274433983Y-87616311D02*
X274433983Y-87616311D01*
G75*
G02*
X275245143Y-86457855I984808J173648D01*
G01*
X275737547Y-86371031D01*
G75*
G02*
X276896003Y-87182191I173648J-984808D01*
G01*
X276896003Y-87182191D01*
G75*
G02*
X276084843Y-88340647I-984808J-173648D01*
G01*
X275592439Y-88427471D01*
G75*
G02*
X274433983Y-87616311I-173648J984808D01*
G01*
G37*
%TD.AperFunction*%
D11*
%TO.P,SW20,*%
%TO.N,*%
X284861000Y-88356930D03*
X274855354Y-90121196D03*
%TD*%
%TO.P,SW19,1*%
%TO.N,Net-(D19-Pad2)*%
%TA.AperFunction,ComponentPad*%
G36*
G01*
X256555336Y-97308146D02*
X256555336Y-97308146D01*
G75*
G02*
X257366496Y-96149690I984808J173648D01*
G01*
X257858900Y-96062866D01*
G75*
G02*
X259017356Y-96874026I173648J-984808D01*
G01*
X259017356Y-96874026D01*
G75*
G02*
X258206196Y-98032482I-984808J-173648D01*
G01*
X257713792Y-98119306D01*
G75*
G02*
X256555336Y-97308146I-173648J984808D01*
G01*
G37*
%TD.AperFunction*%
D10*
%TO.P,SW19,*%
%TO.N,*%
X256715195Y-93319795D03*
X267548081Y-91409665D03*
%TO.P,SW19,2*%
%TO.N,C9*%
%TA.AperFunction,ComponentPad*%
G36*
G01*
X261925152Y-98392156D02*
X261925152Y-98392156D01*
G75*
G02*
X262736312Y-97233700I984808J173648D01*
G01*
X263228716Y-97146876D01*
G75*
G02*
X264387172Y-97958036I173648J-984808D01*
G01*
X264387172Y-97958036D01*
G75*
G02*
X263576012Y-99116492I-984808J-173648D01*
G01*
X263083608Y-99203316D01*
G75*
G02*
X261925152Y-98392156I-173648J984808D01*
G01*
G37*
%TD.AperFunction*%
%TA.AperFunction,ComponentPad*%
G36*
G01*
X262519907Y-87137900D02*
X262519907Y-87137900D01*
G75*
G02*
X263331067Y-85979444I984808J173648D01*
G01*
X263823471Y-85892620D01*
G75*
G02*
X264981927Y-86703780I173648J-984808D01*
G01*
X264981927Y-86703780D01*
G75*
G02*
X264170767Y-87862236I-984808J-173648D01*
G01*
X263678363Y-87949060D01*
G75*
G02*
X262519907Y-87137900I-173648J984808D01*
G01*
G37*
%TD.AperFunction*%
%TO.P,SW19,1*%
%TO.N,Net-(D19-Pad2)*%
%TA.AperFunction,ComponentPad*%
G36*
G01*
X256707444Y-90741978D02*
X256707444Y-90741978D01*
G75*
G02*
X257518604Y-89583522I984808J173648D01*
G01*
X258011008Y-89496698D01*
G75*
G02*
X259169464Y-90307858I173648J-984808D01*
G01*
X259169464Y-90307858D01*
G75*
G02*
X258358304Y-91466314I-984808J-173648D01*
G01*
X257865900Y-91553138D01*
G75*
G02*
X256707444Y-90741978I-173648J984808D01*
G01*
G37*
%TD.AperFunction*%
D11*
%TO.P,SW19,*%
%TO.N,*%
X267134461Y-91482597D03*
X257128815Y-93246863D03*
%TD*%
%TO.P,SW18,1*%
%TO.N,Net-(D18-Pad2)*%
%TA.AperFunction,ComponentPad*%
G36*
G01*
X238828796Y-100433813D02*
X238828796Y-100433813D01*
G75*
G02*
X239639956Y-99275357I984808J173648D01*
G01*
X240132360Y-99188533D01*
G75*
G02*
X241290816Y-99999693I173648J-984808D01*
G01*
X241290816Y-99999693D01*
G75*
G02*
X240479656Y-101158149I-984808J-173648D01*
G01*
X239987252Y-101244973D01*
G75*
G02*
X238828796Y-100433813I-173648J984808D01*
G01*
G37*
%TD.AperFunction*%
D10*
%TO.P,SW18,*%
%TO.N,*%
X238988655Y-96445462D03*
X249821541Y-94535332D03*
%TO.P,SW18,2*%
%TO.N,C8*%
%TA.AperFunction,ComponentPad*%
G36*
G01*
X244198612Y-101517823D02*
X244198612Y-101517823D01*
G75*
G02*
X245009772Y-100359367I984808J173648D01*
G01*
X245502176Y-100272543D01*
G75*
G02*
X246660632Y-101083703I173648J-984808D01*
G01*
X246660632Y-101083703D01*
G75*
G02*
X245849472Y-102242159I-984808J-173648D01*
G01*
X245357068Y-102328983D01*
G75*
G02*
X244198612Y-101517823I-173648J984808D01*
G01*
G37*
%TD.AperFunction*%
%TA.AperFunction,ComponentPad*%
G36*
G01*
X244793367Y-90263567D02*
X244793367Y-90263567D01*
G75*
G02*
X245604527Y-89105111I984808J173648D01*
G01*
X246096931Y-89018287D01*
G75*
G02*
X247255387Y-89829447I173648J-984808D01*
G01*
X247255387Y-89829447D01*
G75*
G02*
X246444227Y-90987903I-984808J-173648D01*
G01*
X245951823Y-91074727D01*
G75*
G02*
X244793367Y-90263567I-173648J984808D01*
G01*
G37*
%TD.AperFunction*%
%TO.P,SW18,1*%
%TO.N,Net-(D18-Pad2)*%
%TA.AperFunction,ComponentPad*%
G36*
G01*
X238980904Y-93867645D02*
X238980904Y-93867645D01*
G75*
G02*
X239792064Y-92709189I984808J173648D01*
G01*
X240284468Y-92622365D01*
G75*
G02*
X241442924Y-93433525I173648J-984808D01*
G01*
X241442924Y-93433525D01*
G75*
G02*
X240631764Y-94591981I-984808J-173648D01*
G01*
X240139360Y-94678805D01*
G75*
G02*
X238980904Y-93867645I-173648J984808D01*
G01*
G37*
%TD.AperFunction*%
D11*
%TO.P,SW18,*%
%TO.N,*%
X249407921Y-94608264D03*
X239402275Y-96372530D03*
%TD*%
%TO.P,SW17,1*%
%TO.N,Net-(D17-Pad2)*%
%TA.AperFunction,ComponentPad*%
G36*
G01*
X221102257Y-103559481D02*
X221102257Y-103559481D01*
G75*
G02*
X221913417Y-102401025I984808J173648D01*
G01*
X222405821Y-102314201D01*
G75*
G02*
X223564277Y-103125361I173648J-984808D01*
G01*
X223564277Y-103125361D01*
G75*
G02*
X222753117Y-104283817I-984808J-173648D01*
G01*
X222260713Y-104370641D01*
G75*
G02*
X221102257Y-103559481I-173648J984808D01*
G01*
G37*
%TD.AperFunction*%
D10*
%TO.P,SW17,*%
%TO.N,*%
X221262116Y-99571130D03*
X232095002Y-97661000D03*
%TO.P,SW17,2*%
%TO.N,C7*%
%TA.AperFunction,ComponentPad*%
G36*
G01*
X226472073Y-104643491D02*
X226472073Y-104643491D01*
G75*
G02*
X227283233Y-103485035I984808J173648D01*
G01*
X227775637Y-103398211D01*
G75*
G02*
X228934093Y-104209371I173648J-984808D01*
G01*
X228934093Y-104209371D01*
G75*
G02*
X228122933Y-105367827I-984808J-173648D01*
G01*
X227630529Y-105454651D01*
G75*
G02*
X226472073Y-104643491I-173648J984808D01*
G01*
G37*
%TD.AperFunction*%
%TA.AperFunction,ComponentPad*%
G36*
G01*
X227066828Y-93389235D02*
X227066828Y-93389235D01*
G75*
G02*
X227877988Y-92230779I984808J173648D01*
G01*
X228370392Y-92143955D01*
G75*
G02*
X229528848Y-92955115I173648J-984808D01*
G01*
X229528848Y-92955115D01*
G75*
G02*
X228717688Y-94113571I-984808J-173648D01*
G01*
X228225284Y-94200395D01*
G75*
G02*
X227066828Y-93389235I-173648J984808D01*
G01*
G37*
%TD.AperFunction*%
%TO.P,SW17,1*%
%TO.N,Net-(D17-Pad2)*%
%TA.AperFunction,ComponentPad*%
G36*
G01*
X221254365Y-96993313D02*
X221254365Y-96993313D01*
G75*
G02*
X222065525Y-95834857I984808J173648D01*
G01*
X222557929Y-95748033D01*
G75*
G02*
X223716385Y-96559193I173648J-984808D01*
G01*
X223716385Y-96559193D01*
G75*
G02*
X222905225Y-97717649I-984808J-173648D01*
G01*
X222412821Y-97804473D01*
G75*
G02*
X221254365Y-96993313I-173648J984808D01*
G01*
G37*
%TD.AperFunction*%
D11*
%TO.P,SW17,*%
%TO.N,*%
X231681382Y-97733932D03*
X221675736Y-99498198D03*
%TD*%
%TO.P,SW16,1*%
%TO.N,Net-(D16-Pad2)*%
%TA.AperFunction,ComponentPad*%
G36*
G01*
X203375717Y-106685148D02*
X203375717Y-106685148D01*
G75*
G02*
X204186877Y-105526692I984808J173648D01*
G01*
X204679281Y-105439868D01*
G75*
G02*
X205837737Y-106251028I173648J-984808D01*
G01*
X205837737Y-106251028D01*
G75*
G02*
X205026577Y-107409484I-984808J-173648D01*
G01*
X204534173Y-107496308D01*
G75*
G02*
X203375717Y-106685148I-173648J984808D01*
G01*
G37*
%TD.AperFunction*%
D10*
%TO.P,SW16,*%
%TO.N,*%
X203535576Y-102696797D03*
X214368462Y-100786667D03*
%TO.P,SW16,2*%
%TO.N,C6*%
%TA.AperFunction,ComponentPad*%
G36*
G01*
X208745533Y-107769158D02*
X208745533Y-107769158D01*
G75*
G02*
X209556693Y-106610702I984808J173648D01*
G01*
X210049097Y-106523878D01*
G75*
G02*
X211207553Y-107335038I173648J-984808D01*
G01*
X211207553Y-107335038D01*
G75*
G02*
X210396393Y-108493494I-984808J-173648D01*
G01*
X209903989Y-108580318D01*
G75*
G02*
X208745533Y-107769158I-173648J984808D01*
G01*
G37*
%TD.AperFunction*%
%TA.AperFunction,ComponentPad*%
G36*
G01*
X209340288Y-96514902D02*
X209340288Y-96514902D01*
G75*
G02*
X210151448Y-95356446I984808J173648D01*
G01*
X210643852Y-95269622D01*
G75*
G02*
X211802308Y-96080782I173648J-984808D01*
G01*
X211802308Y-96080782D01*
G75*
G02*
X210991148Y-97239238I-984808J-173648D01*
G01*
X210498744Y-97326062D01*
G75*
G02*
X209340288Y-96514902I-173648J984808D01*
G01*
G37*
%TD.AperFunction*%
%TO.P,SW16,1*%
%TO.N,Net-(D16-Pad2)*%
%TA.AperFunction,ComponentPad*%
G36*
G01*
X203527825Y-100118980D02*
X203527825Y-100118980D01*
G75*
G02*
X204338985Y-98960524I984808J173648D01*
G01*
X204831389Y-98873700D01*
G75*
G02*
X205989845Y-99684860I173648J-984808D01*
G01*
X205989845Y-99684860D01*
G75*
G02*
X205178685Y-100843316I-984808J-173648D01*
G01*
X204686281Y-100930140D01*
G75*
G02*
X203527825Y-100118980I-173648J984808D01*
G01*
G37*
%TD.AperFunction*%
D11*
%TO.P,SW16,*%
%TO.N,*%
X213954842Y-100859599D03*
X203949196Y-102623865D03*
%TD*%
%TO.P,SW15,1*%
%TO.N,Net-(D15-Pad2)*%
%TA.AperFunction,ComponentPad*%
G36*
G01*
X152117224Y-104479817D02*
X152117224Y-104479817D01*
G75*
G02*
X153275680Y-103668657I984808J-173648D01*
G01*
X153768084Y-103755481D01*
G75*
G02*
X154579244Y-104913937I-173648J-984808D01*
G01*
X154579244Y-104913937D01*
G75*
G02*
X153420788Y-105725097I-984808J173648D01*
G01*
X152928384Y-105638273D01*
G75*
G02*
X152117224Y-104479817I173648J984808D01*
G01*
G37*
%TD.AperFunction*%
D10*
%TO.P,SW15,*%
%TO.N,*%
X153631538Y-100786667D03*
X164464424Y-102696797D03*
%TO.P,SW15,2*%
%TO.N,C5*%
%TA.AperFunction,ComponentPad*%
G36*
G01*
X156792447Y-107335038D02*
X156792447Y-107335038D01*
G75*
G02*
X157950903Y-106523878I984808J-173648D01*
G01*
X158443307Y-106610702D01*
G75*
G02*
X159254467Y-107769158I-173648J-984808D01*
G01*
X159254467Y-107769158D01*
G75*
G02*
X158096011Y-108580318I-984808J173648D01*
G01*
X157603607Y-108493494D01*
G75*
G02*
X156792447Y-107335038I173648J984808D01*
G01*
G37*
%TD.AperFunction*%
%TA.AperFunction,ComponentPad*%
G36*
G01*
X161200515Y-96962915D02*
X161200515Y-96962915D01*
G75*
G02*
X162358971Y-96151755I984808J-173648D01*
G01*
X162851375Y-96238579D01*
G75*
G02*
X163662535Y-97397035I-173648J-984808D01*
G01*
X163662535Y-97397035D01*
G75*
G02*
X162504079Y-98208195I-984808J173648D01*
G01*
X162011675Y-98121371D01*
G75*
G02*
X161200515Y-96962915I173648J984808D01*
G01*
G37*
%TD.AperFunction*%
%TO.P,SW15,1*%
%TO.N,Net-(D15-Pad2)*%
%TA.AperFunction,ComponentPad*%
G36*
G01*
X154505920Y-98361661D02*
X154505920Y-98361661D01*
G75*
G02*
X155664376Y-97550501I984808J-173648D01*
G01*
X156156780Y-97637325D01*
G75*
G02*
X156967940Y-98795781I-173648J-984808D01*
G01*
X156967940Y-98795781D01*
G75*
G02*
X155809484Y-99606941I-984808J173648D01*
G01*
X155317080Y-99520117D01*
G75*
G02*
X154505920Y-98361661I173648J984808D01*
G01*
G37*
%TD.AperFunction*%
D11*
%TO.P,SW15,*%
%TO.N,*%
X164050804Y-102623865D03*
X154045158Y-100859599D03*
%TD*%
%TO.P,SW14,1*%
%TO.N,Net-(D14-Pad2)*%
%TA.AperFunction,ComponentPad*%
G36*
G01*
X134390684Y-101354150D02*
X134390684Y-101354150D01*
G75*
G02*
X135549140Y-100542990I984808J-173648D01*
G01*
X136041544Y-100629814D01*
G75*
G02*
X136852704Y-101788270I-173648J-984808D01*
G01*
X136852704Y-101788270D01*
G75*
G02*
X135694248Y-102599430I-984808J173648D01*
G01*
X135201844Y-102512606D01*
G75*
G02*
X134390684Y-101354150I173648J984808D01*
G01*
G37*
%TD.AperFunction*%
D10*
%TO.P,SW14,*%
%TO.N,*%
X135904998Y-97661000D03*
X146737884Y-99571130D03*
%TO.P,SW14,2*%
%TO.N,C4*%
%TA.AperFunction,ComponentPad*%
G36*
G01*
X139065907Y-104209371D02*
X139065907Y-104209371D01*
G75*
G02*
X140224363Y-103398211I984808J-173648D01*
G01*
X140716767Y-103485035D01*
G75*
G02*
X141527927Y-104643491I-173648J-984808D01*
G01*
X141527927Y-104643491D01*
G75*
G02*
X140369471Y-105454651I-984808J173648D01*
G01*
X139877067Y-105367827D01*
G75*
G02*
X139065907Y-104209371I173648J984808D01*
G01*
G37*
%TD.AperFunction*%
%TA.AperFunction,ComponentPad*%
G36*
G01*
X143473975Y-93837248D02*
X143473975Y-93837248D01*
G75*
G02*
X144632431Y-93026088I984808J-173648D01*
G01*
X145124835Y-93112912D01*
G75*
G02*
X145935995Y-94271368I-173648J-984808D01*
G01*
X145935995Y-94271368D01*
G75*
G02*
X144777539Y-95082528I-984808J173648D01*
G01*
X144285135Y-94995704D01*
G75*
G02*
X143473975Y-93837248I173648J984808D01*
G01*
G37*
%TD.AperFunction*%
%TO.P,SW14,1*%
%TO.N,Net-(D14-Pad2)*%
%TA.AperFunction,ComponentPad*%
G36*
G01*
X136779380Y-95235994D02*
X136779380Y-95235994D01*
G75*
G02*
X137937836Y-94424834I984808J-173648D01*
G01*
X138430240Y-94511658D01*
G75*
G02*
X139241400Y-95670114I-173648J-984808D01*
G01*
X139241400Y-95670114D01*
G75*
G02*
X138082944Y-96481274I-984808J173648D01*
G01*
X137590540Y-96394450D01*
G75*
G02*
X136779380Y-95235994I173648J984808D01*
G01*
G37*
%TD.AperFunction*%
D11*
%TO.P,SW14,*%
%TO.N,*%
X146324264Y-99498198D03*
X136318618Y-97733932D03*
%TD*%
%TO.P,SW13,1*%
%TO.N,Net-(D13-Pad2)*%
%TA.AperFunction,ComponentPad*%
G36*
G01*
X116664145Y-98228482D02*
X116664145Y-98228482D01*
G75*
G02*
X117822601Y-97417322I984808J-173648D01*
G01*
X118315005Y-97504146D01*
G75*
G02*
X119126165Y-98662602I-173648J-984808D01*
G01*
X119126165Y-98662602D01*
G75*
G02*
X117967709Y-99473762I-984808J173648D01*
G01*
X117475305Y-99386938D01*
G75*
G02*
X116664145Y-98228482I173648J984808D01*
G01*
G37*
%TD.AperFunction*%
D10*
%TO.P,SW13,*%
%TO.N,*%
X118178459Y-94535332D03*
X129011345Y-96445462D03*
%TO.P,SW13,2*%
%TO.N,C3*%
%TA.AperFunction,ComponentPad*%
G36*
G01*
X121339368Y-101083703D02*
X121339368Y-101083703D01*
G75*
G02*
X122497824Y-100272543I984808J-173648D01*
G01*
X122990228Y-100359367D01*
G75*
G02*
X123801388Y-101517823I-173648J-984808D01*
G01*
X123801388Y-101517823D01*
G75*
G02*
X122642932Y-102328983I-984808J173648D01*
G01*
X122150528Y-102242159D01*
G75*
G02*
X121339368Y-101083703I173648J984808D01*
G01*
G37*
%TD.AperFunction*%
%TA.AperFunction,ComponentPad*%
G36*
G01*
X125747436Y-90711580D02*
X125747436Y-90711580D01*
G75*
G02*
X126905892Y-89900420I984808J-173648D01*
G01*
X127398296Y-89987244D01*
G75*
G02*
X128209456Y-91145700I-173648J-984808D01*
G01*
X128209456Y-91145700D01*
G75*
G02*
X127051000Y-91956860I-984808J173648D01*
G01*
X126558596Y-91870036D01*
G75*
G02*
X125747436Y-90711580I173648J984808D01*
G01*
G37*
%TD.AperFunction*%
%TO.P,SW13,1*%
%TO.N,Net-(D13-Pad2)*%
%TA.AperFunction,ComponentPad*%
G36*
G01*
X119052841Y-92110326D02*
X119052841Y-92110326D01*
G75*
G02*
X120211297Y-91299166I984808J-173648D01*
G01*
X120703701Y-91385990D01*
G75*
G02*
X121514861Y-92544446I-173648J-984808D01*
G01*
X121514861Y-92544446D01*
G75*
G02*
X120356405Y-93355606I-984808J173648D01*
G01*
X119864001Y-93268782D01*
G75*
G02*
X119052841Y-92110326I173648J984808D01*
G01*
G37*
%TD.AperFunction*%
D11*
%TO.P,SW13,*%
%TO.N,*%
X128597725Y-96372530D03*
X118592079Y-94608264D03*
%TD*%
%TO.P,SW12,1*%
%TO.N,Net-(D12-Pad2)*%
%TA.AperFunction,ComponentPad*%
G36*
G01*
X98937605Y-95102815D02*
X98937605Y-95102815D01*
G75*
G02*
X100096061Y-94291655I984808J-173648D01*
G01*
X100588465Y-94378479D01*
G75*
G02*
X101399625Y-95536935I-173648J-984808D01*
G01*
X101399625Y-95536935D01*
G75*
G02*
X100241169Y-96348095I-984808J173648D01*
G01*
X99748765Y-96261271D01*
G75*
G02*
X98937605Y-95102815I173648J984808D01*
G01*
G37*
%TD.AperFunction*%
D10*
%TO.P,SW12,*%
%TO.N,*%
X100451919Y-91409665D03*
X111284805Y-93319795D03*
%TO.P,SW12,2*%
%TO.N,C2*%
%TA.AperFunction,ComponentPad*%
G36*
G01*
X103612828Y-97958036D02*
X103612828Y-97958036D01*
G75*
G02*
X104771284Y-97146876I984808J-173648D01*
G01*
X105263688Y-97233700D01*
G75*
G02*
X106074848Y-98392156I-173648J-984808D01*
G01*
X106074848Y-98392156D01*
G75*
G02*
X104916392Y-99203316I-984808J173648D01*
G01*
X104423988Y-99116492D01*
G75*
G02*
X103612828Y-97958036I173648J984808D01*
G01*
G37*
%TD.AperFunction*%
%TA.AperFunction,ComponentPad*%
G36*
G01*
X108020896Y-87585913D02*
X108020896Y-87585913D01*
G75*
G02*
X109179352Y-86774753I984808J-173648D01*
G01*
X109671756Y-86861577D01*
G75*
G02*
X110482916Y-88020033I-173648J-984808D01*
G01*
X110482916Y-88020033D01*
G75*
G02*
X109324460Y-88831193I-984808J173648D01*
G01*
X108832056Y-88744369D01*
G75*
G02*
X108020896Y-87585913I173648J984808D01*
G01*
G37*
%TD.AperFunction*%
%TO.P,SW12,1*%
%TO.N,Net-(D12-Pad2)*%
%TA.AperFunction,ComponentPad*%
G36*
G01*
X101326301Y-88984659D02*
X101326301Y-88984659D01*
G75*
G02*
X102484757Y-88173499I984808J-173648D01*
G01*
X102977161Y-88260323D01*
G75*
G02*
X103788321Y-89418779I-173648J-984808D01*
G01*
X103788321Y-89418779D01*
G75*
G02*
X102629865Y-90229939I-984808J173648D01*
G01*
X102137461Y-90143115D01*
G75*
G02*
X101326301Y-88984659I173648J984808D01*
G01*
G37*
%TD.AperFunction*%
D11*
%TO.P,SW12,*%
%TO.N,*%
X110871185Y-93246863D03*
X100865539Y-91482597D03*
%TD*%
%TO.P,SW11,1*%
%TO.N,Net-(D11-Pad2)*%
%TA.AperFunction,ComponentPad*%
G36*
G01*
X81211066Y-91977148D02*
X81211066Y-91977148D01*
G75*
G02*
X82369522Y-91165988I984808J-173648D01*
G01*
X82861926Y-91252812D01*
G75*
G02*
X83673086Y-92411268I-173648J-984808D01*
G01*
X83673086Y-92411268D01*
G75*
G02*
X82514630Y-93222428I-984808J173648D01*
G01*
X82022226Y-93135604D01*
G75*
G02*
X81211066Y-91977148I173648J984808D01*
G01*
G37*
%TD.AperFunction*%
D10*
%TO.P,SW11,*%
%TO.N,*%
X82725380Y-88283998D03*
X93558266Y-90194128D03*
%TO.P,SW11,2*%
%TO.N,C1*%
%TA.AperFunction,ComponentPad*%
G36*
G01*
X85886289Y-94832369D02*
X85886289Y-94832369D01*
G75*
G02*
X87044745Y-94021209I984808J-173648D01*
G01*
X87537149Y-94108033D01*
G75*
G02*
X88348309Y-95266489I-173648J-984808D01*
G01*
X88348309Y-95266489D01*
G75*
G02*
X87189853Y-96077649I-984808J173648D01*
G01*
X86697449Y-95990825D01*
G75*
G02*
X85886289Y-94832369I173648J984808D01*
G01*
G37*
%TD.AperFunction*%
%TA.AperFunction,ComponentPad*%
G36*
G01*
X90294357Y-84460246D02*
X90294357Y-84460246D01*
G75*
G02*
X91452813Y-83649086I984808J-173648D01*
G01*
X91945217Y-83735910D01*
G75*
G02*
X92756377Y-84894366I-173648J-984808D01*
G01*
X92756377Y-84894366D01*
G75*
G02*
X91597921Y-85705526I-984808J173648D01*
G01*
X91105517Y-85618702D01*
G75*
G02*
X90294357Y-84460246I173648J984808D01*
G01*
G37*
%TD.AperFunction*%
%TO.P,SW11,1*%
%TO.N,Net-(D11-Pad2)*%
%TA.AperFunction,ComponentPad*%
G36*
G01*
X83599762Y-85858992D02*
X83599762Y-85858992D01*
G75*
G02*
X84758218Y-85047832I984808J-173648D01*
G01*
X85250622Y-85134656D01*
G75*
G02*
X86061782Y-86293112I-173648J-984808D01*
G01*
X86061782Y-86293112D01*
G75*
G02*
X84903326Y-87104272I-984808J173648D01*
G01*
X84410922Y-87017448D01*
G75*
G02*
X83599762Y-85858992I173648J984808D01*
G01*
G37*
%TD.AperFunction*%
D11*
%TO.P,SW11,*%
%TO.N,*%
X93144646Y-90121196D03*
X83139000Y-88356930D03*
%TD*%
%TO.P,SW10,1*%
%TO.N,Net-(D10-Pad2)*%
%TA.AperFunction,ComponentPad*%
G36*
G01*
X271329856Y-77440747D02*
X271329856Y-77440747D01*
G75*
G02*
X272141016Y-76282291I984808J173648D01*
G01*
X272633420Y-76195467D01*
G75*
G02*
X273791876Y-77006627I173648J-984808D01*
G01*
X273791876Y-77006627D01*
G75*
G02*
X272980716Y-78165083I-984808J-173648D01*
G01*
X272488312Y-78251907D01*
G75*
G02*
X271329856Y-77440747I-173648J984808D01*
G01*
G37*
%TD.AperFunction*%
D10*
%TO.P,SW10,*%
%TO.N,*%
X271489715Y-73452396D03*
X282322601Y-71542266D03*
%TO.P,SW10,2*%
%TO.N,C10*%
%TA.AperFunction,ComponentPad*%
G36*
G01*
X276699672Y-78524757D02*
X276699672Y-78524757D01*
G75*
G02*
X277510832Y-77366301I984808J173648D01*
G01*
X278003236Y-77279477D01*
G75*
G02*
X279161692Y-78090637I173648J-984808D01*
G01*
X279161692Y-78090637D01*
G75*
G02*
X278350532Y-79249093I-984808J-173648D01*
G01*
X277858128Y-79335917D01*
G75*
G02*
X276699672Y-78524757I-173648J984808D01*
G01*
G37*
%TD.AperFunction*%
%TA.AperFunction,ComponentPad*%
G36*
G01*
X277294427Y-67270501D02*
X277294427Y-67270501D01*
G75*
G02*
X278105587Y-66112045I984808J173648D01*
G01*
X278597991Y-66025221D01*
G75*
G02*
X279756447Y-66836381I173648J-984808D01*
G01*
X279756447Y-66836381D01*
G75*
G02*
X278945287Y-67994837I-984808J-173648D01*
G01*
X278452883Y-68081661D01*
G75*
G02*
X277294427Y-67270501I-173648J984808D01*
G01*
G37*
%TD.AperFunction*%
%TO.P,SW10,1*%
%TO.N,Net-(D10-Pad2)*%
%TA.AperFunction,ComponentPad*%
G36*
G01*
X271481964Y-70874579D02*
X271481964Y-70874579D01*
G75*
G02*
X272293124Y-69716123I984808J173648D01*
G01*
X272785528Y-69629299D01*
G75*
G02*
X273943984Y-70440459I173648J-984808D01*
G01*
X273943984Y-70440459D01*
G75*
G02*
X273132824Y-71598915I-984808J-173648D01*
G01*
X272640420Y-71685739D01*
G75*
G02*
X271481964Y-70874579I-173648J984808D01*
G01*
G37*
%TD.AperFunction*%
D11*
%TO.P,SW10,*%
%TO.N,*%
X281908981Y-71615198D03*
X271903335Y-73379464D03*
%TD*%
%TO.P,SW9,1*%
%TO.N,Net-(D9-Pad2)*%
%TA.AperFunction,ComponentPad*%
G36*
G01*
X253603317Y-80566414D02*
X253603317Y-80566414D01*
G75*
G02*
X254414477Y-79407958I984808J173648D01*
G01*
X254906881Y-79321134D01*
G75*
G02*
X256065337Y-80132294I173648J-984808D01*
G01*
X256065337Y-80132294D01*
G75*
G02*
X255254177Y-81290750I-984808J-173648D01*
G01*
X254761773Y-81377574D01*
G75*
G02*
X253603317Y-80566414I-173648J984808D01*
G01*
G37*
%TD.AperFunction*%
D10*
%TO.P,SW9,*%
%TO.N,*%
X253763176Y-76578063D03*
X264596062Y-74667933D03*
%TO.P,SW9,2*%
%TO.N,C9*%
%TA.AperFunction,ComponentPad*%
G36*
G01*
X258973133Y-81650424D02*
X258973133Y-81650424D01*
G75*
G02*
X259784293Y-80491968I984808J173648D01*
G01*
X260276697Y-80405144D01*
G75*
G02*
X261435153Y-81216304I173648J-984808D01*
G01*
X261435153Y-81216304D01*
G75*
G02*
X260623993Y-82374760I-984808J-173648D01*
G01*
X260131589Y-82461584D01*
G75*
G02*
X258973133Y-81650424I-173648J984808D01*
G01*
G37*
%TD.AperFunction*%
%TA.AperFunction,ComponentPad*%
G36*
G01*
X259567888Y-70396168D02*
X259567888Y-70396168D01*
G75*
G02*
X260379048Y-69237712I984808J173648D01*
G01*
X260871452Y-69150888D01*
G75*
G02*
X262029908Y-69962048I173648J-984808D01*
G01*
X262029908Y-69962048D01*
G75*
G02*
X261218748Y-71120504I-984808J-173648D01*
G01*
X260726344Y-71207328D01*
G75*
G02*
X259567888Y-70396168I-173648J984808D01*
G01*
G37*
%TD.AperFunction*%
%TO.P,SW9,1*%
%TO.N,Net-(D9-Pad2)*%
%TA.AperFunction,ComponentPad*%
G36*
G01*
X253755425Y-74000246D02*
X253755425Y-74000246D01*
G75*
G02*
X254566585Y-72841790I984808J173648D01*
G01*
X255058989Y-72754966D01*
G75*
G02*
X256217445Y-73566126I173648J-984808D01*
G01*
X256217445Y-73566126D01*
G75*
G02*
X255406285Y-74724582I-984808J-173648D01*
G01*
X254913881Y-74811406D01*
G75*
G02*
X253755425Y-74000246I-173648J984808D01*
G01*
G37*
%TD.AperFunction*%
D11*
%TO.P,SW9,*%
%TO.N,*%
X264182442Y-74740865D03*
X254176796Y-76505131D03*
%TD*%
%TO.P,SW8,1*%
%TO.N,Net-(D8-Pad2)*%
%TA.AperFunction,ComponentPad*%
G36*
G01*
X235876777Y-83692082D02*
X235876777Y-83692082D01*
G75*
G02*
X236687937Y-82533626I984808J173648D01*
G01*
X237180341Y-82446802D01*
G75*
G02*
X238338797Y-83257962I173648J-984808D01*
G01*
X238338797Y-83257962D01*
G75*
G02*
X237527637Y-84416418I-984808J-173648D01*
G01*
X237035233Y-84503242D01*
G75*
G02*
X235876777Y-83692082I-173648J984808D01*
G01*
G37*
%TD.AperFunction*%
D10*
%TO.P,SW8,*%
%TO.N,*%
X236036636Y-79703731D03*
X246869522Y-77793601D03*
%TO.P,SW8,2*%
%TO.N,C8*%
%TA.AperFunction,ComponentPad*%
G36*
G01*
X241246593Y-84776092D02*
X241246593Y-84776092D01*
G75*
G02*
X242057753Y-83617636I984808J173648D01*
G01*
X242550157Y-83530812D01*
G75*
G02*
X243708613Y-84341972I173648J-984808D01*
G01*
X243708613Y-84341972D01*
G75*
G02*
X242897453Y-85500428I-984808J-173648D01*
G01*
X242405049Y-85587252D01*
G75*
G02*
X241246593Y-84776092I-173648J984808D01*
G01*
G37*
%TD.AperFunction*%
%TA.AperFunction,ComponentPad*%
G36*
G01*
X241841348Y-73521836D02*
X241841348Y-73521836D01*
G75*
G02*
X242652508Y-72363380I984808J173648D01*
G01*
X243144912Y-72276556D01*
G75*
G02*
X244303368Y-73087716I173648J-984808D01*
G01*
X244303368Y-73087716D01*
G75*
G02*
X243492208Y-74246172I-984808J-173648D01*
G01*
X242999804Y-74332996D01*
G75*
G02*
X241841348Y-73521836I-173648J984808D01*
G01*
G37*
%TD.AperFunction*%
%TO.P,SW8,1*%
%TO.N,Net-(D8-Pad2)*%
%TA.AperFunction,ComponentPad*%
G36*
G01*
X236028885Y-77125914D02*
X236028885Y-77125914D01*
G75*
G02*
X236840045Y-75967458I984808J173648D01*
G01*
X237332449Y-75880634D01*
G75*
G02*
X238490905Y-76691794I173648J-984808D01*
G01*
X238490905Y-76691794D01*
G75*
G02*
X237679745Y-77850250I-984808J-173648D01*
G01*
X237187341Y-77937074D01*
G75*
G02*
X236028885Y-77125914I-173648J984808D01*
G01*
G37*
%TD.AperFunction*%
D11*
%TO.P,SW8,*%
%TO.N,*%
X246455902Y-77866533D03*
X236450256Y-79630799D03*
%TD*%
%TO.P,SW7,1*%
%TO.N,Net-(D7-Pad2)*%
%TA.AperFunction,ComponentPad*%
G36*
G01*
X218150238Y-86817749D02*
X218150238Y-86817749D01*
G75*
G02*
X218961398Y-85659293I984808J173648D01*
G01*
X219453802Y-85572469D01*
G75*
G02*
X220612258Y-86383629I173648J-984808D01*
G01*
X220612258Y-86383629D01*
G75*
G02*
X219801098Y-87542085I-984808J-173648D01*
G01*
X219308694Y-87628909D01*
G75*
G02*
X218150238Y-86817749I-173648J984808D01*
G01*
G37*
%TD.AperFunction*%
D10*
%TO.P,SW7,*%
%TO.N,*%
X218310097Y-82829398D03*
X229142983Y-80919268D03*
%TO.P,SW7,2*%
%TO.N,C7*%
%TA.AperFunction,ComponentPad*%
G36*
G01*
X223520054Y-87901759D02*
X223520054Y-87901759D01*
G75*
G02*
X224331214Y-86743303I984808J173648D01*
G01*
X224823618Y-86656479D01*
G75*
G02*
X225982074Y-87467639I173648J-984808D01*
G01*
X225982074Y-87467639D01*
G75*
G02*
X225170914Y-88626095I-984808J-173648D01*
G01*
X224678510Y-88712919D01*
G75*
G02*
X223520054Y-87901759I-173648J984808D01*
G01*
G37*
%TD.AperFunction*%
%TA.AperFunction,ComponentPad*%
G36*
G01*
X224114809Y-76647503D02*
X224114809Y-76647503D01*
G75*
G02*
X224925969Y-75489047I984808J173648D01*
G01*
X225418373Y-75402223D01*
G75*
G02*
X226576829Y-76213383I173648J-984808D01*
G01*
X226576829Y-76213383D01*
G75*
G02*
X225765669Y-77371839I-984808J-173648D01*
G01*
X225273265Y-77458663D01*
G75*
G02*
X224114809Y-76647503I-173648J984808D01*
G01*
G37*
%TD.AperFunction*%
%TO.P,SW7,1*%
%TO.N,Net-(D7-Pad2)*%
%TA.AperFunction,ComponentPad*%
G36*
G01*
X218302346Y-80251581D02*
X218302346Y-80251581D01*
G75*
G02*
X219113506Y-79093125I984808J173648D01*
G01*
X219605910Y-79006301D01*
G75*
G02*
X220764366Y-79817461I173648J-984808D01*
G01*
X220764366Y-79817461D01*
G75*
G02*
X219953206Y-80975917I-984808J-173648D01*
G01*
X219460802Y-81062741D01*
G75*
G02*
X218302346Y-80251581I-173648J984808D01*
G01*
G37*
%TD.AperFunction*%
D11*
%TO.P,SW7,*%
%TO.N,*%
X228729363Y-80992200D03*
X218723717Y-82756466D03*
%TD*%
%TO.P,SW6,1*%
%TO.N,Net-(D6-Pad2)*%
%TA.AperFunction,ComponentPad*%
G36*
G01*
X200423698Y-89943416D02*
X200423698Y-89943416D01*
G75*
G02*
X201234858Y-88784960I984808J173648D01*
G01*
X201727262Y-88698136D01*
G75*
G02*
X202885718Y-89509296I173648J-984808D01*
G01*
X202885718Y-89509296D01*
G75*
G02*
X202074558Y-90667752I-984808J-173648D01*
G01*
X201582154Y-90754576D01*
G75*
G02*
X200423698Y-89943416I-173648J984808D01*
G01*
G37*
%TD.AperFunction*%
D10*
%TO.P,SW6,*%
%TO.N,*%
X200583557Y-85955065D03*
X211416443Y-84044935D03*
%TO.P,SW6,2*%
%TO.N,C6*%
%TA.AperFunction,ComponentPad*%
G36*
G01*
X205793514Y-91027426D02*
X205793514Y-91027426D01*
G75*
G02*
X206604674Y-89868970I984808J173648D01*
G01*
X207097078Y-89782146D01*
G75*
G02*
X208255534Y-90593306I173648J-984808D01*
G01*
X208255534Y-90593306D01*
G75*
G02*
X207444374Y-91751762I-984808J-173648D01*
G01*
X206951970Y-91838586D01*
G75*
G02*
X205793514Y-91027426I-173648J984808D01*
G01*
G37*
%TD.AperFunction*%
%TA.AperFunction,ComponentPad*%
G36*
G01*
X206388269Y-79773170D02*
X206388269Y-79773170D01*
G75*
G02*
X207199429Y-78614714I984808J173648D01*
G01*
X207691833Y-78527890D01*
G75*
G02*
X208850289Y-79339050I173648J-984808D01*
G01*
X208850289Y-79339050D01*
G75*
G02*
X208039129Y-80497506I-984808J-173648D01*
G01*
X207546725Y-80584330D01*
G75*
G02*
X206388269Y-79773170I-173648J984808D01*
G01*
G37*
%TD.AperFunction*%
%TO.P,SW6,1*%
%TO.N,Net-(D6-Pad2)*%
%TA.AperFunction,ComponentPad*%
G36*
G01*
X200575806Y-83377248D02*
X200575806Y-83377248D01*
G75*
G02*
X201386966Y-82218792I984808J173648D01*
G01*
X201879370Y-82131968D01*
G75*
G02*
X203037826Y-82943128I173648J-984808D01*
G01*
X203037826Y-82943128D01*
G75*
G02*
X202226666Y-84101584I-984808J-173648D01*
G01*
X201734262Y-84188408D01*
G75*
G02*
X200575806Y-83377248I-173648J984808D01*
G01*
G37*
%TD.AperFunction*%
D11*
%TO.P,SW6,*%
%TO.N,*%
X211002823Y-84117867D03*
X200997177Y-85882133D03*
%TD*%
%TO.P,SW5,1*%
%TO.N,Net-(D5-Pad2)*%
%TA.AperFunction,ComponentPad*%
G36*
G01*
X155069243Y-87738085D02*
X155069243Y-87738085D01*
G75*
G02*
X156227699Y-86926925I984808J-173648D01*
G01*
X156720103Y-87013749D01*
G75*
G02*
X157531263Y-88172205I-173648J-984808D01*
G01*
X157531263Y-88172205D01*
G75*
G02*
X156372807Y-88983365I-984808J173648D01*
G01*
X155880403Y-88896541D01*
G75*
G02*
X155069243Y-87738085I173648J984808D01*
G01*
G37*
%TD.AperFunction*%
D10*
%TO.P,SW5,*%
%TO.N,*%
X156583557Y-84044935D03*
X167416443Y-85955065D03*
%TO.P,SW5,2*%
%TO.N,C5*%
%TA.AperFunction,ComponentPad*%
G36*
G01*
X159744466Y-90593306D02*
X159744466Y-90593306D01*
G75*
G02*
X160902922Y-89782146I984808J-173648D01*
G01*
X161395326Y-89868970D01*
G75*
G02*
X162206486Y-91027426I-173648J-984808D01*
G01*
X162206486Y-91027426D01*
G75*
G02*
X161048030Y-91838586I-984808J173648D01*
G01*
X160555626Y-91751762D01*
G75*
G02*
X159744466Y-90593306I173648J984808D01*
G01*
G37*
%TD.AperFunction*%
%TA.AperFunction,ComponentPad*%
G36*
G01*
X164152534Y-80221183D02*
X164152534Y-80221183D01*
G75*
G02*
X165310990Y-79410023I984808J-173648D01*
G01*
X165803394Y-79496847D01*
G75*
G02*
X166614554Y-80655303I-173648J-984808D01*
G01*
X166614554Y-80655303D01*
G75*
G02*
X165456098Y-81466463I-984808J173648D01*
G01*
X164963694Y-81379639D01*
G75*
G02*
X164152534Y-80221183I173648J984808D01*
G01*
G37*
%TD.AperFunction*%
%TO.P,SW5,1*%
%TO.N,Net-(D5-Pad2)*%
%TA.AperFunction,ComponentPad*%
G36*
G01*
X157457939Y-81619929D02*
X157457939Y-81619929D01*
G75*
G02*
X158616395Y-80808769I984808J-173648D01*
G01*
X159108799Y-80895593D01*
G75*
G02*
X159919959Y-82054049I-173648J-984808D01*
G01*
X159919959Y-82054049D01*
G75*
G02*
X158761503Y-82865209I-984808J173648D01*
G01*
X158269099Y-82778385D01*
G75*
G02*
X157457939Y-81619929I173648J984808D01*
G01*
G37*
%TD.AperFunction*%
D11*
%TO.P,SW5,*%
%TO.N,*%
X167002823Y-85882133D03*
X156997177Y-84117867D03*
%TD*%
%TO.P,SW4,1*%
%TO.N,Net-(D4-Pad2)*%
%TA.AperFunction,ComponentPad*%
G36*
G01*
X137342703Y-84612418D02*
X137342703Y-84612418D01*
G75*
G02*
X138501159Y-83801258I984808J-173648D01*
G01*
X138993563Y-83888082D01*
G75*
G02*
X139804723Y-85046538I-173648J-984808D01*
G01*
X139804723Y-85046538D01*
G75*
G02*
X138646267Y-85857698I-984808J173648D01*
G01*
X138153863Y-85770874D01*
G75*
G02*
X137342703Y-84612418I173648J984808D01*
G01*
G37*
%TD.AperFunction*%
D10*
%TO.P,SW4,*%
%TO.N,*%
X138857017Y-80919268D03*
X149689903Y-82829398D03*
%TO.P,SW4,2*%
%TO.N,C4*%
%TA.AperFunction,ComponentPad*%
G36*
G01*
X142017926Y-87467639D02*
X142017926Y-87467639D01*
G75*
G02*
X143176382Y-86656479I984808J-173648D01*
G01*
X143668786Y-86743303D01*
G75*
G02*
X144479946Y-87901759I-173648J-984808D01*
G01*
X144479946Y-87901759D01*
G75*
G02*
X143321490Y-88712919I-984808J173648D01*
G01*
X142829086Y-88626095D01*
G75*
G02*
X142017926Y-87467639I173648J984808D01*
G01*
G37*
%TD.AperFunction*%
%TA.AperFunction,ComponentPad*%
G36*
G01*
X146425994Y-77095516D02*
X146425994Y-77095516D01*
G75*
G02*
X147584450Y-76284356I984808J-173648D01*
G01*
X148076854Y-76371180D01*
G75*
G02*
X148888014Y-77529636I-173648J-984808D01*
G01*
X148888014Y-77529636D01*
G75*
G02*
X147729558Y-78340796I-984808J173648D01*
G01*
X147237154Y-78253972D01*
G75*
G02*
X146425994Y-77095516I173648J984808D01*
G01*
G37*
%TD.AperFunction*%
%TO.P,SW4,1*%
%TO.N,Net-(D4-Pad2)*%
%TA.AperFunction,ComponentPad*%
G36*
G01*
X139731399Y-78494262D02*
X139731399Y-78494262D01*
G75*
G02*
X140889855Y-77683102I984808J-173648D01*
G01*
X141382259Y-77769926D01*
G75*
G02*
X142193419Y-78928382I-173648J-984808D01*
G01*
X142193419Y-78928382D01*
G75*
G02*
X141034963Y-79739542I-984808J173648D01*
G01*
X140542559Y-79652718D01*
G75*
G02*
X139731399Y-78494262I173648J984808D01*
G01*
G37*
%TD.AperFunction*%
D11*
%TO.P,SW4,*%
%TO.N,*%
X149276283Y-82756466D03*
X139270637Y-80992200D03*
%TD*%
%TO.P,SW3,1*%
%TO.N,Net-(D3-Pad2)*%
%TA.AperFunction,ComponentPad*%
G36*
G01*
X119616164Y-81486751D02*
X119616164Y-81486751D01*
G75*
G02*
X120774620Y-80675591I984808J-173648D01*
G01*
X121267024Y-80762415D01*
G75*
G02*
X122078184Y-81920871I-173648J-984808D01*
G01*
X122078184Y-81920871D01*
G75*
G02*
X120919728Y-82732031I-984808J173648D01*
G01*
X120427324Y-82645207D01*
G75*
G02*
X119616164Y-81486751I173648J984808D01*
G01*
G37*
%TD.AperFunction*%
D10*
%TO.P,SW3,*%
%TO.N,*%
X121130478Y-77793601D03*
X131963364Y-79703731D03*
%TO.P,SW3,2*%
%TO.N,C3*%
%TA.AperFunction,ComponentPad*%
G36*
G01*
X124291387Y-84341972D02*
X124291387Y-84341972D01*
G75*
G02*
X125449843Y-83530812I984808J-173648D01*
G01*
X125942247Y-83617636D01*
G75*
G02*
X126753407Y-84776092I-173648J-984808D01*
G01*
X126753407Y-84776092D01*
G75*
G02*
X125594951Y-85587252I-984808J173648D01*
G01*
X125102547Y-85500428D01*
G75*
G02*
X124291387Y-84341972I173648J984808D01*
G01*
G37*
%TD.AperFunction*%
%TA.AperFunction,ComponentPad*%
G36*
G01*
X128699455Y-73969849D02*
X128699455Y-73969849D01*
G75*
G02*
X129857911Y-73158689I984808J-173648D01*
G01*
X130350315Y-73245513D01*
G75*
G02*
X131161475Y-74403969I-173648J-984808D01*
G01*
X131161475Y-74403969D01*
G75*
G02*
X130003019Y-75215129I-984808J173648D01*
G01*
X129510615Y-75128305D01*
G75*
G02*
X128699455Y-73969849I173648J984808D01*
G01*
G37*
%TD.AperFunction*%
%TO.P,SW3,1*%
%TO.N,Net-(D3-Pad2)*%
%TA.AperFunction,ComponentPad*%
G36*
G01*
X122004860Y-75368595D02*
X122004860Y-75368595D01*
G75*
G02*
X123163316Y-74557435I984808J-173648D01*
G01*
X123655720Y-74644259D01*
G75*
G02*
X124466880Y-75802715I-173648J-984808D01*
G01*
X124466880Y-75802715D01*
G75*
G02*
X123308424Y-76613875I-984808J173648D01*
G01*
X122816020Y-76527051D01*
G75*
G02*
X122004860Y-75368595I173648J984808D01*
G01*
G37*
%TD.AperFunction*%
D11*
%TO.P,SW3,*%
%TO.N,*%
X131549744Y-79630799D03*
X121544098Y-77866533D03*
%TD*%
%TO.P,SW2,1*%
%TO.N,Net-(D2-Pad2)*%
%TA.AperFunction,ComponentPad*%
G36*
G01*
X101889624Y-78361083D02*
X101889624Y-78361083D01*
G75*
G02*
X103048080Y-77549923I984808J-173648D01*
G01*
X103540484Y-77636747D01*
G75*
G02*
X104351644Y-78795203I-173648J-984808D01*
G01*
X104351644Y-78795203D01*
G75*
G02*
X103193188Y-79606363I-984808J173648D01*
G01*
X102700784Y-79519539D01*
G75*
G02*
X101889624Y-78361083I173648J984808D01*
G01*
G37*
%TD.AperFunction*%
D10*
%TO.P,SW2,*%
%TO.N,*%
X103403938Y-74667933D03*
X114236824Y-76578063D03*
%TO.P,SW2,2*%
%TO.N,C2*%
%TA.AperFunction,ComponentPad*%
G36*
G01*
X106564847Y-81216304D02*
X106564847Y-81216304D01*
G75*
G02*
X107723303Y-80405144I984808J-173648D01*
G01*
X108215707Y-80491968D01*
G75*
G02*
X109026867Y-81650424I-173648J-984808D01*
G01*
X109026867Y-81650424D01*
G75*
G02*
X107868411Y-82461584I-984808J173648D01*
G01*
X107376007Y-82374760D01*
G75*
G02*
X106564847Y-81216304I173648J984808D01*
G01*
G37*
%TD.AperFunction*%
%TA.AperFunction,ComponentPad*%
G36*
G01*
X110972915Y-70844181D02*
X110972915Y-70844181D01*
G75*
G02*
X112131371Y-70033021I984808J-173648D01*
G01*
X112623775Y-70119845D01*
G75*
G02*
X113434935Y-71278301I-173648J-984808D01*
G01*
X113434935Y-71278301D01*
G75*
G02*
X112276479Y-72089461I-984808J173648D01*
G01*
X111784075Y-72002637D01*
G75*
G02*
X110972915Y-70844181I173648J984808D01*
G01*
G37*
%TD.AperFunction*%
%TO.P,SW2,1*%
%TO.N,Net-(D2-Pad2)*%
%TA.AperFunction,ComponentPad*%
G36*
G01*
X104278320Y-72242927D02*
X104278320Y-72242927D01*
G75*
G02*
X105436776Y-71431767I984808J-173648D01*
G01*
X105929180Y-71518591D01*
G75*
G02*
X106740340Y-72677047I-173648J-984808D01*
G01*
X106740340Y-72677047D01*
G75*
G02*
X105581884Y-73488207I-984808J173648D01*
G01*
X105089480Y-73401383D01*
G75*
G02*
X104278320Y-72242927I173648J984808D01*
G01*
G37*
%TD.AperFunction*%
D11*
%TO.P,SW2,*%
%TO.N,*%
X113823204Y-76505131D03*
X103817558Y-74740865D03*
%TD*%
%TO.P,SW1,1*%
%TO.N,Net-(D1-Pad2)*%
%TA.AperFunction,ComponentPad*%
G36*
G01*
X84163085Y-75235416D02*
X84163085Y-75235416D01*
G75*
G02*
X85321541Y-74424256I984808J-173648D01*
G01*
X85813945Y-74511080D01*
G75*
G02*
X86625105Y-75669536I-173648J-984808D01*
G01*
X86625105Y-75669536D01*
G75*
G02*
X85466649Y-76480696I-984808J173648D01*
G01*
X84974245Y-76393872D01*
G75*
G02*
X84163085Y-75235416I173648J984808D01*
G01*
G37*
%TD.AperFunction*%
D10*
%TO.P,SW1,*%
%TO.N,*%
X85677399Y-71542266D03*
X96510285Y-73452396D03*
%TO.P,SW1,2*%
%TO.N,C1*%
%TA.AperFunction,ComponentPad*%
G36*
G01*
X88838308Y-78090637D02*
X88838308Y-78090637D01*
G75*
G02*
X89996764Y-77279477I984808J-173648D01*
G01*
X90489168Y-77366301D01*
G75*
G02*
X91300328Y-78524757I-173648J-984808D01*
G01*
X91300328Y-78524757D01*
G75*
G02*
X90141872Y-79335917I-984808J173648D01*
G01*
X89649468Y-79249093D01*
G75*
G02*
X88838308Y-78090637I173648J984808D01*
G01*
G37*
%TD.AperFunction*%
%TA.AperFunction,ComponentPad*%
G36*
G01*
X93246376Y-67718514D02*
X93246376Y-67718514D01*
G75*
G02*
X94404832Y-66907354I984808J-173648D01*
G01*
X94897236Y-66994178D01*
G75*
G02*
X95708396Y-68152634I-173648J-984808D01*
G01*
X95708396Y-68152634D01*
G75*
G02*
X94549940Y-68963794I-984808J173648D01*
G01*
X94057536Y-68876970D01*
G75*
G02*
X93246376Y-67718514I173648J984808D01*
G01*
G37*
%TD.AperFunction*%
%TO.P,SW1,1*%
%TO.N,Net-(D1-Pad2)*%
%TA.AperFunction,ComponentPad*%
G36*
G01*
X86551781Y-69117260D02*
X86551781Y-69117260D01*
G75*
G02*
X87710237Y-68306100I984808J-173648D01*
G01*
X88202641Y-68392924D01*
G75*
G02*
X89013801Y-69551380I-173648J-984808D01*
G01*
X89013801Y-69551380D01*
G75*
G02*
X87855345Y-70362540I-984808J173648D01*
G01*
X87362941Y-70275716D01*
G75*
G02*
X86551781Y-69117260I173648J984808D01*
G01*
G37*
%TD.AperFunction*%
D11*
%TO.P,SW1,*%
%TO.N,*%
X96096665Y-73379464D03*
X86091019Y-71615198D03*
%TD*%
D16*
%TO.N,R3*%
X159000000Y-128000000D03*
%TO.N,R4*%
X167300000Y-129500000D03*
%TO.N,VCC*%
X189500000Y-133300000D03*
%TO.N,LED*%
X185300000Y-116200000D03*
X178238664Y-137986346D03*
%TD*%
D17*
%TO.N,Net-(D1-Pad2)*%
X87782791Y-73063780D02*
X85394095Y-75452476D01*
X87782791Y-69334320D02*
X87782791Y-73063780D01*
%TO.N,Net-(D2-Pad2)*%
X105509330Y-76189447D02*
X103120634Y-78578143D01*
X105509330Y-72459987D02*
X105509330Y-76189447D01*
%TO.N,Net-(D3-Pad2)*%
X123235870Y-79315115D02*
X120847174Y-81703811D01*
X123235870Y-75585655D02*
X123235870Y-79315115D01*
%TO.N,Net-(D4-Pad2)*%
X140962409Y-82440782D02*
X138573713Y-84829478D01*
X140962409Y-78711322D02*
X140962409Y-82440782D01*
%TO.N,Net-(D5-Pad2)*%
X158688949Y-85566449D02*
X156300253Y-87955145D01*
X158688949Y-81836989D02*
X158688949Y-85566449D01*
%TO.N,Net-(D6-Pad2)*%
X203000000Y-88381064D02*
X201654708Y-89726356D01*
X203000000Y-84353372D02*
X203000000Y-88381064D01*
X201806816Y-83160188D02*
X203000000Y-84353372D01*
%TO.N,Net-(D7-Pad2)*%
X219533356Y-80034521D02*
X220700000Y-81201165D01*
X220700000Y-85281937D02*
X219381248Y-86600689D01*
X220700000Y-81201165D02*
X220700000Y-85281937D01*
%TO.N,Net-(D8-Pad2)*%
X237259895Y-76908854D02*
X238500000Y-78148959D01*
X238500000Y-82082809D02*
X237107787Y-83475022D01*
X238500000Y-78148959D02*
X238500000Y-82082809D01*
%TO.N,Net-(D9-Pad2)*%
X254986435Y-73783186D02*
X256300000Y-75096751D01*
X256300000Y-78883681D02*
X254834327Y-80349354D01*
X256300000Y-75096751D02*
X256300000Y-78883681D01*
%TO.N,Net-(D10-Pad2)*%
X272712974Y-70657519D02*
X273800000Y-71744545D01*
X273800000Y-75984553D02*
X272560866Y-77223687D01*
X273800000Y-71744545D02*
X273800000Y-75984553D01*
%TO.N,Net-(D11-Pad2)*%
X84830772Y-89805512D02*
X82442076Y-92194208D01*
X84830772Y-86076052D02*
X84830772Y-89805512D01*
%TO.N,Net-(D12-Pad2)*%
X102557311Y-92931179D02*
X100168615Y-95319875D01*
X102557311Y-89201719D02*
X102557311Y-92931179D01*
%TO.N,Net-(D13-Pad2)*%
X120283851Y-96056846D02*
X117895155Y-98445542D01*
X120283851Y-92327386D02*
X120283851Y-96056846D01*
%TO.N,Net-(D14-Pad2)*%
X138010390Y-99182514D02*
X135621694Y-101571210D01*
X138010390Y-95453054D02*
X138010390Y-99182514D01*
%TO.N,Net-(D15-Pad2)*%
X155736930Y-102308181D02*
X153348234Y-104696877D01*
X155736930Y-98578721D02*
X155736930Y-102308181D01*
%TO.N,Net-(D16-Pad2)*%
X204758835Y-99901920D02*
X205700000Y-100843085D01*
X205700000Y-105374815D02*
X204606727Y-106468088D01*
X205700000Y-100843085D02*
X205700000Y-105374815D01*
%TO.N,Net-(D17-Pad2)*%
X222485375Y-96776253D02*
X223600000Y-97890878D01*
X223600000Y-102075688D02*
X222333267Y-103342421D01*
X223600000Y-97890878D02*
X223600000Y-102075688D01*
%TO.N,Net-(D18-Pad2)*%
X240211914Y-93650585D02*
X241400000Y-94838671D01*
X241400000Y-98876559D02*
X240059806Y-100216753D01*
X241400000Y-94838671D02*
X241400000Y-98876559D01*
%TO.N,Net-(D19-Pad2)*%
X257938454Y-90524918D02*
X259000000Y-91586464D01*
X259000000Y-95877432D02*
X257786346Y-97091086D01*
X259000000Y-91586464D02*
X259000000Y-95877432D01*
%TO.N,Net-(D20-Pad2)*%
X276130355Y-87864613D02*
X276130355Y-93347949D01*
X276130355Y-93347949D02*
X275512885Y-93965419D01*
X275664993Y-87399251D02*
X276130355Y-87864613D01*
%TO.N,Net-(D21-Pad2)*%
X81878753Y-106547244D02*
X79490057Y-108935940D01*
X81878753Y-102817784D02*
X81878753Y-106547244D01*
%TO.N,Net-(D22-Pad2)*%
X99605292Y-109672911D02*
X97216596Y-112061607D01*
X99605292Y-105943451D02*
X99605292Y-109672911D01*
%TO.N,Net-(D23-Pad2)*%
X117331832Y-112798578D02*
X114943136Y-115187274D01*
X117331832Y-109069118D02*
X117331832Y-112798578D01*
%TO.N,Net-(D24-Pad2)*%
X135058371Y-115924245D02*
X132669675Y-118312941D01*
X135058371Y-112194785D02*
X135058371Y-115924245D01*
%TO.N,Net-(D25-Pad2)*%
X152784911Y-119049913D02*
X150396215Y-121438609D01*
X152784911Y-115320453D02*
X152784911Y-119049913D01*
%TO.N,Net-(D26-Pad2)*%
X207710854Y-116643652D02*
X208800000Y-117732798D01*
X208800000Y-121968566D02*
X207558746Y-123209820D01*
X208800000Y-117732798D02*
X208800000Y-121968566D01*
%TO.N,Net-(D27-Pad2)*%
X225437394Y-113517984D02*
X226600000Y-114680590D01*
X226600000Y-118769438D02*
X225285286Y-120084152D01*
X226600000Y-114680590D02*
X226600000Y-118769438D01*
%TO.N,Net-(D28-Pad2)*%
X243163933Y-110392317D02*
X244300000Y-111528384D01*
X244300000Y-115670310D02*
X243011825Y-116958485D01*
X244300000Y-111528384D02*
X244300000Y-115670310D01*
%TO.N,Net-(D29-Pad2)*%
X260890473Y-107266650D02*
X262100000Y-108476177D01*
X262100000Y-112471183D02*
X260738365Y-113832818D01*
X262100000Y-108476177D02*
X262100000Y-112471183D01*
%TO.N,Net-(D30-Pad2)*%
X278617012Y-104140983D02*
X279800000Y-105323971D01*
X279800000Y-109372055D02*
X278464904Y-110707151D01*
X279800000Y-105323971D02*
X279800000Y-109372055D01*
%TO.N,Net-(D31-Pad2)*%
X78926734Y-123288976D02*
X76538038Y-125677672D01*
X78926734Y-119559516D02*
X78926734Y-123288976D01*
%TO.N,Net-(D32-Pad2)*%
X96653273Y-126414643D02*
X94264577Y-128803339D01*
X96653273Y-122685183D02*
X96653273Y-126414643D01*
%TO.N,Net-(D33-Pad2)*%
X114379813Y-129540310D02*
X111991117Y-131929006D01*
X114379813Y-125810850D02*
X114379813Y-129540310D01*
%TO.N,Net-(D34-Pad2)*%
X132106352Y-132665977D02*
X129717656Y-135054673D01*
X132106352Y-128936517D02*
X132106352Y-132665977D01*
%TO.N,Net-(D35-Pad2)*%
X154264527Y-136573061D02*
X151875831Y-138961757D01*
X154264527Y-132843601D02*
X154264527Y-136573061D01*
%TO.N,Net-(D36-Pad2)*%
X206231238Y-134166800D02*
X207400000Y-135335562D01*
X207400000Y-139412098D02*
X206079130Y-140732968D01*
X207400000Y-135335562D02*
X207400000Y-139412098D01*
%TO.N,Net-(D37-Pad2)*%
X228389413Y-130259716D02*
X229400000Y-131270303D01*
X229400000Y-135663189D02*
X228237305Y-136825884D01*
X229400000Y-131270303D02*
X229400000Y-135663189D01*
%TO.N,Net-(D38-Pad2)*%
X247200000Y-132464061D02*
X245963844Y-133700217D01*
X247200000Y-128218097D02*
X247200000Y-132464061D01*
X246115952Y-127134049D02*
X247200000Y-128218097D01*
%TO.N,Net-(D39-Pad2)*%
X264900000Y-129364934D02*
X263690384Y-130574550D01*
X264900000Y-125100000D02*
X264900000Y-129364934D01*
X263842492Y-124042492D02*
X264900000Y-125100000D01*
X263842492Y-124008382D02*
X263842492Y-124042492D01*
%TO.N,Net-(D40-Pad2)*%
X281569031Y-120882715D02*
X282800000Y-122113684D01*
X282800000Y-126065806D02*
X281416923Y-127448883D01*
X282800000Y-122113684D02*
X282800000Y-126065806D01*
%TO.N,R3*%
X159000000Y-128000000D02*
X164000000Y-123000000D01*
X173564998Y-108310000D02*
X175110000Y-108310000D01*
X164000000Y-117874998D02*
X173564998Y-108310000D01*
X164000000Y-123000000D02*
X164000000Y-117874998D01*
%TO.N,R4*%
X168500000Y-128300000D02*
X167300000Y-129500000D01*
X168500000Y-118454998D02*
X168500000Y-128300000D01*
X173564998Y-113390000D02*
X168500000Y-118454998D01*
X175110000Y-113390000D02*
X173564998Y-113390000D01*
%TO.N,Net-(J1-Pad4)*%
X179100000Y-141220000D02*
X181380000Y-143500000D01*
X179100000Y-130760000D02*
X179100000Y-141220000D01*
X181460000Y-128400000D02*
X179100000Y-130760000D01*
%TO.N,GND*%
X175110000Y-98150000D02*
X177700000Y-100740000D01*
X177700000Y-108260000D02*
X175110000Y-110850000D01*
X177700000Y-100740000D02*
X177700000Y-108260000D01*
X175110000Y-110850000D02*
X175950000Y-110850000D01*
X175950000Y-110850000D02*
X177800000Y-112700000D01*
X177800000Y-120860000D02*
X175110000Y-123550000D01*
X177800000Y-112700000D02*
X177800000Y-120860000D01*
X179850011Y-139430011D02*
X183920000Y-143500000D01*
X184000000Y-128400000D02*
X184000000Y-129945002D01*
X184000000Y-129945002D02*
X179850011Y-134094991D01*
X179850011Y-134094991D02*
X179850011Y-139430011D01*
X191100000Y-121760000D02*
X192890000Y-123550000D01*
X191100000Y-112640000D02*
X191100000Y-121760000D01*
X192890000Y-110850000D02*
X191100000Y-112640000D01*
%TO.N,Net-(J1-Pad2)*%
X188400000Y-141560000D02*
X186460000Y-143500000D01*
X188400000Y-130260000D02*
X188400000Y-141560000D01*
X186540000Y-128400000D02*
X188400000Y-130260000D01*
D18*
%TO.N,VCC*%
X192890000Y-80624998D02*
X192890000Y-80370000D01*
X189500000Y-84014998D02*
X192890000Y-80624998D01*
X189500000Y-133300000D02*
X189500000Y-84014998D01*
D17*
%TO.N,C1*%
X84165280Y-116704721D02*
X85621329Y-118160770D01*
X84165280Y-111791161D02*
X84165280Y-116704721D01*
X94477386Y-73899629D02*
X90069318Y-78307697D01*
X94477386Y-67935574D02*
X94477386Y-73899629D01*
X91525367Y-90641361D02*
X87117299Y-95049429D01*
X91525367Y-84677306D02*
X91525367Y-90641361D01*
X88573348Y-107383093D02*
X84165280Y-111791161D01*
X88573348Y-101419038D02*
X88573348Y-107383093D01*
X85621329Y-124124825D02*
X81213261Y-128532893D01*
X85621329Y-118160770D02*
X85621329Y-124124825D01*
%TO.N,C2*%
X112203925Y-77025296D02*
X107795857Y-81433364D01*
X112203925Y-71061241D02*
X112203925Y-77025296D01*
X109251906Y-93767028D02*
X104843838Y-98175096D01*
X109251906Y-87802973D02*
X109251906Y-93767028D01*
X106299887Y-110508760D02*
X101891819Y-114916828D01*
X106299887Y-104544705D02*
X106299887Y-110508760D01*
X107795857Y-86346924D02*
X109251906Y-87802973D01*
X107795857Y-81433364D02*
X107795857Y-86346924D01*
X104843838Y-103088656D02*
X106299887Y-104544705D01*
X104843838Y-98175096D02*
X104843838Y-103088656D01*
X98939800Y-130313720D02*
X98939800Y-131658560D01*
X103347868Y-125905652D02*
X98939800Y-130313720D01*
X103347868Y-121286437D02*
X103347868Y-125905652D01*
X101891819Y-119830388D02*
X103347868Y-121286437D01*
X101891819Y-114916828D02*
X101891819Y-119830388D01*
%TO.N,C3*%
X129930465Y-80150964D02*
X125522397Y-84559032D01*
X129930465Y-74186909D02*
X129930465Y-80150964D01*
X126978446Y-96892695D02*
X122570378Y-101300763D01*
X126978446Y-90928640D02*
X126978446Y-96892695D01*
X124026427Y-113634427D02*
X119618359Y-118042495D01*
X124026427Y-107670372D02*
X124026427Y-113634427D01*
X125522397Y-89472591D02*
X126978446Y-90928640D01*
X125522397Y-84559032D02*
X125522397Y-89472591D01*
X121074408Y-130376159D02*
X116666340Y-134784227D01*
X121074408Y-124412104D02*
X121074408Y-130376159D01*
X122570378Y-106214323D02*
X124026427Y-107670372D01*
X122570378Y-101300763D02*
X122570378Y-106214323D01*
X119618359Y-122956055D02*
X121074408Y-124412104D01*
X119618359Y-118042495D02*
X119618359Y-122956055D01*
%TO.N,C4*%
X138800947Y-133501826D02*
X134392879Y-137909894D01*
X138800947Y-127537771D02*
X138800947Y-133501826D01*
X147657004Y-83276631D02*
X143248936Y-87684699D01*
X147657004Y-77312576D02*
X147657004Y-83276631D01*
X144704985Y-100018363D02*
X140296917Y-104426431D01*
X144704985Y-94054308D02*
X144704985Y-100018363D01*
X143248936Y-92598259D02*
X144704985Y-94054308D01*
X143248936Y-87684699D02*
X143248936Y-92598259D01*
X140296917Y-109339990D02*
X141434761Y-110477834D01*
X140296917Y-104426431D02*
X140296917Y-109339990D01*
X141752966Y-116760094D02*
X137344898Y-121168162D01*
X141752966Y-110796039D02*
X141752966Y-116760094D01*
X137344898Y-126081722D02*
X138800947Y-127537771D01*
X137344898Y-121168162D02*
X137344898Y-126081722D01*
%TO.N,C5*%
X165383544Y-86402298D02*
X160975476Y-90810366D01*
X165383544Y-80438243D02*
X165383544Y-86402298D01*
X162431525Y-103144030D02*
X158023457Y-107552098D01*
X162431525Y-97179975D02*
X162431525Y-103144030D01*
X159479506Y-119885762D02*
X155071438Y-124293830D01*
X159479506Y-113921707D02*
X159479506Y-119885762D01*
X160959122Y-137408910D02*
X156551054Y-141816978D01*
X160959122Y-131444855D02*
X160959122Y-137408910D01*
X160975476Y-95723926D02*
X162431525Y-97179975D01*
X160975476Y-90810366D02*
X160975476Y-95723926D01*
X155071438Y-125557171D02*
X160959122Y-131444855D01*
X155071438Y-124293830D02*
X155071438Y-125557171D01*
X158023457Y-112465658D02*
X159479506Y-113921707D01*
X158023457Y-107552098D02*
X158023457Y-112465658D01*
%TO.N,C6*%
X208800000Y-89034890D02*
X207024524Y-90810366D01*
X208800000Y-80736831D02*
X208800000Y-89034890D01*
X207619279Y-79556110D02*
X208800000Y-80736831D01*
X207024524Y-92751068D02*
X210571298Y-96297842D01*
X207024524Y-90810366D02*
X207024524Y-92751068D01*
X210571298Y-96297842D02*
X211900000Y-97626544D01*
X211900000Y-105628641D02*
X209976543Y-107552098D01*
X211900000Y-97626544D02*
X211900000Y-105628641D01*
X209976543Y-109492800D02*
X213523317Y-113039574D01*
X209976543Y-107552098D02*
X209976543Y-109492800D01*
X213523317Y-113039574D02*
X214800000Y-114316257D01*
X214800000Y-122422392D02*
X212928562Y-124293830D01*
X214800000Y-114316257D02*
X214800000Y-122422392D01*
X212928562Y-129677861D02*
X212043701Y-130562722D01*
X212928562Y-124293830D02*
X212928562Y-129677861D01*
X212043701Y-130562722D02*
X213500000Y-132019021D01*
X213500000Y-139765924D02*
X211448946Y-141816978D01*
X213500000Y-132019021D02*
X213500000Y-139765924D01*
%TO.N,C7*%
X225345819Y-76430443D02*
X226700000Y-77784624D01*
X226700000Y-85735763D02*
X224751064Y-87684699D01*
X226700000Y-77784624D02*
X226700000Y-85735763D01*
X224751064Y-89625401D02*
X228297838Y-93172175D01*
X224751064Y-87684699D02*
X224751064Y-89625401D01*
X228297838Y-93172175D02*
X229600000Y-94474337D01*
X229600000Y-102529514D02*
X227703083Y-104426431D01*
X229600000Y-94474337D02*
X229600000Y-102529514D01*
X234201876Y-126655638D02*
X235500000Y-127953762D01*
X235500000Y-136017015D02*
X233607121Y-137909894D01*
X235500000Y-127953762D02*
X235500000Y-136017015D01*
X230655102Y-123108864D02*
X234201876Y-126655638D01*
X230655102Y-121168162D02*
X230655102Y-123108864D01*
X231249857Y-109913906D02*
X232700000Y-111364049D01*
X232700000Y-119123264D02*
X230655102Y-121168162D01*
X232700000Y-111364049D02*
X232700000Y-119123264D01*
X227703083Y-106367132D02*
X231249857Y-109913906D01*
X227703083Y-104426431D02*
X227703083Y-106367132D01*
%TO.N,C8*%
X243072358Y-73304776D02*
X244400000Y-74632418D01*
X244400000Y-82636635D02*
X242477603Y-84559032D01*
X244400000Y-74632418D02*
X244400000Y-82636635D01*
X242477603Y-86499733D02*
X246024377Y-90046507D01*
X242477603Y-84559032D02*
X242477603Y-86499733D01*
X246024377Y-90046507D02*
X247400000Y-91422130D01*
X247400000Y-99330385D02*
X245429622Y-101300763D01*
X247400000Y-91422130D02*
X247400000Y-99330385D01*
X245429622Y-103241465D02*
X248976396Y-106788239D01*
X245429622Y-101300763D02*
X245429622Y-103241465D01*
X248976396Y-106788239D02*
X250300000Y-108111843D01*
X250300000Y-116124136D02*
X248381641Y-118042495D01*
X250300000Y-108111843D02*
X250300000Y-116124136D01*
X248381641Y-119983197D02*
X251928415Y-123529971D01*
X248381641Y-118042495D02*
X248381641Y-119983197D01*
X251928415Y-123529971D02*
X253200000Y-124801556D01*
X253200000Y-132917887D02*
X251333660Y-134784227D01*
X253200000Y-124801556D02*
X253200000Y-132917887D01*
%TO.N,C9*%
X260798898Y-70179108D02*
X262200000Y-71580210D01*
X262200000Y-79437507D02*
X260204143Y-81433364D01*
X262200000Y-71580210D02*
X262200000Y-79437507D01*
X260204143Y-83374066D02*
X263750917Y-86920840D01*
X260204143Y-81433364D02*
X260204143Y-83374066D01*
X263750917Y-86920840D02*
X265100000Y-88269923D01*
X265100000Y-96231258D02*
X265100000Y-88269923D01*
X263156162Y-98175096D02*
X265100000Y-96231258D01*
X263156162Y-100115798D02*
X266702936Y-103662572D01*
X263156162Y-98175096D02*
X263156162Y-100115798D01*
X266702936Y-103662572D02*
X268100000Y-105059636D01*
X268100000Y-112925009D02*
X266108181Y-114916828D01*
X268100000Y-105059636D02*
X268100000Y-112925009D01*
X266108181Y-116857530D02*
X269654955Y-120404304D01*
X266108181Y-114916828D02*
X266108181Y-116857530D01*
X269654955Y-120404304D02*
X271000000Y-121749349D01*
X271000000Y-129718760D02*
X269060200Y-131658560D01*
X271000000Y-121749349D02*
X271000000Y-129718760D01*
%TO.N,C10*%
X278525437Y-67053441D02*
X279800000Y-68328004D01*
X279800000Y-76438379D02*
X277930682Y-78307697D01*
X279800000Y-68328004D02*
X279800000Y-76438379D01*
X277930682Y-80248399D02*
X281477456Y-83795173D01*
X277930682Y-78307697D02*
X277930682Y-80248399D01*
X281477456Y-83795173D02*
X282800000Y-85117717D01*
X282800000Y-93132130D02*
X280882701Y-95049429D01*
X282800000Y-85117717D02*
X282800000Y-93132130D01*
X280882701Y-96990131D02*
X284429475Y-100536905D01*
X280882701Y-95049429D02*
X280882701Y-96990131D01*
X284429475Y-100536905D02*
X285700000Y-101807430D01*
X285700000Y-109925881D02*
X283834720Y-111791161D01*
X285700000Y-101807430D02*
X285700000Y-109925881D01*
X283834720Y-113731863D02*
X287381494Y-117278637D01*
X283834720Y-111791161D02*
X283834720Y-113731863D01*
X287381494Y-117278637D02*
X288600000Y-118497143D01*
X288600000Y-126719632D02*
X286786739Y-128532893D01*
X288600000Y-118497143D02*
X288600000Y-126719632D01*
%TO.N,LED*%
X178238664Y-123261336D02*
X178238664Y-137986346D01*
X185300000Y-116200000D02*
X178238664Y-123261336D01*
D18*
%TO.N,VIN*%
X190449991Y-142050009D02*
X189000000Y-143500000D01*
X190449991Y-85350009D02*
X190449991Y-142050009D01*
X192890000Y-82910000D02*
X190449991Y-85350009D01*
%TD*%
D19*
%TO.N,GND*%
X171606399Y-79240635D02*
X171630668Y-79247997D01*
X171670274Y-79251898D01*
X171677370Y-79253149D01*
X171702499Y-79255072D01*
X171727632Y-79257547D01*
X171734852Y-79257547D01*
X171774519Y-79260582D01*
X171799690Y-79257547D01*
X171880265Y-79257547D01*
X171870498Y-79275820D01*
X171834188Y-79395518D01*
X171821928Y-79520000D01*
X171821928Y-81220000D01*
X171834188Y-81344482D01*
X171870498Y-81464180D01*
X171929463Y-81574494D01*
X171983222Y-81640000D01*
X171929463Y-81705506D01*
X171870498Y-81815820D01*
X171834188Y-81935518D01*
X171821928Y-82060000D01*
X171821928Y-83760000D01*
X171834188Y-83884482D01*
X171870498Y-84004180D01*
X171929463Y-84114494D01*
X171983222Y-84180000D01*
X171929463Y-84245506D01*
X171870498Y-84355820D01*
X171834188Y-84475518D01*
X171821928Y-84600000D01*
X171825000Y-85164250D01*
X171983750Y-85323000D01*
X176436250Y-85323000D01*
X176595000Y-85164250D01*
X176598072Y-84600000D01*
X176585812Y-84475518D01*
X176549502Y-84355820D01*
X176490537Y-84245506D01*
X176436778Y-84180000D01*
X176490537Y-84114494D01*
X176549502Y-84004180D01*
X176585812Y-83884482D01*
X176598072Y-83760000D01*
X176598072Y-83393589D01*
X180190000Y-83393589D01*
X180190000Y-83666411D01*
X180243225Y-83933989D01*
X180347629Y-84186043D01*
X180499201Y-84412886D01*
X180692114Y-84605799D01*
X180918957Y-84757371D01*
X181171011Y-84861775D01*
X181438589Y-84915000D01*
X181711411Y-84915000D01*
X181978989Y-84861775D01*
X182231043Y-84757371D01*
X182457886Y-84605799D01*
X182650799Y-84412886D01*
X182802371Y-84186043D01*
X182906775Y-83933989D01*
X182960000Y-83666411D01*
X182960000Y-83393589D01*
X185040000Y-83393589D01*
X185040000Y-83666411D01*
X185093225Y-83933989D01*
X185197629Y-84186043D01*
X185349201Y-84412886D01*
X185542114Y-84605799D01*
X185768957Y-84757371D01*
X186021011Y-84861775D01*
X186288589Y-84915000D01*
X186561411Y-84915000D01*
X186828989Y-84861775D01*
X187081043Y-84757371D01*
X187307886Y-84605799D01*
X187500799Y-84412886D01*
X187652371Y-84186043D01*
X187756775Y-83933989D01*
X187810000Y-83666411D01*
X187810000Y-83393589D01*
X187756775Y-83126011D01*
X187652371Y-82873957D01*
X187500799Y-82647114D01*
X187307886Y-82454201D01*
X187081043Y-82302629D01*
X186828989Y-82198225D01*
X186561411Y-82145000D01*
X186288589Y-82145000D01*
X186021011Y-82198225D01*
X185768957Y-82302629D01*
X185542114Y-82454201D01*
X185349201Y-82647114D01*
X185197629Y-82873957D01*
X185093225Y-83126011D01*
X185040000Y-83393589D01*
X182960000Y-83393589D01*
X182906775Y-83126011D01*
X182802371Y-82873957D01*
X182650799Y-82647114D01*
X182457886Y-82454201D01*
X182231043Y-82302629D01*
X181978989Y-82198225D01*
X181711411Y-82145000D01*
X181438589Y-82145000D01*
X181171011Y-82198225D01*
X180918957Y-82302629D01*
X180692114Y-82454201D01*
X180499201Y-82647114D01*
X180347629Y-82873957D01*
X180243225Y-83126011D01*
X180190000Y-83393589D01*
X176598072Y-83393589D01*
X176598072Y-82060000D01*
X176585812Y-81935518D01*
X176549502Y-81815820D01*
X176490537Y-81705506D01*
X176436778Y-81640000D01*
X176490537Y-81574494D01*
X176549502Y-81464180D01*
X176585812Y-81344482D01*
X176598072Y-81220000D01*
X176598072Y-79520000D01*
X176585812Y-79395518D01*
X176549502Y-79275820D01*
X176539735Y-79257547D01*
X180371536Y-79257547D01*
X180296495Y-79307688D01*
X180082688Y-79521495D01*
X179914701Y-79772905D01*
X179798989Y-80052257D01*
X179740000Y-80348816D01*
X179740000Y-80651184D01*
X179798989Y-80947743D01*
X179914701Y-81227095D01*
X180082688Y-81478505D01*
X180296495Y-81692312D01*
X180547905Y-81860299D01*
X180827257Y-81976011D01*
X181123816Y-82035000D01*
X181426184Y-82035000D01*
X181722743Y-81976011D01*
X182002095Y-81860299D01*
X182253505Y-81692312D01*
X182467312Y-81478505D01*
X182635299Y-81227095D01*
X182751011Y-80947743D01*
X182810000Y-80651184D01*
X182810000Y-80348816D01*
X182751011Y-80052257D01*
X182635299Y-79772905D01*
X182467312Y-79521495D01*
X182253505Y-79307688D01*
X182178464Y-79257547D01*
X185821536Y-79257547D01*
X185746495Y-79307688D01*
X185532688Y-79521495D01*
X185364701Y-79772905D01*
X185248989Y-80052257D01*
X185190000Y-80348816D01*
X185190000Y-80651184D01*
X185248989Y-80947743D01*
X185364701Y-81227095D01*
X185532688Y-81478505D01*
X185746495Y-81692312D01*
X185997905Y-81860299D01*
X186277257Y-81976011D01*
X186573816Y-82035000D01*
X186876184Y-82035000D01*
X187172743Y-81976011D01*
X187452095Y-81860299D01*
X187703505Y-81692312D01*
X187917312Y-81478505D01*
X188085299Y-81227095D01*
X188201011Y-80947743D01*
X188260000Y-80651184D01*
X188260000Y-80348816D01*
X188201011Y-80052257D01*
X188085299Y-79772905D01*
X187917312Y-79521495D01*
X187703505Y-79307688D01*
X187628464Y-79257547D01*
X191460265Y-79257547D01*
X191450498Y-79275820D01*
X191414188Y-79395518D01*
X191401928Y-79520000D01*
X191401928Y-80932202D01*
X188938574Y-83395557D01*
X188906710Y-83421707D01*
X188825907Y-83520166D01*
X188802364Y-83548853D01*
X188724828Y-83693912D01*
X188677082Y-83851310D01*
X188660960Y-84014998D01*
X188665001Y-84056027D01*
X188665000Y-129450198D01*
X188028072Y-128813270D01*
X188028072Y-127550000D01*
X188015812Y-127425518D01*
X187979502Y-127305820D01*
X187920537Y-127195506D01*
X187841185Y-127098815D01*
X187744494Y-127019463D01*
X187634180Y-126960498D01*
X187514482Y-126924188D01*
X187390000Y-126911928D01*
X185690000Y-126911928D01*
X185565518Y-126924188D01*
X185445820Y-126960498D01*
X185335506Y-127019463D01*
X185270000Y-127073222D01*
X185204494Y-127019463D01*
X185094180Y-126960498D01*
X184974482Y-126924188D01*
X184850000Y-126911928D01*
X184285750Y-126915000D01*
X184127000Y-127073750D01*
X184127000Y-131526250D01*
X184285750Y-131685000D01*
X184850000Y-131688072D01*
X184974482Y-131675812D01*
X185094180Y-131639502D01*
X185204494Y-131580537D01*
X185270000Y-131526778D01*
X185335506Y-131580537D01*
X185445820Y-131639502D01*
X185565518Y-131675812D01*
X185690000Y-131688072D01*
X187390000Y-131688072D01*
X187514482Y-131675812D01*
X187634180Y-131639502D01*
X187640000Y-131636391D01*
X187640001Y-141245197D01*
X186826408Y-142058791D01*
X186606260Y-142015000D01*
X186313740Y-142015000D01*
X186026842Y-142072068D01*
X185756589Y-142184010D01*
X185513368Y-142346525D01*
X185306525Y-142553368D01*
X185184805Y-142735534D01*
X185115178Y-142618645D01*
X184920269Y-142402412D01*
X184686920Y-142228359D01*
X184424099Y-142103175D01*
X184276890Y-142058524D01*
X184047000Y-142179845D01*
X184047000Y-143373000D01*
X184067000Y-143373000D01*
X184067000Y-143627000D01*
X184047000Y-143627000D01*
X184047000Y-144820155D01*
X184276890Y-144941476D01*
X184424099Y-144896825D01*
X184686920Y-144771641D01*
X184920269Y-144597588D01*
X185115178Y-144381355D01*
X185184805Y-144264466D01*
X185306525Y-144446632D01*
X185513368Y-144653475D01*
X185756589Y-144815990D01*
X186026842Y-144927932D01*
X186313740Y-144985000D01*
X186606260Y-144985000D01*
X186893158Y-144927932D01*
X187163411Y-144815990D01*
X187406632Y-144653475D01*
X187538487Y-144521620D01*
X187560498Y-144594180D01*
X187619463Y-144704494D01*
X187698815Y-144801185D01*
X187795506Y-144880537D01*
X187905820Y-144939502D01*
X188025518Y-144975812D01*
X188150000Y-144988072D01*
X189850000Y-144988072D01*
X189974482Y-144975812D01*
X190094180Y-144939502D01*
X190204494Y-144880537D01*
X190301185Y-144801185D01*
X190380537Y-144704494D01*
X190439502Y-144594180D01*
X190475812Y-144474482D01*
X190488072Y-144350000D01*
X190488072Y-143192796D01*
X191011423Y-142669446D01*
X191043282Y-142643300D01*
X191147627Y-142516155D01*
X191225163Y-142371096D01*
X191272909Y-142213698D01*
X191284991Y-142091028D01*
X191289031Y-142050009D01*
X191284991Y-142008991D01*
X191284991Y-124400000D01*
X191401928Y-124400000D01*
X191414188Y-124524482D01*
X191450498Y-124644180D01*
X191509463Y-124754494D01*
X191563222Y-124820000D01*
X191509463Y-124885506D01*
X191450498Y-124995820D01*
X191414188Y-125115518D01*
X191401928Y-125240000D01*
X191401928Y-126940000D01*
X191414188Y-127064482D01*
X191450498Y-127184180D01*
X191509463Y-127294494D01*
X191563222Y-127360000D01*
X191509463Y-127425506D01*
X191450498Y-127535820D01*
X191414188Y-127655518D01*
X191401928Y-127780000D01*
X191401928Y-129480000D01*
X191414188Y-129604482D01*
X191450498Y-129724180D01*
X191509463Y-129834494D01*
X191588815Y-129931185D01*
X191685506Y-130010537D01*
X191795820Y-130069502D01*
X191915518Y-130105812D01*
X192040000Y-130118072D01*
X195540000Y-130118072D01*
X195664482Y-130105812D01*
X195784180Y-130069502D01*
X195894494Y-130010537D01*
X195991185Y-129931185D01*
X196070537Y-129834494D01*
X196129502Y-129724180D01*
X196165812Y-129604482D01*
X196178072Y-129480000D01*
X196178072Y-127780000D01*
X196165812Y-127655518D01*
X196129502Y-127535820D01*
X196070537Y-127425506D01*
X196016778Y-127360000D01*
X196070537Y-127294494D01*
X196129502Y-127184180D01*
X196165812Y-127064482D01*
X196178072Y-126940000D01*
X196178072Y-125240000D01*
X196165812Y-125115518D01*
X196129502Y-124995820D01*
X196070537Y-124885506D01*
X196016778Y-124820000D01*
X196070537Y-124754494D01*
X196129502Y-124644180D01*
X196165812Y-124524482D01*
X196178072Y-124400000D01*
X196175000Y-123835750D01*
X196016250Y-123677000D01*
X191563750Y-123677000D01*
X191405000Y-123835750D01*
X191401928Y-124400000D01*
X191284991Y-124400000D01*
X191284991Y-111700000D01*
X191401928Y-111700000D01*
X191414188Y-111824482D01*
X191450498Y-111944180D01*
X191509463Y-112054494D01*
X191563222Y-112120000D01*
X191509463Y-112185506D01*
X191450498Y-112295820D01*
X191414188Y-112415518D01*
X191401928Y-112540000D01*
X191401928Y-114240000D01*
X191414188Y-114364482D01*
X191450498Y-114484180D01*
X191509463Y-114594494D01*
X191563222Y-114660000D01*
X191509463Y-114725506D01*
X191450498Y-114835820D01*
X191414188Y-114955518D01*
X191401928Y-115080000D01*
X191401928Y-116780000D01*
X191414188Y-116904482D01*
X191450498Y-117024180D01*
X191509463Y-117134494D01*
X191563222Y-117200000D01*
X191509463Y-117265506D01*
X191450498Y-117375820D01*
X191414188Y-117495518D01*
X191401928Y-117620000D01*
X191401928Y-119320000D01*
X191414188Y-119444482D01*
X191450498Y-119564180D01*
X191509463Y-119674494D01*
X191563222Y-119740000D01*
X191509463Y-119805506D01*
X191450498Y-119915820D01*
X191414188Y-120035518D01*
X191401928Y-120160000D01*
X191401928Y-121860000D01*
X191414188Y-121984482D01*
X191450498Y-122104180D01*
X191509463Y-122214494D01*
X191563222Y-122280000D01*
X191509463Y-122345506D01*
X191450498Y-122455820D01*
X191414188Y-122575518D01*
X191401928Y-122700000D01*
X191405000Y-123264250D01*
X191563750Y-123423000D01*
X196016250Y-123423000D01*
X196175000Y-123264250D01*
X196178072Y-122700000D01*
X196165812Y-122575518D01*
X196129502Y-122455820D01*
X196070537Y-122345506D01*
X196016778Y-122280000D01*
X196070537Y-122214494D01*
X196129502Y-122104180D01*
X196165812Y-121984482D01*
X196178072Y-121860000D01*
X196178072Y-120160000D01*
X196165812Y-120035518D01*
X196129502Y-119915820D01*
X196070537Y-119805506D01*
X196016778Y-119740000D01*
X196070537Y-119674494D01*
X196129502Y-119564180D01*
X196165812Y-119444482D01*
X196178072Y-119320000D01*
X196178072Y-117620000D01*
X196165812Y-117495518D01*
X196129502Y-117375820D01*
X196070537Y-117265506D01*
X196016778Y-117200000D01*
X196070537Y-117134494D01*
X196129502Y-117024180D01*
X196165812Y-116904482D01*
X196178072Y-116780000D01*
X196178072Y-115080000D01*
X196165812Y-114955518D01*
X196129502Y-114835820D01*
X196070537Y-114725506D01*
X196016778Y-114660000D01*
X196070537Y-114594494D01*
X196129502Y-114484180D01*
X196165812Y-114364482D01*
X196178072Y-114240000D01*
X196178072Y-112540000D01*
X196165812Y-112415518D01*
X196129502Y-112295820D01*
X196070537Y-112185506D01*
X196016778Y-112120000D01*
X196070537Y-112054494D01*
X196129502Y-111944180D01*
X196165812Y-111824482D01*
X196178072Y-111700000D01*
X196175000Y-111135750D01*
X196016250Y-110977000D01*
X191563750Y-110977000D01*
X191405000Y-111135750D01*
X191401928Y-111700000D01*
X191284991Y-111700000D01*
X191284991Y-99000000D01*
X191401928Y-99000000D01*
X191414188Y-99124482D01*
X191450498Y-99244180D01*
X191509463Y-99354494D01*
X191563222Y-99420000D01*
X191509463Y-99485506D01*
X191450498Y-99595820D01*
X191414188Y-99715518D01*
X191401928Y-99840000D01*
X191401928Y-101540000D01*
X191414188Y-101664482D01*
X191450498Y-101784180D01*
X191509463Y-101894494D01*
X191563222Y-101960000D01*
X191509463Y-102025506D01*
X191450498Y-102135820D01*
X191414188Y-102255518D01*
X191401928Y-102380000D01*
X191401928Y-104080000D01*
X191414188Y-104204482D01*
X191450498Y-104324180D01*
X191509463Y-104434494D01*
X191563222Y-104500000D01*
X191509463Y-104565506D01*
X191450498Y-104675820D01*
X191414188Y-104795518D01*
X191401928Y-104920000D01*
X191401928Y-106620000D01*
X191414188Y-106744482D01*
X191450498Y-106864180D01*
X191509463Y-106974494D01*
X191563222Y-107040000D01*
X191509463Y-107105506D01*
X191450498Y-107215820D01*
X191414188Y-107335518D01*
X191401928Y-107460000D01*
X191401928Y-109160000D01*
X191414188Y-109284482D01*
X191450498Y-109404180D01*
X191509463Y-109514494D01*
X191563222Y-109580000D01*
X191509463Y-109645506D01*
X191450498Y-109755820D01*
X191414188Y-109875518D01*
X191401928Y-110000000D01*
X191405000Y-110564250D01*
X191563750Y-110723000D01*
X196016250Y-110723000D01*
X196175000Y-110564250D01*
X196178072Y-110000000D01*
X196165812Y-109875518D01*
X196129502Y-109755820D01*
X196070537Y-109645506D01*
X196016778Y-109580000D01*
X196070537Y-109514494D01*
X196129502Y-109404180D01*
X196165812Y-109284482D01*
X196178072Y-109160000D01*
X196178072Y-107460000D01*
X196165812Y-107335518D01*
X196129502Y-107215820D01*
X196070537Y-107105506D01*
X196016778Y-107040000D01*
X196070537Y-106974494D01*
X196129502Y-106864180D01*
X196165812Y-106744482D01*
X196178072Y-106620000D01*
X196178072Y-104920000D01*
X196165812Y-104795518D01*
X196129502Y-104675820D01*
X196070537Y-104565506D01*
X196016778Y-104500000D01*
X196070537Y-104434494D01*
X196129502Y-104324180D01*
X196165812Y-104204482D01*
X196178072Y-104080000D01*
X196178072Y-102380000D01*
X196165812Y-102255518D01*
X196129502Y-102135820D01*
X196070537Y-102025506D01*
X196016778Y-101960000D01*
X196070537Y-101894494D01*
X196129502Y-101784180D01*
X196165812Y-101664482D01*
X196178072Y-101540000D01*
X196178072Y-99840000D01*
X196165812Y-99715518D01*
X196129502Y-99595820D01*
X196070537Y-99485506D01*
X196016778Y-99420000D01*
X196070537Y-99354494D01*
X196129502Y-99244180D01*
X196165812Y-99124482D01*
X196178072Y-99000000D01*
X196175000Y-98435750D01*
X196016250Y-98277000D01*
X191563750Y-98277000D01*
X191405000Y-98435750D01*
X191401928Y-99000000D01*
X191284991Y-99000000D01*
X191284991Y-85695876D01*
X191401928Y-85578939D01*
X191401928Y-86300000D01*
X191414188Y-86424482D01*
X191450498Y-86544180D01*
X191509463Y-86654494D01*
X191563222Y-86720000D01*
X191509463Y-86785506D01*
X191450498Y-86895820D01*
X191414188Y-87015518D01*
X191401928Y-87140000D01*
X191401928Y-88840000D01*
X191414188Y-88964482D01*
X191450498Y-89084180D01*
X191509463Y-89194494D01*
X191563222Y-89260000D01*
X191509463Y-89325506D01*
X191450498Y-89435820D01*
X191414188Y-89555518D01*
X191401928Y-89680000D01*
X191401928Y-91380000D01*
X191414188Y-91504482D01*
X191450498Y-91624180D01*
X191509463Y-91734494D01*
X191563222Y-91800000D01*
X191509463Y-91865506D01*
X191450498Y-91975820D01*
X191414188Y-92095518D01*
X191401928Y-92220000D01*
X191401928Y-93920000D01*
X191414188Y-94044482D01*
X191450498Y-94164180D01*
X191509463Y-94274494D01*
X191563222Y-94340000D01*
X191509463Y-94405506D01*
X191450498Y-94515820D01*
X191414188Y-94635518D01*
X191401928Y-94760000D01*
X191401928Y-96460000D01*
X191414188Y-96584482D01*
X191450498Y-96704180D01*
X191509463Y-96814494D01*
X191563222Y-96880000D01*
X191509463Y-96945506D01*
X191450498Y-97055820D01*
X191414188Y-97175518D01*
X191401928Y-97300000D01*
X191405000Y-97864250D01*
X191563750Y-98023000D01*
X196016250Y-98023000D01*
X196175000Y-97864250D01*
X196178072Y-97300000D01*
X196165812Y-97175518D01*
X196129502Y-97055820D01*
X196070537Y-96945506D01*
X196016778Y-96880000D01*
X196070537Y-96814494D01*
X196129502Y-96704180D01*
X196165812Y-96584482D01*
X196178072Y-96460000D01*
X196178072Y-94760000D01*
X196165812Y-94635518D01*
X196129502Y-94515820D01*
X196070537Y-94405506D01*
X196016778Y-94340000D01*
X196070537Y-94274494D01*
X196129502Y-94164180D01*
X196165812Y-94044482D01*
X196178072Y-93920000D01*
X196178072Y-92220000D01*
X196165812Y-92095518D01*
X196129502Y-91975820D01*
X196070537Y-91865506D01*
X196016778Y-91800000D01*
X196070537Y-91734494D01*
X196129502Y-91624180D01*
X196165812Y-91504482D01*
X196178072Y-91380000D01*
X196178072Y-89680000D01*
X196165812Y-89555518D01*
X196129502Y-89435820D01*
X196070537Y-89325506D01*
X196016778Y-89260000D01*
X196070537Y-89194494D01*
X196129502Y-89084180D01*
X196165812Y-88964482D01*
X196178072Y-88840000D01*
X196178072Y-87140000D01*
X196165812Y-87015518D01*
X196129502Y-86895820D01*
X196070537Y-86785506D01*
X196016778Y-86720000D01*
X196070537Y-86654494D01*
X196129502Y-86544180D01*
X196165812Y-86424482D01*
X196178072Y-86300000D01*
X196178072Y-84600000D01*
X196165812Y-84475518D01*
X196129502Y-84355820D01*
X196070537Y-84245506D01*
X196016778Y-84180000D01*
X196070537Y-84114494D01*
X196129502Y-84004180D01*
X196165812Y-83884482D01*
X196178072Y-83760000D01*
X196178072Y-82060000D01*
X196165812Y-81935518D01*
X196129502Y-81815820D01*
X196070537Y-81705506D01*
X196016778Y-81640000D01*
X196070537Y-81574494D01*
X196129502Y-81464180D01*
X196165812Y-81344482D01*
X196178072Y-81220000D01*
X196178072Y-79520000D01*
X196165812Y-79395518D01*
X196129502Y-79275820D01*
X196119735Y-79257547D01*
X196200311Y-79257547D01*
X196225482Y-79260582D01*
X196265149Y-79257547D01*
X196272368Y-79257547D01*
X196297500Y-79255072D01*
X196322630Y-79253149D01*
X196329726Y-79251898D01*
X196369332Y-79247997D01*
X196393601Y-79240635D01*
X197182237Y-79101577D01*
X197460758Y-145482501D01*
X169950138Y-145482501D01*
X170003123Y-137884407D01*
X177203664Y-137884407D01*
X177203664Y-138088285D01*
X177243438Y-138288244D01*
X177321459Y-138476602D01*
X177434727Y-138646120D01*
X177578890Y-138790283D01*
X177748408Y-138903551D01*
X177936766Y-138981572D01*
X178136725Y-139021346D01*
X178340001Y-139021346D01*
X178340001Y-141182668D01*
X178336324Y-141220000D01*
X178350998Y-141368985D01*
X178394454Y-141512246D01*
X178465026Y-141644276D01*
X178518133Y-141708986D01*
X178560000Y-141760001D01*
X178588998Y-141783799D01*
X179938790Y-143133592D01*
X179895000Y-143353740D01*
X179895000Y-143646260D01*
X179952068Y-143933158D01*
X180064010Y-144203411D01*
X180226525Y-144446632D01*
X180433368Y-144653475D01*
X180676589Y-144815990D01*
X180946842Y-144927932D01*
X181233740Y-144985000D01*
X181526260Y-144985000D01*
X181813158Y-144927932D01*
X182083411Y-144815990D01*
X182326632Y-144653475D01*
X182533475Y-144446632D01*
X182655195Y-144264466D01*
X182724822Y-144381355D01*
X182919731Y-144597588D01*
X183153080Y-144771641D01*
X183415901Y-144896825D01*
X183563110Y-144941476D01*
X183793000Y-144820155D01*
X183793000Y-143627000D01*
X183773000Y-143627000D01*
X183773000Y-143373000D01*
X183793000Y-143373000D01*
X183793000Y-142179845D01*
X183563110Y-142058524D01*
X183415901Y-142103175D01*
X183153080Y-142228359D01*
X182919731Y-142402412D01*
X182724822Y-142618645D01*
X182655195Y-142735534D01*
X182533475Y-142553368D01*
X182326632Y-142346525D01*
X182083411Y-142184010D01*
X181813158Y-142072068D01*
X181526260Y-142015000D01*
X181233740Y-142015000D01*
X181013592Y-142058790D01*
X179860000Y-140905199D01*
X179860000Y-137750000D01*
X181601638Y-137750000D01*
X181605001Y-137784145D01*
X181605000Y-140815865D01*
X181601638Y-140850000D01*
X181615057Y-140986244D01*
X181654798Y-141117252D01*
X181719333Y-141237989D01*
X181806183Y-141343817D01*
X181888065Y-141411015D01*
X181912011Y-141430667D01*
X182032748Y-141495202D01*
X182163756Y-141534943D01*
X182300000Y-141548362D01*
X182334134Y-141545000D01*
X185865866Y-141545000D01*
X185900000Y-141548362D01*
X186036244Y-141534943D01*
X186167252Y-141495202D01*
X186287989Y-141430667D01*
X186393817Y-141343817D01*
X186480667Y-141237989D01*
X186545202Y-141117252D01*
X186584943Y-140986244D01*
X186595000Y-140884135D01*
X186595000Y-140884134D01*
X186598362Y-140850000D01*
X186595000Y-140815865D01*
X186595000Y-137784135D01*
X186598362Y-137750000D01*
X186584943Y-137613756D01*
X186545202Y-137482748D01*
X186480667Y-137362011D01*
X186393817Y-137256183D01*
X186287989Y-137169333D01*
X186167252Y-137104798D01*
X186036244Y-137065057D01*
X185934135Y-137055000D01*
X185934134Y-137055000D01*
X185900000Y-137051638D01*
X185865865Y-137055000D01*
X182334135Y-137055000D01*
X182300000Y-137051638D01*
X182265866Y-137055000D01*
X182265865Y-137055000D01*
X182163756Y-137065057D01*
X182032748Y-137104798D01*
X181912011Y-137169333D01*
X181806183Y-137256183D01*
X181719333Y-137362011D01*
X181654798Y-137482748D01*
X181615057Y-137613756D01*
X181601638Y-137750000D01*
X179860000Y-137750000D01*
X179860000Y-134335331D01*
X182328090Y-134335331D01*
X182328090Y-134664669D01*
X182392340Y-134987678D01*
X182518372Y-135291947D01*
X182701342Y-135565781D01*
X182934219Y-135798658D01*
X183208053Y-135981628D01*
X183512322Y-136107660D01*
X183835331Y-136171910D01*
X184164669Y-136171910D01*
X184487678Y-136107660D01*
X184791947Y-135981628D01*
X185065781Y-135798658D01*
X185298658Y-135565781D01*
X185481628Y-135291947D01*
X185607660Y-134987678D01*
X185671910Y-134664669D01*
X185671910Y-134335331D01*
X185607660Y-134012322D01*
X185481628Y-133708053D01*
X185298658Y-133434219D01*
X185065781Y-133201342D01*
X184791947Y-133018372D01*
X184487678Y-132892340D01*
X184164669Y-132828090D01*
X183835331Y-132828090D01*
X183512322Y-132892340D01*
X183208053Y-133018372D01*
X182934219Y-133201342D01*
X182701342Y-133434219D01*
X182518372Y-133708053D01*
X182392340Y-134012322D01*
X182328090Y-134335331D01*
X179860000Y-134335331D01*
X179860000Y-131074801D01*
X179971928Y-130962873D01*
X179971928Y-131050000D01*
X179984188Y-131174482D01*
X180020498Y-131294180D01*
X180079463Y-131404494D01*
X180158815Y-131501185D01*
X180255506Y-131580537D01*
X180365820Y-131639502D01*
X180485518Y-131675812D01*
X180610000Y-131688072D01*
X182310000Y-131688072D01*
X182434482Y-131675812D01*
X182554180Y-131639502D01*
X182664494Y-131580537D01*
X182730000Y-131526778D01*
X182795506Y-131580537D01*
X182905820Y-131639502D01*
X183025518Y-131675812D01*
X183150000Y-131688072D01*
X183714250Y-131685000D01*
X183873000Y-131526250D01*
X183873000Y-127073750D01*
X183714250Y-126915000D01*
X183150000Y-126911928D01*
X183025518Y-126924188D01*
X182905820Y-126960498D01*
X182795506Y-127019463D01*
X182730000Y-127073222D01*
X182664494Y-127019463D01*
X182554180Y-126960498D01*
X182434482Y-126924188D01*
X182310000Y-126911928D01*
X180610000Y-126911928D01*
X180485518Y-126924188D01*
X180365820Y-126960498D01*
X180255506Y-127019463D01*
X180158815Y-127098815D01*
X180079463Y-127195506D01*
X180020498Y-127305820D01*
X179984188Y-127425518D01*
X179971928Y-127550000D01*
X179971928Y-128813270D01*
X178998664Y-129786535D01*
X178998664Y-123576137D01*
X185339802Y-117235000D01*
X185401939Y-117235000D01*
X185601898Y-117195226D01*
X185790256Y-117117205D01*
X185959774Y-117003937D01*
X186103937Y-116859774D01*
X186217205Y-116690256D01*
X186295226Y-116501898D01*
X186335000Y-116301939D01*
X186335000Y-116098061D01*
X186295226Y-115898102D01*
X186217205Y-115709744D01*
X186103937Y-115540226D01*
X185959774Y-115396063D01*
X185790256Y-115282795D01*
X185601898Y-115204774D01*
X185401939Y-115165000D01*
X185198061Y-115165000D01*
X184998102Y-115204774D01*
X184809744Y-115282795D01*
X184640226Y-115396063D01*
X184496063Y-115540226D01*
X184382795Y-115709744D01*
X184304774Y-115898102D01*
X184265000Y-116098061D01*
X184265000Y-116160198D01*
X177727667Y-122697532D01*
X177698663Y-122721335D01*
X177643535Y-122788510D01*
X177603690Y-122837060D01*
X177533119Y-122969089D01*
X177533118Y-122969090D01*
X177489661Y-123112351D01*
X177478664Y-123224004D01*
X177478664Y-123224014D01*
X177474988Y-123261336D01*
X177478664Y-123298658D01*
X177478665Y-137282634D01*
X177434727Y-137326572D01*
X177321459Y-137496090D01*
X177243438Y-137684448D01*
X177203664Y-137884407D01*
X170003123Y-137884407D01*
X170097156Y-124400000D01*
X171821928Y-124400000D01*
X171834188Y-124524482D01*
X171870498Y-124644180D01*
X171929463Y-124754494D01*
X171983222Y-124820000D01*
X171929463Y-124885506D01*
X171870498Y-124995820D01*
X171834188Y-125115518D01*
X171821928Y-125240000D01*
X171821928Y-126940000D01*
X171834188Y-127064482D01*
X171870498Y-127184180D01*
X171929463Y-127294494D01*
X171983222Y-127360000D01*
X171929463Y-127425506D01*
X171870498Y-127535820D01*
X171834188Y-127655518D01*
X171821928Y-127780000D01*
X171821928Y-129480000D01*
X171834188Y-129604482D01*
X171870498Y-129724180D01*
X171929463Y-129834494D01*
X172008815Y-129931185D01*
X172105506Y-130010537D01*
X172215820Y-130069502D01*
X172335518Y-130105812D01*
X172460000Y-130118072D01*
X175960000Y-130118072D01*
X176084482Y-130105812D01*
X176204180Y-130069502D01*
X176314494Y-130010537D01*
X176411185Y-129931185D01*
X176490537Y-129834494D01*
X176549502Y-129724180D01*
X176585812Y-129604482D01*
X176598072Y-129480000D01*
X176598072Y-127780000D01*
X176585812Y-127655518D01*
X176549502Y-127535820D01*
X176490537Y-127425506D01*
X176436778Y-127360000D01*
X176490537Y-127294494D01*
X176549502Y-127184180D01*
X176585812Y-127064482D01*
X176598072Y-126940000D01*
X176598072Y-125240000D01*
X176585812Y-125115518D01*
X176549502Y-124995820D01*
X176490537Y-124885506D01*
X176436778Y-124820000D01*
X176490537Y-124754494D01*
X176549502Y-124644180D01*
X176585812Y-124524482D01*
X176598072Y-124400000D01*
X176595000Y-123835750D01*
X176436250Y-123677000D01*
X171983750Y-123677000D01*
X171825000Y-123835750D01*
X171821928Y-124400000D01*
X170097156Y-124400000D01*
X170142573Y-117887226D01*
X171821928Y-116207872D01*
X171821928Y-116780000D01*
X171834188Y-116904482D01*
X171870498Y-117024180D01*
X171929463Y-117134494D01*
X171983222Y-117200000D01*
X171929463Y-117265506D01*
X171870498Y-117375820D01*
X171834188Y-117495518D01*
X171821928Y-117620000D01*
X171821928Y-119320000D01*
X171834188Y-119444482D01*
X171870498Y-119564180D01*
X171929463Y-119674494D01*
X171983222Y-119740000D01*
X171929463Y-119805506D01*
X171870498Y-119915820D01*
X171834188Y-120035518D01*
X171821928Y-120160000D01*
X171821928Y-121860000D01*
X171834188Y-121984482D01*
X171870498Y-122104180D01*
X171929463Y-122214494D01*
X171983222Y-122280000D01*
X171929463Y-122345506D01*
X171870498Y-122455820D01*
X171834188Y-122575518D01*
X171821928Y-122700000D01*
X171825000Y-123264250D01*
X171983750Y-123423000D01*
X176436250Y-123423000D01*
X176595000Y-123264250D01*
X176598072Y-122700000D01*
X176585812Y-122575518D01*
X176549502Y-122455820D01*
X176490537Y-122345506D01*
X176436778Y-122280000D01*
X176490537Y-122214494D01*
X176549502Y-122104180D01*
X176585812Y-121984482D01*
X176598072Y-121860000D01*
X176598072Y-120160000D01*
X176585812Y-120035518D01*
X176549502Y-119915820D01*
X176490537Y-119805506D01*
X176436778Y-119740000D01*
X176490537Y-119674494D01*
X176549502Y-119564180D01*
X176585812Y-119444482D01*
X176598072Y-119320000D01*
X176598072Y-117620000D01*
X176585812Y-117495518D01*
X176549502Y-117375820D01*
X176490537Y-117265506D01*
X176436778Y-117200000D01*
X176490537Y-117134494D01*
X176549502Y-117024180D01*
X176585812Y-116904482D01*
X176598072Y-116780000D01*
X176598072Y-115080000D01*
X176585812Y-114955518D01*
X176549502Y-114835820D01*
X176490537Y-114725506D01*
X176436778Y-114660000D01*
X176490537Y-114594494D01*
X176549502Y-114484180D01*
X176585812Y-114364482D01*
X176598072Y-114240000D01*
X176598072Y-112540000D01*
X176585812Y-112415518D01*
X176549502Y-112295820D01*
X176490537Y-112185506D01*
X176436778Y-112120000D01*
X176490537Y-112054494D01*
X176549502Y-111944180D01*
X176585812Y-111824482D01*
X176598072Y-111700000D01*
X176595000Y-111135750D01*
X176436250Y-110977000D01*
X174063000Y-110977000D01*
X174063000Y-110723000D01*
X176436250Y-110723000D01*
X176595000Y-110564250D01*
X176598072Y-110000000D01*
X176585812Y-109875518D01*
X176549502Y-109755820D01*
X176490537Y-109645506D01*
X176436778Y-109580000D01*
X176490537Y-109514494D01*
X176549502Y-109404180D01*
X176585812Y-109284482D01*
X176598072Y-109160000D01*
X176598072Y-107460000D01*
X176585812Y-107335518D01*
X176549502Y-107215820D01*
X176490537Y-107105506D01*
X176436778Y-107040000D01*
X176490537Y-106974494D01*
X176549502Y-106864180D01*
X176585812Y-106744482D01*
X176598072Y-106620000D01*
X176598072Y-104920000D01*
X176585812Y-104795518D01*
X176549502Y-104675820D01*
X176490537Y-104565506D01*
X176436778Y-104500000D01*
X176490537Y-104434494D01*
X176549502Y-104324180D01*
X176585812Y-104204482D01*
X176598072Y-104080000D01*
X176598072Y-102380000D01*
X176585812Y-102255518D01*
X176549502Y-102135820D01*
X176490537Y-102025506D01*
X176436778Y-101960000D01*
X176490537Y-101894494D01*
X176549502Y-101784180D01*
X176585812Y-101664482D01*
X176598072Y-101540000D01*
X176598072Y-99840000D01*
X176585812Y-99715518D01*
X176549502Y-99595820D01*
X176490537Y-99485506D01*
X176436778Y-99420000D01*
X176490537Y-99354494D01*
X176549502Y-99244180D01*
X176585812Y-99124482D01*
X176598072Y-99000000D01*
X176595000Y-98435750D01*
X176436250Y-98277000D01*
X171983750Y-98277000D01*
X171825000Y-98435750D01*
X171821928Y-99000000D01*
X171834188Y-99124482D01*
X171870498Y-99244180D01*
X171929463Y-99354494D01*
X171983222Y-99420000D01*
X171929463Y-99485506D01*
X171870498Y-99595820D01*
X171834188Y-99715518D01*
X171821928Y-99840000D01*
X171821928Y-101540000D01*
X171834188Y-101664482D01*
X171870498Y-101784180D01*
X171929463Y-101894494D01*
X171983222Y-101960000D01*
X171929463Y-102025506D01*
X171870498Y-102135820D01*
X171834188Y-102255518D01*
X171821928Y-102380000D01*
X171821928Y-104080000D01*
X171834188Y-104204482D01*
X171870498Y-104324180D01*
X171929463Y-104434494D01*
X171983222Y-104500000D01*
X171929463Y-104565506D01*
X171870498Y-104675820D01*
X171834188Y-104795518D01*
X171821928Y-104920000D01*
X171821928Y-106620000D01*
X171834188Y-106744482D01*
X171870498Y-106864180D01*
X171929463Y-106974494D01*
X171983222Y-107040000D01*
X171929463Y-107105506D01*
X171870498Y-107215820D01*
X171834188Y-107335518D01*
X171821928Y-107460000D01*
X171821928Y-108978268D01*
X170193343Y-110606853D01*
X170362846Y-86300000D01*
X171821928Y-86300000D01*
X171834188Y-86424482D01*
X171870498Y-86544180D01*
X171929463Y-86654494D01*
X171983222Y-86720000D01*
X171929463Y-86785506D01*
X171870498Y-86895820D01*
X171834188Y-87015518D01*
X171821928Y-87140000D01*
X171821928Y-88840000D01*
X171834188Y-88964482D01*
X171870498Y-89084180D01*
X171929463Y-89194494D01*
X171983222Y-89260000D01*
X171929463Y-89325506D01*
X171870498Y-89435820D01*
X171834188Y-89555518D01*
X171821928Y-89680000D01*
X171821928Y-91380000D01*
X171834188Y-91504482D01*
X171870498Y-91624180D01*
X171929463Y-91734494D01*
X171983222Y-91800000D01*
X171929463Y-91865506D01*
X171870498Y-91975820D01*
X171834188Y-92095518D01*
X171821928Y-92220000D01*
X171821928Y-93920000D01*
X171834188Y-94044482D01*
X171870498Y-94164180D01*
X171929463Y-94274494D01*
X171983222Y-94340000D01*
X171929463Y-94405506D01*
X171870498Y-94515820D01*
X171834188Y-94635518D01*
X171821928Y-94760000D01*
X171821928Y-96460000D01*
X171834188Y-96584482D01*
X171870498Y-96704180D01*
X171929463Y-96814494D01*
X171983222Y-96880000D01*
X171929463Y-96945506D01*
X171870498Y-97055820D01*
X171834188Y-97175518D01*
X171821928Y-97300000D01*
X171825000Y-97864250D01*
X171983750Y-98023000D01*
X176436250Y-98023000D01*
X176595000Y-97864250D01*
X176598072Y-97300000D01*
X176585812Y-97175518D01*
X176549502Y-97055820D01*
X176490537Y-96945506D01*
X176436778Y-96880000D01*
X176490537Y-96814494D01*
X176549502Y-96704180D01*
X176585812Y-96584482D01*
X176598072Y-96460000D01*
X176598072Y-94760000D01*
X176585812Y-94635518D01*
X176549502Y-94515820D01*
X176490537Y-94405506D01*
X176436778Y-94340000D01*
X176490537Y-94274494D01*
X176549502Y-94164180D01*
X176585812Y-94044482D01*
X176598072Y-93920000D01*
X176598072Y-92220000D01*
X176585812Y-92095518D01*
X176549502Y-91975820D01*
X176490537Y-91865506D01*
X176436778Y-91800000D01*
X176490537Y-91734494D01*
X176549502Y-91624180D01*
X176585812Y-91504482D01*
X176598072Y-91380000D01*
X176598072Y-89680000D01*
X176585812Y-89555518D01*
X176549502Y-89435820D01*
X176490537Y-89325506D01*
X176436778Y-89260000D01*
X176490537Y-89194494D01*
X176549502Y-89084180D01*
X176585812Y-88964482D01*
X176598072Y-88840000D01*
X176598072Y-87140000D01*
X176585812Y-87015518D01*
X176549502Y-86895820D01*
X176490537Y-86785506D01*
X176436778Y-86720000D01*
X176490537Y-86654494D01*
X176549502Y-86544180D01*
X176585812Y-86424482D01*
X176598072Y-86300000D01*
X176595000Y-85735750D01*
X176436250Y-85577000D01*
X171983750Y-85577000D01*
X171825000Y-85735750D01*
X171821928Y-86300000D01*
X170362846Y-86300000D01*
X170413542Y-79030302D01*
X171606399Y-79240635D01*
%TA.AperFunction,Conductor*%
D20*
G36*
X171606399Y-79240635D02*
G01*
X171630668Y-79247997D01*
X171670274Y-79251898D01*
X171677370Y-79253149D01*
X171702499Y-79255072D01*
X171727632Y-79257547D01*
X171734852Y-79257547D01*
X171774519Y-79260582D01*
X171799690Y-79257547D01*
X171880265Y-79257547D01*
X171870498Y-79275820D01*
X171834188Y-79395518D01*
X171821928Y-79520000D01*
X171821928Y-81220000D01*
X171834188Y-81344482D01*
X171870498Y-81464180D01*
X171929463Y-81574494D01*
X171983222Y-81640000D01*
X171929463Y-81705506D01*
X171870498Y-81815820D01*
X171834188Y-81935518D01*
X171821928Y-82060000D01*
X171821928Y-83760000D01*
X171834188Y-83884482D01*
X171870498Y-84004180D01*
X171929463Y-84114494D01*
X171983222Y-84180000D01*
X171929463Y-84245506D01*
X171870498Y-84355820D01*
X171834188Y-84475518D01*
X171821928Y-84600000D01*
X171825000Y-85164250D01*
X171983750Y-85323000D01*
X176436250Y-85323000D01*
X176595000Y-85164250D01*
X176598072Y-84600000D01*
X176585812Y-84475518D01*
X176549502Y-84355820D01*
X176490537Y-84245506D01*
X176436778Y-84180000D01*
X176490537Y-84114494D01*
X176549502Y-84004180D01*
X176585812Y-83884482D01*
X176598072Y-83760000D01*
X176598072Y-83393589D01*
X180190000Y-83393589D01*
X180190000Y-83666411D01*
X180243225Y-83933989D01*
X180347629Y-84186043D01*
X180499201Y-84412886D01*
X180692114Y-84605799D01*
X180918957Y-84757371D01*
X181171011Y-84861775D01*
X181438589Y-84915000D01*
X181711411Y-84915000D01*
X181978989Y-84861775D01*
X182231043Y-84757371D01*
X182457886Y-84605799D01*
X182650799Y-84412886D01*
X182802371Y-84186043D01*
X182906775Y-83933989D01*
X182960000Y-83666411D01*
X182960000Y-83393589D01*
X185040000Y-83393589D01*
X185040000Y-83666411D01*
X185093225Y-83933989D01*
X185197629Y-84186043D01*
X185349201Y-84412886D01*
X185542114Y-84605799D01*
X185768957Y-84757371D01*
X186021011Y-84861775D01*
X186288589Y-84915000D01*
X186561411Y-84915000D01*
X186828989Y-84861775D01*
X187081043Y-84757371D01*
X187307886Y-84605799D01*
X187500799Y-84412886D01*
X187652371Y-84186043D01*
X187756775Y-83933989D01*
X187810000Y-83666411D01*
X187810000Y-83393589D01*
X187756775Y-83126011D01*
X187652371Y-82873957D01*
X187500799Y-82647114D01*
X187307886Y-82454201D01*
X187081043Y-82302629D01*
X186828989Y-82198225D01*
X186561411Y-82145000D01*
X186288589Y-82145000D01*
X186021011Y-82198225D01*
X185768957Y-82302629D01*
X185542114Y-82454201D01*
X185349201Y-82647114D01*
X185197629Y-82873957D01*
X185093225Y-83126011D01*
X185040000Y-83393589D01*
X182960000Y-83393589D01*
X182906775Y-83126011D01*
X182802371Y-82873957D01*
X182650799Y-82647114D01*
X182457886Y-82454201D01*
X182231043Y-82302629D01*
X181978989Y-82198225D01*
X181711411Y-82145000D01*
X181438589Y-82145000D01*
X181171011Y-82198225D01*
X180918957Y-82302629D01*
X180692114Y-82454201D01*
X180499201Y-82647114D01*
X180347629Y-82873957D01*
X180243225Y-83126011D01*
X180190000Y-83393589D01*
X176598072Y-83393589D01*
X176598072Y-82060000D01*
X176585812Y-81935518D01*
X176549502Y-81815820D01*
X176490537Y-81705506D01*
X176436778Y-81640000D01*
X176490537Y-81574494D01*
X176549502Y-81464180D01*
X176585812Y-81344482D01*
X176598072Y-81220000D01*
X176598072Y-79520000D01*
X176585812Y-79395518D01*
X176549502Y-79275820D01*
X176539735Y-79257547D01*
X180371536Y-79257547D01*
X180296495Y-79307688D01*
X180082688Y-79521495D01*
X179914701Y-79772905D01*
X179798989Y-80052257D01*
X179740000Y-80348816D01*
X179740000Y-80651184D01*
X179798989Y-80947743D01*
X179914701Y-81227095D01*
X180082688Y-81478505D01*
X180296495Y-81692312D01*
X180547905Y-81860299D01*
X180827257Y-81976011D01*
X181123816Y-82035000D01*
X181426184Y-82035000D01*
X181722743Y-81976011D01*
X182002095Y-81860299D01*
X182253505Y-81692312D01*
X182467312Y-81478505D01*
X182635299Y-81227095D01*
X182751011Y-80947743D01*
X182810000Y-80651184D01*
X182810000Y-80348816D01*
X182751011Y-80052257D01*
X182635299Y-79772905D01*
X182467312Y-79521495D01*
X182253505Y-79307688D01*
X182178464Y-79257547D01*
X185821536Y-79257547D01*
X185746495Y-79307688D01*
X185532688Y-79521495D01*
X185364701Y-79772905D01*
X185248989Y-80052257D01*
X185190000Y-80348816D01*
X185190000Y-80651184D01*
X185248989Y-80947743D01*
X185364701Y-81227095D01*
X185532688Y-81478505D01*
X185746495Y-81692312D01*
X185997905Y-81860299D01*
X186277257Y-81976011D01*
X186573816Y-82035000D01*
X186876184Y-82035000D01*
X187172743Y-81976011D01*
X187452095Y-81860299D01*
X187703505Y-81692312D01*
X187917312Y-81478505D01*
X188085299Y-81227095D01*
X188201011Y-80947743D01*
X188260000Y-80651184D01*
X188260000Y-80348816D01*
X188201011Y-80052257D01*
X188085299Y-79772905D01*
X187917312Y-79521495D01*
X187703505Y-79307688D01*
X187628464Y-79257547D01*
X191460265Y-79257547D01*
X191450498Y-79275820D01*
X191414188Y-79395518D01*
X191401928Y-79520000D01*
X191401928Y-80932202D01*
X188938574Y-83395557D01*
X188906710Y-83421707D01*
X188825907Y-83520166D01*
X188802364Y-83548853D01*
X188724828Y-83693912D01*
X188677082Y-83851310D01*
X188660960Y-84014998D01*
X188665001Y-84056027D01*
X188665000Y-129450198D01*
X188028072Y-128813270D01*
X188028072Y-127550000D01*
X188015812Y-127425518D01*
X187979502Y-127305820D01*
X187920537Y-127195506D01*
X187841185Y-127098815D01*
X187744494Y-127019463D01*
X187634180Y-126960498D01*
X187514482Y-126924188D01*
X187390000Y-126911928D01*
X185690000Y-126911928D01*
X185565518Y-126924188D01*
X185445820Y-126960498D01*
X185335506Y-127019463D01*
X185270000Y-127073222D01*
X185204494Y-127019463D01*
X185094180Y-126960498D01*
X184974482Y-126924188D01*
X184850000Y-126911928D01*
X184285750Y-126915000D01*
X184127000Y-127073750D01*
X184127000Y-131526250D01*
X184285750Y-131685000D01*
X184850000Y-131688072D01*
X184974482Y-131675812D01*
X185094180Y-131639502D01*
X185204494Y-131580537D01*
X185270000Y-131526778D01*
X185335506Y-131580537D01*
X185445820Y-131639502D01*
X185565518Y-131675812D01*
X185690000Y-131688072D01*
X187390000Y-131688072D01*
X187514482Y-131675812D01*
X187634180Y-131639502D01*
X187640000Y-131636391D01*
X187640001Y-141245197D01*
X186826408Y-142058791D01*
X186606260Y-142015000D01*
X186313740Y-142015000D01*
X186026842Y-142072068D01*
X185756589Y-142184010D01*
X185513368Y-142346525D01*
X185306525Y-142553368D01*
X185184805Y-142735534D01*
X185115178Y-142618645D01*
X184920269Y-142402412D01*
X184686920Y-142228359D01*
X184424099Y-142103175D01*
X184276890Y-142058524D01*
X184047000Y-142179845D01*
X184047000Y-143373000D01*
X184067000Y-143373000D01*
X184067000Y-143627000D01*
X184047000Y-143627000D01*
X184047000Y-144820155D01*
X184276890Y-144941476D01*
X184424099Y-144896825D01*
X184686920Y-144771641D01*
X184920269Y-144597588D01*
X185115178Y-144381355D01*
X185184805Y-144264466D01*
X185306525Y-144446632D01*
X185513368Y-144653475D01*
X185756589Y-144815990D01*
X186026842Y-144927932D01*
X186313740Y-144985000D01*
X186606260Y-144985000D01*
X186893158Y-144927932D01*
X187163411Y-144815990D01*
X187406632Y-144653475D01*
X187538487Y-144521620D01*
X187560498Y-144594180D01*
X187619463Y-144704494D01*
X187698815Y-144801185D01*
X187795506Y-144880537D01*
X187905820Y-144939502D01*
X188025518Y-144975812D01*
X188150000Y-144988072D01*
X189850000Y-144988072D01*
X189974482Y-144975812D01*
X190094180Y-144939502D01*
X190204494Y-144880537D01*
X190301185Y-144801185D01*
X190380537Y-144704494D01*
X190439502Y-144594180D01*
X190475812Y-144474482D01*
X190488072Y-144350000D01*
X190488072Y-143192796D01*
X191011423Y-142669446D01*
X191043282Y-142643300D01*
X191147627Y-142516155D01*
X191225163Y-142371096D01*
X191272909Y-142213698D01*
X191284991Y-142091028D01*
X191289031Y-142050009D01*
X191284991Y-142008991D01*
X191284991Y-124400000D01*
X191401928Y-124400000D01*
X191414188Y-124524482D01*
X191450498Y-124644180D01*
X191509463Y-124754494D01*
X191563222Y-124820000D01*
X191509463Y-124885506D01*
X191450498Y-124995820D01*
X191414188Y-125115518D01*
X191401928Y-125240000D01*
X191401928Y-126940000D01*
X191414188Y-127064482D01*
X191450498Y-127184180D01*
X191509463Y-127294494D01*
X191563222Y-127360000D01*
X191509463Y-127425506D01*
X191450498Y-127535820D01*
X191414188Y-127655518D01*
X191401928Y-127780000D01*
X191401928Y-129480000D01*
X191414188Y-129604482D01*
X191450498Y-129724180D01*
X191509463Y-129834494D01*
X191588815Y-129931185D01*
X191685506Y-130010537D01*
X191795820Y-130069502D01*
X191915518Y-130105812D01*
X192040000Y-130118072D01*
X195540000Y-130118072D01*
X195664482Y-130105812D01*
X195784180Y-130069502D01*
X195894494Y-130010537D01*
X195991185Y-129931185D01*
X196070537Y-129834494D01*
X196129502Y-129724180D01*
X196165812Y-129604482D01*
X196178072Y-129480000D01*
X196178072Y-127780000D01*
X196165812Y-127655518D01*
X196129502Y-127535820D01*
X196070537Y-127425506D01*
X196016778Y-127360000D01*
X196070537Y-127294494D01*
X196129502Y-127184180D01*
X196165812Y-127064482D01*
X196178072Y-126940000D01*
X196178072Y-125240000D01*
X196165812Y-125115518D01*
X196129502Y-124995820D01*
X196070537Y-124885506D01*
X196016778Y-124820000D01*
X196070537Y-124754494D01*
X196129502Y-124644180D01*
X196165812Y-124524482D01*
X196178072Y-124400000D01*
X196175000Y-123835750D01*
X196016250Y-123677000D01*
X191563750Y-123677000D01*
X191405000Y-123835750D01*
X191401928Y-124400000D01*
X191284991Y-124400000D01*
X191284991Y-111700000D01*
X191401928Y-111700000D01*
X191414188Y-111824482D01*
X191450498Y-111944180D01*
X191509463Y-112054494D01*
X191563222Y-112120000D01*
X191509463Y-112185506D01*
X191450498Y-112295820D01*
X191414188Y-112415518D01*
X191401928Y-112540000D01*
X191401928Y-114240000D01*
X191414188Y-114364482D01*
X191450498Y-114484180D01*
X191509463Y-114594494D01*
X191563222Y-114660000D01*
X191509463Y-114725506D01*
X191450498Y-114835820D01*
X191414188Y-114955518D01*
X191401928Y-115080000D01*
X191401928Y-116780000D01*
X191414188Y-116904482D01*
X191450498Y-117024180D01*
X191509463Y-117134494D01*
X191563222Y-117200000D01*
X191509463Y-117265506D01*
X191450498Y-117375820D01*
X191414188Y-117495518D01*
X191401928Y-117620000D01*
X191401928Y-119320000D01*
X191414188Y-119444482D01*
X191450498Y-119564180D01*
X191509463Y-119674494D01*
X191563222Y-119740000D01*
X191509463Y-119805506D01*
X191450498Y-119915820D01*
X191414188Y-120035518D01*
X191401928Y-120160000D01*
X191401928Y-121860000D01*
X191414188Y-121984482D01*
X191450498Y-122104180D01*
X191509463Y-122214494D01*
X191563222Y-122280000D01*
X191509463Y-122345506D01*
X191450498Y-122455820D01*
X191414188Y-122575518D01*
X191401928Y-122700000D01*
X191405000Y-123264250D01*
X191563750Y-123423000D01*
X196016250Y-123423000D01*
X196175000Y-123264250D01*
X196178072Y-122700000D01*
X196165812Y-122575518D01*
X196129502Y-122455820D01*
X196070537Y-122345506D01*
X196016778Y-122280000D01*
X196070537Y-122214494D01*
X196129502Y-122104180D01*
X196165812Y-121984482D01*
X196178072Y-121860000D01*
X196178072Y-120160000D01*
X196165812Y-120035518D01*
X196129502Y-119915820D01*
X196070537Y-119805506D01*
X196016778Y-119740000D01*
X196070537Y-119674494D01*
X196129502Y-119564180D01*
X196165812Y-119444482D01*
X196178072Y-119320000D01*
X196178072Y-117620000D01*
X196165812Y-117495518D01*
X196129502Y-117375820D01*
X196070537Y-117265506D01*
X196016778Y-117200000D01*
X196070537Y-117134494D01*
X196129502Y-117024180D01*
X196165812Y-116904482D01*
X196178072Y-116780000D01*
X196178072Y-115080000D01*
X196165812Y-114955518D01*
X196129502Y-114835820D01*
X196070537Y-114725506D01*
X196016778Y-114660000D01*
X196070537Y-114594494D01*
X196129502Y-114484180D01*
X196165812Y-114364482D01*
X196178072Y-114240000D01*
X196178072Y-112540000D01*
X196165812Y-112415518D01*
X196129502Y-112295820D01*
X196070537Y-112185506D01*
X196016778Y-112120000D01*
X196070537Y-112054494D01*
X196129502Y-111944180D01*
X196165812Y-111824482D01*
X196178072Y-111700000D01*
X196175000Y-111135750D01*
X196016250Y-110977000D01*
X191563750Y-110977000D01*
X191405000Y-111135750D01*
X191401928Y-111700000D01*
X191284991Y-111700000D01*
X191284991Y-99000000D01*
X191401928Y-99000000D01*
X191414188Y-99124482D01*
X191450498Y-99244180D01*
X191509463Y-99354494D01*
X191563222Y-99420000D01*
X191509463Y-99485506D01*
X191450498Y-99595820D01*
X191414188Y-99715518D01*
X191401928Y-99840000D01*
X191401928Y-101540000D01*
X191414188Y-101664482D01*
X191450498Y-101784180D01*
X191509463Y-101894494D01*
X191563222Y-101960000D01*
X191509463Y-102025506D01*
X191450498Y-102135820D01*
X191414188Y-102255518D01*
X191401928Y-102380000D01*
X191401928Y-104080000D01*
X191414188Y-104204482D01*
X191450498Y-104324180D01*
X191509463Y-104434494D01*
X191563222Y-104500000D01*
X191509463Y-104565506D01*
X191450498Y-104675820D01*
X191414188Y-104795518D01*
X191401928Y-104920000D01*
X191401928Y-106620000D01*
X191414188Y-106744482D01*
X191450498Y-106864180D01*
X191509463Y-106974494D01*
X191563222Y-107040000D01*
X191509463Y-107105506D01*
X191450498Y-107215820D01*
X191414188Y-107335518D01*
X191401928Y-107460000D01*
X191401928Y-109160000D01*
X191414188Y-109284482D01*
X191450498Y-109404180D01*
X191509463Y-109514494D01*
X191563222Y-109580000D01*
X191509463Y-109645506D01*
X191450498Y-109755820D01*
X191414188Y-109875518D01*
X191401928Y-110000000D01*
X191405000Y-110564250D01*
X191563750Y-110723000D01*
X196016250Y-110723000D01*
X196175000Y-110564250D01*
X196178072Y-110000000D01*
X196165812Y-109875518D01*
X196129502Y-109755820D01*
X196070537Y-109645506D01*
X196016778Y-109580000D01*
X196070537Y-109514494D01*
X196129502Y-109404180D01*
X196165812Y-109284482D01*
X196178072Y-109160000D01*
X196178072Y-107460000D01*
X196165812Y-107335518D01*
X196129502Y-107215820D01*
X196070537Y-107105506D01*
X196016778Y-107040000D01*
X196070537Y-106974494D01*
X196129502Y-106864180D01*
X196165812Y-106744482D01*
X196178072Y-106620000D01*
X196178072Y-104920000D01*
X196165812Y-104795518D01*
X196129502Y-104675820D01*
X196070537Y-104565506D01*
X196016778Y-104500000D01*
X196070537Y-104434494D01*
X196129502Y-104324180D01*
X196165812Y-104204482D01*
X196178072Y-104080000D01*
X196178072Y-102380000D01*
X196165812Y-102255518D01*
X196129502Y-102135820D01*
X196070537Y-102025506D01*
X196016778Y-101960000D01*
X196070537Y-101894494D01*
X196129502Y-101784180D01*
X196165812Y-101664482D01*
X196178072Y-101540000D01*
X196178072Y-99840000D01*
X196165812Y-99715518D01*
X196129502Y-99595820D01*
X196070537Y-99485506D01*
X196016778Y-99420000D01*
X196070537Y-99354494D01*
X196129502Y-99244180D01*
X196165812Y-99124482D01*
X196178072Y-99000000D01*
X196175000Y-98435750D01*
X196016250Y-98277000D01*
X191563750Y-98277000D01*
X191405000Y-98435750D01*
X191401928Y-99000000D01*
X191284991Y-99000000D01*
X191284991Y-85695876D01*
X191401928Y-85578939D01*
X191401928Y-86300000D01*
X191414188Y-86424482D01*
X191450498Y-86544180D01*
X191509463Y-86654494D01*
X191563222Y-86720000D01*
X191509463Y-86785506D01*
X191450498Y-86895820D01*
X191414188Y-87015518D01*
X191401928Y-87140000D01*
X191401928Y-88840000D01*
X191414188Y-88964482D01*
X191450498Y-89084180D01*
X191509463Y-89194494D01*
X191563222Y-89260000D01*
X191509463Y-89325506D01*
X191450498Y-89435820D01*
X191414188Y-89555518D01*
X191401928Y-89680000D01*
X191401928Y-91380000D01*
X191414188Y-91504482D01*
X191450498Y-91624180D01*
X191509463Y-91734494D01*
X191563222Y-91800000D01*
X191509463Y-91865506D01*
X191450498Y-91975820D01*
X191414188Y-92095518D01*
X191401928Y-92220000D01*
X191401928Y-93920000D01*
X191414188Y-94044482D01*
X191450498Y-94164180D01*
X191509463Y-94274494D01*
X191563222Y-94340000D01*
X191509463Y-94405506D01*
X191450498Y-94515820D01*
X191414188Y-94635518D01*
X191401928Y-94760000D01*
X191401928Y-96460000D01*
X191414188Y-96584482D01*
X191450498Y-96704180D01*
X191509463Y-96814494D01*
X191563222Y-96880000D01*
X191509463Y-96945506D01*
X191450498Y-97055820D01*
X191414188Y-97175518D01*
X191401928Y-97300000D01*
X191405000Y-97864250D01*
X191563750Y-98023000D01*
X196016250Y-98023000D01*
X196175000Y-97864250D01*
X196178072Y-97300000D01*
X196165812Y-97175518D01*
X196129502Y-97055820D01*
X196070537Y-96945506D01*
X196016778Y-96880000D01*
X196070537Y-96814494D01*
X196129502Y-96704180D01*
X196165812Y-96584482D01*
X196178072Y-96460000D01*
X196178072Y-94760000D01*
X196165812Y-94635518D01*
X196129502Y-94515820D01*
X196070537Y-94405506D01*
X196016778Y-94340000D01*
X196070537Y-94274494D01*
X196129502Y-94164180D01*
X196165812Y-94044482D01*
X196178072Y-93920000D01*
X196178072Y-92220000D01*
X196165812Y-92095518D01*
X196129502Y-91975820D01*
X196070537Y-91865506D01*
X196016778Y-91800000D01*
X196070537Y-91734494D01*
X196129502Y-91624180D01*
X196165812Y-91504482D01*
X196178072Y-91380000D01*
X196178072Y-89680000D01*
X196165812Y-89555518D01*
X196129502Y-89435820D01*
X196070537Y-89325506D01*
X196016778Y-89260000D01*
X196070537Y-89194494D01*
X196129502Y-89084180D01*
X196165812Y-88964482D01*
X196178072Y-88840000D01*
X196178072Y-87140000D01*
X196165812Y-87015518D01*
X196129502Y-86895820D01*
X196070537Y-86785506D01*
X196016778Y-86720000D01*
X196070537Y-86654494D01*
X196129502Y-86544180D01*
X196165812Y-86424482D01*
X196178072Y-86300000D01*
X196178072Y-84600000D01*
X196165812Y-84475518D01*
X196129502Y-84355820D01*
X196070537Y-84245506D01*
X196016778Y-84180000D01*
X196070537Y-84114494D01*
X196129502Y-84004180D01*
X196165812Y-83884482D01*
X196178072Y-83760000D01*
X196178072Y-82060000D01*
X196165812Y-81935518D01*
X196129502Y-81815820D01*
X196070537Y-81705506D01*
X196016778Y-81640000D01*
X196070537Y-81574494D01*
X196129502Y-81464180D01*
X196165812Y-81344482D01*
X196178072Y-81220000D01*
X196178072Y-79520000D01*
X196165812Y-79395518D01*
X196129502Y-79275820D01*
X196119735Y-79257547D01*
X196200311Y-79257547D01*
X196225482Y-79260582D01*
X196265149Y-79257547D01*
X196272368Y-79257547D01*
X196297500Y-79255072D01*
X196322630Y-79253149D01*
X196329726Y-79251898D01*
X196369332Y-79247997D01*
X196393601Y-79240635D01*
X197182237Y-79101577D01*
X197460758Y-145482501D01*
X169950138Y-145482501D01*
X170003123Y-137884407D01*
X177203664Y-137884407D01*
X177203664Y-138088285D01*
X177243438Y-138288244D01*
X177321459Y-138476602D01*
X177434727Y-138646120D01*
X177578890Y-138790283D01*
X177748408Y-138903551D01*
X177936766Y-138981572D01*
X178136725Y-139021346D01*
X178340001Y-139021346D01*
X178340001Y-141182668D01*
X178336324Y-141220000D01*
X178350998Y-141368985D01*
X178394454Y-141512246D01*
X178465026Y-141644276D01*
X178518133Y-141708986D01*
X178560000Y-141760001D01*
X178588998Y-141783799D01*
X179938790Y-143133592D01*
X179895000Y-143353740D01*
X179895000Y-143646260D01*
X179952068Y-143933158D01*
X180064010Y-144203411D01*
X180226525Y-144446632D01*
X180433368Y-144653475D01*
X180676589Y-144815990D01*
X180946842Y-144927932D01*
X181233740Y-144985000D01*
X181526260Y-144985000D01*
X181813158Y-144927932D01*
X182083411Y-144815990D01*
X182326632Y-144653475D01*
X182533475Y-144446632D01*
X182655195Y-144264466D01*
X182724822Y-144381355D01*
X182919731Y-144597588D01*
X183153080Y-144771641D01*
X183415901Y-144896825D01*
X183563110Y-144941476D01*
X183793000Y-144820155D01*
X183793000Y-143627000D01*
X183773000Y-143627000D01*
X183773000Y-143373000D01*
X183793000Y-143373000D01*
X183793000Y-142179845D01*
X183563110Y-142058524D01*
X183415901Y-142103175D01*
X183153080Y-142228359D01*
X182919731Y-142402412D01*
X182724822Y-142618645D01*
X182655195Y-142735534D01*
X182533475Y-142553368D01*
X182326632Y-142346525D01*
X182083411Y-142184010D01*
X181813158Y-142072068D01*
X181526260Y-142015000D01*
X181233740Y-142015000D01*
X181013592Y-142058790D01*
X179860000Y-140905199D01*
X179860000Y-137750000D01*
X181601638Y-137750000D01*
X181605001Y-137784145D01*
X181605000Y-140815865D01*
X181601638Y-140850000D01*
X181615057Y-140986244D01*
X181654798Y-141117252D01*
X181719333Y-141237989D01*
X181806183Y-141343817D01*
X181888065Y-141411015D01*
X181912011Y-141430667D01*
X182032748Y-141495202D01*
X182163756Y-141534943D01*
X182300000Y-141548362D01*
X182334134Y-141545000D01*
X185865866Y-141545000D01*
X185900000Y-141548362D01*
X186036244Y-141534943D01*
X186167252Y-141495202D01*
X186287989Y-141430667D01*
X186393817Y-141343817D01*
X186480667Y-141237989D01*
X186545202Y-141117252D01*
X186584943Y-140986244D01*
X186595000Y-140884135D01*
X186595000Y-140884134D01*
X186598362Y-140850000D01*
X186595000Y-140815865D01*
X186595000Y-137784135D01*
X186598362Y-137750000D01*
X186584943Y-137613756D01*
X186545202Y-137482748D01*
X186480667Y-137362011D01*
X186393817Y-137256183D01*
X186287989Y-137169333D01*
X186167252Y-137104798D01*
X186036244Y-137065057D01*
X185934135Y-137055000D01*
X185934134Y-137055000D01*
X185900000Y-137051638D01*
X185865865Y-137055000D01*
X182334135Y-137055000D01*
X182300000Y-137051638D01*
X182265866Y-137055000D01*
X182265865Y-137055000D01*
X182163756Y-137065057D01*
X182032748Y-137104798D01*
X181912011Y-137169333D01*
X181806183Y-137256183D01*
X181719333Y-137362011D01*
X181654798Y-137482748D01*
X181615057Y-137613756D01*
X181601638Y-137750000D01*
X179860000Y-137750000D01*
X179860000Y-134335331D01*
X182328090Y-134335331D01*
X182328090Y-134664669D01*
X182392340Y-134987678D01*
X182518372Y-135291947D01*
X182701342Y-135565781D01*
X182934219Y-135798658D01*
X183208053Y-135981628D01*
X183512322Y-136107660D01*
X183835331Y-136171910D01*
X184164669Y-136171910D01*
X184487678Y-136107660D01*
X184791947Y-135981628D01*
X185065781Y-135798658D01*
X185298658Y-135565781D01*
X185481628Y-135291947D01*
X185607660Y-134987678D01*
X185671910Y-134664669D01*
X185671910Y-134335331D01*
X185607660Y-134012322D01*
X185481628Y-133708053D01*
X185298658Y-133434219D01*
X185065781Y-133201342D01*
X184791947Y-133018372D01*
X184487678Y-132892340D01*
X184164669Y-132828090D01*
X183835331Y-132828090D01*
X183512322Y-132892340D01*
X183208053Y-133018372D01*
X182934219Y-133201342D01*
X182701342Y-133434219D01*
X182518372Y-133708053D01*
X182392340Y-134012322D01*
X182328090Y-134335331D01*
X179860000Y-134335331D01*
X179860000Y-131074801D01*
X179971928Y-130962873D01*
X179971928Y-131050000D01*
X179984188Y-131174482D01*
X180020498Y-131294180D01*
X180079463Y-131404494D01*
X180158815Y-131501185D01*
X180255506Y-131580537D01*
X180365820Y-131639502D01*
X180485518Y-131675812D01*
X180610000Y-131688072D01*
X182310000Y-131688072D01*
X182434482Y-131675812D01*
X182554180Y-131639502D01*
X182664494Y-131580537D01*
X182730000Y-131526778D01*
X182795506Y-131580537D01*
X182905820Y-131639502D01*
X183025518Y-131675812D01*
X183150000Y-131688072D01*
X183714250Y-131685000D01*
X183873000Y-131526250D01*
X183873000Y-127073750D01*
X183714250Y-126915000D01*
X183150000Y-126911928D01*
X183025518Y-126924188D01*
X182905820Y-126960498D01*
X182795506Y-127019463D01*
X182730000Y-127073222D01*
X182664494Y-127019463D01*
X182554180Y-126960498D01*
X182434482Y-126924188D01*
X182310000Y-126911928D01*
X180610000Y-126911928D01*
X180485518Y-126924188D01*
X180365820Y-126960498D01*
X180255506Y-127019463D01*
X180158815Y-127098815D01*
X180079463Y-127195506D01*
X180020498Y-127305820D01*
X179984188Y-127425518D01*
X179971928Y-127550000D01*
X179971928Y-128813270D01*
X178998664Y-129786535D01*
X178998664Y-123576137D01*
X185339802Y-117235000D01*
X185401939Y-117235000D01*
X185601898Y-117195226D01*
X185790256Y-117117205D01*
X185959774Y-117003937D01*
X186103937Y-116859774D01*
X186217205Y-116690256D01*
X186295226Y-116501898D01*
X186335000Y-116301939D01*
X186335000Y-116098061D01*
X186295226Y-115898102D01*
X186217205Y-115709744D01*
X186103937Y-115540226D01*
X185959774Y-115396063D01*
X185790256Y-115282795D01*
X185601898Y-115204774D01*
X185401939Y-115165000D01*
X185198061Y-115165000D01*
X184998102Y-115204774D01*
X184809744Y-115282795D01*
X184640226Y-115396063D01*
X184496063Y-115540226D01*
X184382795Y-115709744D01*
X184304774Y-115898102D01*
X184265000Y-116098061D01*
X184265000Y-116160198D01*
X177727667Y-122697532D01*
X177698663Y-122721335D01*
X177643535Y-122788510D01*
X177603690Y-122837060D01*
X177533119Y-122969089D01*
X177533118Y-122969090D01*
X177489661Y-123112351D01*
X177478664Y-123224004D01*
X177478664Y-123224014D01*
X177474988Y-123261336D01*
X177478664Y-123298658D01*
X177478665Y-137282634D01*
X177434727Y-137326572D01*
X177321459Y-137496090D01*
X177243438Y-137684448D01*
X177203664Y-137884407D01*
X170003123Y-137884407D01*
X170097156Y-124400000D01*
X171821928Y-124400000D01*
X171834188Y-124524482D01*
X171870498Y-124644180D01*
X171929463Y-124754494D01*
X171983222Y-124820000D01*
X171929463Y-124885506D01*
X171870498Y-124995820D01*
X171834188Y-125115518D01*
X171821928Y-125240000D01*
X171821928Y-126940000D01*
X171834188Y-127064482D01*
X171870498Y-127184180D01*
X171929463Y-127294494D01*
X171983222Y-127360000D01*
X171929463Y-127425506D01*
X171870498Y-127535820D01*
X171834188Y-127655518D01*
X171821928Y-127780000D01*
X171821928Y-129480000D01*
X171834188Y-129604482D01*
X171870498Y-129724180D01*
X171929463Y-129834494D01*
X172008815Y-129931185D01*
X172105506Y-130010537D01*
X172215820Y-130069502D01*
X172335518Y-130105812D01*
X172460000Y-130118072D01*
X175960000Y-130118072D01*
X176084482Y-130105812D01*
X176204180Y-130069502D01*
X176314494Y-130010537D01*
X176411185Y-129931185D01*
X176490537Y-129834494D01*
X176549502Y-129724180D01*
X176585812Y-129604482D01*
X176598072Y-129480000D01*
X176598072Y-127780000D01*
X176585812Y-127655518D01*
X176549502Y-127535820D01*
X176490537Y-127425506D01*
X176436778Y-127360000D01*
X176490537Y-127294494D01*
X176549502Y-127184180D01*
X176585812Y-127064482D01*
X176598072Y-126940000D01*
X176598072Y-125240000D01*
X176585812Y-125115518D01*
X176549502Y-124995820D01*
X176490537Y-124885506D01*
X176436778Y-124820000D01*
X176490537Y-124754494D01*
X176549502Y-124644180D01*
X176585812Y-124524482D01*
X176598072Y-124400000D01*
X176595000Y-123835750D01*
X176436250Y-123677000D01*
X171983750Y-123677000D01*
X171825000Y-123835750D01*
X171821928Y-124400000D01*
X170097156Y-124400000D01*
X170142573Y-117887226D01*
X171821928Y-116207872D01*
X171821928Y-116780000D01*
X171834188Y-116904482D01*
X171870498Y-117024180D01*
X171929463Y-117134494D01*
X171983222Y-117200000D01*
X171929463Y-117265506D01*
X171870498Y-117375820D01*
X171834188Y-117495518D01*
X171821928Y-117620000D01*
X171821928Y-119320000D01*
X171834188Y-119444482D01*
X171870498Y-119564180D01*
X171929463Y-119674494D01*
X171983222Y-119740000D01*
X171929463Y-119805506D01*
X171870498Y-119915820D01*
X171834188Y-120035518D01*
X171821928Y-120160000D01*
X171821928Y-121860000D01*
X171834188Y-121984482D01*
X171870498Y-122104180D01*
X171929463Y-122214494D01*
X171983222Y-122280000D01*
X171929463Y-122345506D01*
X171870498Y-122455820D01*
X171834188Y-122575518D01*
X171821928Y-122700000D01*
X171825000Y-123264250D01*
X171983750Y-123423000D01*
X176436250Y-123423000D01*
X176595000Y-123264250D01*
X176598072Y-122700000D01*
X176585812Y-122575518D01*
X176549502Y-122455820D01*
X176490537Y-122345506D01*
X176436778Y-122280000D01*
X176490537Y-122214494D01*
X176549502Y-122104180D01*
X176585812Y-121984482D01*
X176598072Y-121860000D01*
X176598072Y-120160000D01*
X176585812Y-120035518D01*
X176549502Y-119915820D01*
X176490537Y-119805506D01*
X176436778Y-119740000D01*
X176490537Y-119674494D01*
X176549502Y-119564180D01*
X176585812Y-119444482D01*
X176598072Y-119320000D01*
X176598072Y-117620000D01*
X176585812Y-117495518D01*
X176549502Y-117375820D01*
X176490537Y-117265506D01*
X176436778Y-117200000D01*
X176490537Y-117134494D01*
X176549502Y-117024180D01*
X176585812Y-116904482D01*
X176598072Y-116780000D01*
X176598072Y-115080000D01*
X176585812Y-114955518D01*
X176549502Y-114835820D01*
X176490537Y-114725506D01*
X176436778Y-114660000D01*
X176490537Y-114594494D01*
X176549502Y-114484180D01*
X176585812Y-114364482D01*
X176598072Y-114240000D01*
X176598072Y-112540000D01*
X176585812Y-112415518D01*
X176549502Y-112295820D01*
X176490537Y-112185506D01*
X176436778Y-112120000D01*
X176490537Y-112054494D01*
X176549502Y-111944180D01*
X176585812Y-111824482D01*
X176598072Y-111700000D01*
X176595000Y-111135750D01*
X176436250Y-110977000D01*
X174063000Y-110977000D01*
X174063000Y-110723000D01*
X176436250Y-110723000D01*
X176595000Y-110564250D01*
X176598072Y-110000000D01*
X176585812Y-109875518D01*
X176549502Y-109755820D01*
X176490537Y-109645506D01*
X176436778Y-109580000D01*
X176490537Y-109514494D01*
X176549502Y-109404180D01*
X176585812Y-109284482D01*
X176598072Y-109160000D01*
X176598072Y-107460000D01*
X176585812Y-107335518D01*
X176549502Y-107215820D01*
X176490537Y-107105506D01*
X176436778Y-107040000D01*
X176490537Y-106974494D01*
X176549502Y-106864180D01*
X176585812Y-106744482D01*
X176598072Y-106620000D01*
X176598072Y-104920000D01*
X176585812Y-104795518D01*
X176549502Y-104675820D01*
X176490537Y-104565506D01*
X176436778Y-104500000D01*
X176490537Y-104434494D01*
X176549502Y-104324180D01*
X176585812Y-104204482D01*
X176598072Y-104080000D01*
X176598072Y-102380000D01*
X176585812Y-102255518D01*
X176549502Y-102135820D01*
X176490537Y-102025506D01*
X176436778Y-101960000D01*
X176490537Y-101894494D01*
X176549502Y-101784180D01*
X176585812Y-101664482D01*
X176598072Y-101540000D01*
X176598072Y-99840000D01*
X176585812Y-99715518D01*
X176549502Y-99595820D01*
X176490537Y-99485506D01*
X176436778Y-99420000D01*
X176490537Y-99354494D01*
X176549502Y-99244180D01*
X176585812Y-99124482D01*
X176598072Y-99000000D01*
X176595000Y-98435750D01*
X176436250Y-98277000D01*
X171983750Y-98277000D01*
X171825000Y-98435750D01*
X171821928Y-99000000D01*
X171834188Y-99124482D01*
X171870498Y-99244180D01*
X171929463Y-99354494D01*
X171983222Y-99420000D01*
X171929463Y-99485506D01*
X171870498Y-99595820D01*
X171834188Y-99715518D01*
X171821928Y-99840000D01*
X171821928Y-101540000D01*
X171834188Y-101664482D01*
X171870498Y-101784180D01*
X171929463Y-101894494D01*
X171983222Y-101960000D01*
X171929463Y-102025506D01*
X171870498Y-102135820D01*
X171834188Y-102255518D01*
X171821928Y-102380000D01*
X171821928Y-104080000D01*
X171834188Y-104204482D01*
X171870498Y-104324180D01*
X171929463Y-104434494D01*
X171983222Y-104500000D01*
X171929463Y-104565506D01*
X171870498Y-104675820D01*
X171834188Y-104795518D01*
X171821928Y-104920000D01*
X171821928Y-106620000D01*
X171834188Y-106744482D01*
X171870498Y-106864180D01*
X171929463Y-106974494D01*
X171983222Y-107040000D01*
X171929463Y-107105506D01*
X171870498Y-107215820D01*
X171834188Y-107335518D01*
X171821928Y-107460000D01*
X171821928Y-108978268D01*
X170193343Y-110606853D01*
X170362846Y-86300000D01*
X171821928Y-86300000D01*
X171834188Y-86424482D01*
X171870498Y-86544180D01*
X171929463Y-86654494D01*
X171983222Y-86720000D01*
X171929463Y-86785506D01*
X171870498Y-86895820D01*
X171834188Y-87015518D01*
X171821928Y-87140000D01*
X171821928Y-88840000D01*
X171834188Y-88964482D01*
X171870498Y-89084180D01*
X171929463Y-89194494D01*
X171983222Y-89260000D01*
X171929463Y-89325506D01*
X171870498Y-89435820D01*
X171834188Y-89555518D01*
X171821928Y-89680000D01*
X171821928Y-91380000D01*
X171834188Y-91504482D01*
X171870498Y-91624180D01*
X171929463Y-91734494D01*
X171983222Y-91800000D01*
X171929463Y-91865506D01*
X171870498Y-91975820D01*
X171834188Y-92095518D01*
X171821928Y-92220000D01*
X171821928Y-93920000D01*
X171834188Y-94044482D01*
X171870498Y-94164180D01*
X171929463Y-94274494D01*
X171983222Y-94340000D01*
X171929463Y-94405506D01*
X171870498Y-94515820D01*
X171834188Y-94635518D01*
X171821928Y-94760000D01*
X171821928Y-96460000D01*
X171834188Y-96584482D01*
X171870498Y-96704180D01*
X171929463Y-96814494D01*
X171983222Y-96880000D01*
X171929463Y-96945506D01*
X171870498Y-97055820D01*
X171834188Y-97175518D01*
X171821928Y-97300000D01*
X171825000Y-97864250D01*
X171983750Y-98023000D01*
X176436250Y-98023000D01*
X176595000Y-97864250D01*
X176598072Y-97300000D01*
X176585812Y-97175518D01*
X176549502Y-97055820D01*
X176490537Y-96945506D01*
X176436778Y-96880000D01*
X176490537Y-96814494D01*
X176549502Y-96704180D01*
X176585812Y-96584482D01*
X176598072Y-96460000D01*
X176598072Y-94760000D01*
X176585812Y-94635518D01*
X176549502Y-94515820D01*
X176490537Y-94405506D01*
X176436778Y-94340000D01*
X176490537Y-94274494D01*
X176549502Y-94164180D01*
X176585812Y-94044482D01*
X176598072Y-93920000D01*
X176598072Y-92220000D01*
X176585812Y-92095518D01*
X176549502Y-91975820D01*
X176490537Y-91865506D01*
X176436778Y-91800000D01*
X176490537Y-91734494D01*
X176549502Y-91624180D01*
X176585812Y-91504482D01*
X176598072Y-91380000D01*
X176598072Y-89680000D01*
X176585812Y-89555518D01*
X176549502Y-89435820D01*
X176490537Y-89325506D01*
X176436778Y-89260000D01*
X176490537Y-89194494D01*
X176549502Y-89084180D01*
X176585812Y-88964482D01*
X176598072Y-88840000D01*
X176598072Y-87140000D01*
X176585812Y-87015518D01*
X176549502Y-86895820D01*
X176490537Y-86785506D01*
X176436778Y-86720000D01*
X176490537Y-86654494D01*
X176549502Y-86544180D01*
X176585812Y-86424482D01*
X176598072Y-86300000D01*
X176595000Y-85735750D01*
X176436250Y-85577000D01*
X171983750Y-85577000D01*
X171825000Y-85735750D01*
X171821928Y-86300000D01*
X170362846Y-86300000D01*
X170413542Y-79030302D01*
X171606399Y-79240635D01*
G37*
%TD.AperFunction*%
%TD*%
M02*
