%TF.GenerationSoftware,KiCad,Pcbnew,(5.1.10-1-10_14)*%
%TF.CreationDate,2021-09-19T11:37:43+09:00*%
%TF.ProjectId,Vpico,56706963-6f2e-46b6-9963-61645f706362,rev?*%
%TF.SameCoordinates,Original*%
%TF.FileFunction,Paste,Bot*%
%TF.FilePolarity,Positive*%
%FSLAX46Y46*%
G04 Gerber Fmt 4.6, Leading zero omitted, Abs format (unit mm)*
G04 Created by KiCad (PCBNEW (5.1.10-1-10_14)) date 2021-09-19 11:37:43*
%MOMM*%
%LPD*%
G01*
G04 APERTURE LIST*
%ADD10R,1.700000X1.000000*%
%ADD11C,0.100000*%
G04 APERTURE END LIST*
D10*
%TO.C,LED1*%
X186850000Y-138600000D03*
X186850000Y-140000000D03*
X181350000Y-138600000D03*
X181350000Y-140000000D03*
%TD*%
D11*
%TO.C,D30*%
G36*
X279339094Y-114513172D02*
G01*
X278157325Y-114721549D01*
X278001042Y-113835222D01*
X279182811Y-113626845D01*
X279339094Y-114513172D01*
G37*
G36*
X279912132Y-117763038D02*
G01*
X278730363Y-117971415D01*
X278574080Y-117085088D01*
X279755849Y-116876711D01*
X279912132Y-117763038D01*
G37*
%TD*%
%TO.C,D24*%
G36*
X132102584Y-122680824D02*
G01*
X130920815Y-122472447D01*
X131077098Y-121586120D01*
X132258867Y-121794497D01*
X132102584Y-122680824D01*
G37*
G36*
X131529546Y-125930690D02*
G01*
X130347777Y-125722313D01*
X130504060Y-124835986D01*
X131685829Y-125044363D01*
X131529546Y-125930690D01*
G37*
%TD*%
%TO.C,D26*%
G36*
X207448128Y-127189489D02*
G01*
X206266359Y-127397866D01*
X206110076Y-126511539D01*
X207291845Y-126303162D01*
X207448128Y-127189489D01*
G37*
G36*
X208021166Y-130439355D02*
G01*
X206839397Y-130647732D01*
X206683114Y-129761405D01*
X207864883Y-129553028D01*
X208021166Y-130439355D01*
G37*
%TD*%
%TO.C,D34*%
G36*
X126571979Y-133890748D02*
G01*
X125390210Y-133682371D01*
X125546493Y-132796044D01*
X126728262Y-133004421D01*
X126571979Y-133890748D01*
G37*
G36*
X125998941Y-137140614D02*
G01*
X124817172Y-136932237D01*
X124973455Y-136045910D01*
X126155224Y-136254287D01*
X125998941Y-137140614D01*
G37*
%TD*%
%TO.C,D40*%
G36*
X278036822Y-127283316D02*
G01*
X276855053Y-127491693D01*
X276698770Y-126605366D01*
X277880539Y-126396989D01*
X278036822Y-127283316D01*
G37*
G36*
X278609860Y-130533182D02*
G01*
X277428091Y-130741559D01*
X277271808Y-129855232D01*
X278453577Y-129646855D01*
X278609860Y-130533182D01*
G37*
%TD*%
%TO.C,D39*%
G36*
X260336330Y-130556704D02*
G01*
X259154561Y-130765081D01*
X258998278Y-129878754D01*
X260180047Y-129670377D01*
X260336330Y-130556704D01*
G37*
G36*
X260909368Y-133806570D02*
G01*
X259727599Y-134014947D01*
X259571316Y-133128620D01*
X260753085Y-132920243D01*
X260909368Y-133806570D01*
G37*
%TD*%
%TO.C,D38*%
G36*
X242635837Y-133830093D02*
G01*
X241454068Y-134038470D01*
X241297785Y-133152143D01*
X242479554Y-132943766D01*
X242635837Y-133830093D01*
G37*
G36*
X243208875Y-137079959D02*
G01*
X242027106Y-137288336D01*
X241870823Y-136402009D01*
X243052592Y-136193632D01*
X243208875Y-137079959D01*
G37*
%TD*%
%TO.C,D37*%
G36*
X224883251Y-136808039D02*
G01*
X223701482Y-137016416D01*
X223545199Y-136130089D01*
X224726968Y-135921712D01*
X224883251Y-136808039D01*
G37*
G36*
X225456289Y-140057905D02*
G01*
X224274520Y-140266282D01*
X224118237Y-139379955D01*
X225300006Y-139171578D01*
X225456289Y-140057905D01*
G37*
%TD*%
%TO.C,D36*%
G36*
X202725076Y-140715123D02*
G01*
X201543307Y-140923500D01*
X201387024Y-140037173D01*
X202568793Y-139828796D01*
X202725076Y-140715123D01*
G37*
G36*
X203298114Y-143964989D02*
G01*
X202116345Y-144173366D01*
X201960062Y-143287039D01*
X203141831Y-143078662D01*
X203298114Y-143964989D01*
G37*
%TD*%
%TO.C,D35*%
G36*
X147745345Y-137624184D02*
G01*
X146563576Y-137415807D01*
X146719859Y-136529480D01*
X147901628Y-136737857D01*
X147745345Y-137624184D01*
G37*
G36*
X147172307Y-140874050D02*
G01*
X145990538Y-140665673D01*
X146146821Y-139779346D01*
X147328590Y-139987723D01*
X147172307Y-140874050D01*
G37*
%TD*%
%TO.C,D33*%
G36*
X108845439Y-130765081D02*
G01*
X107663670Y-130556704D01*
X107819953Y-129670377D01*
X109001722Y-129878754D01*
X108845439Y-130765081D01*
G37*
G36*
X108272401Y-134014947D02*
G01*
X107090632Y-133806570D01*
X107246915Y-132920243D01*
X108428684Y-133128620D01*
X108272401Y-134014947D01*
G37*
%TD*%
%TO.C,D32*%
G36*
X91118900Y-127639414D02*
G01*
X89937131Y-127431037D01*
X90093414Y-126544710D01*
X91275183Y-126753087D01*
X91118900Y-127639414D01*
G37*
G36*
X90545862Y-130889280D02*
G01*
X89364093Y-130680903D01*
X89520376Y-129794576D01*
X90702145Y-130002953D01*
X90545862Y-130889280D01*
G37*
%TD*%
%TO.C,D31*%
G36*
X87672073Y-127031645D02*
G01*
X86490304Y-126823268D01*
X86646587Y-125936941D01*
X87828356Y-126145318D01*
X87672073Y-127031645D01*
G37*
G36*
X87099035Y-130281511D02*
G01*
X85917266Y-130073134D01*
X86073549Y-129186807D01*
X87255318Y-129395184D01*
X87099035Y-130281511D01*
G37*
%TD*%
%TO.C,D29*%
G36*
X261612555Y-117638839D02*
G01*
X260430786Y-117847216D01*
X260274503Y-116960889D01*
X261456272Y-116752512D01*
X261612555Y-117638839D01*
G37*
G36*
X262185593Y-120888705D02*
G01*
X261003824Y-121097082D01*
X260847541Y-120210755D01*
X262029310Y-120002378D01*
X262185593Y-120888705D01*
G37*
%TD*%
%TO.C,D28*%
G36*
X243886015Y-120764506D02*
G01*
X242704246Y-120972883D01*
X242547963Y-120086556D01*
X243729732Y-119878179D01*
X243886015Y-120764506D01*
G37*
G36*
X244459053Y-124014372D02*
G01*
X243277284Y-124222749D01*
X243121001Y-123336422D01*
X244302770Y-123128045D01*
X244459053Y-124014372D01*
G37*
%TD*%
%TO.C,D27*%
G36*
X226159476Y-123890173D02*
G01*
X224977707Y-124098550D01*
X224821424Y-123212223D01*
X226003193Y-123003846D01*
X226159476Y-123890173D01*
G37*
G36*
X226732514Y-127140039D02*
G01*
X225550745Y-127348416D01*
X225394462Y-126462089D01*
X226576231Y-126253712D01*
X226732514Y-127140039D01*
G37*
%TD*%
%TO.C,D25*%
G36*
X149915948Y-125314087D02*
G01*
X148734179Y-125105710D01*
X148890462Y-124219383D01*
X150072231Y-124427760D01*
X149915948Y-125314087D01*
G37*
G36*
X149342910Y-128563953D02*
G01*
X148161141Y-128355576D01*
X148317424Y-127469249D01*
X149499193Y-127677626D01*
X149342910Y-128563953D01*
G37*
%TD*%
%TO.C,D23*%
G36*
X114462869Y-119062753D02*
G01*
X113281100Y-118854376D01*
X113437383Y-117968049D01*
X114619152Y-118176426D01*
X114462869Y-119062753D01*
G37*
G36*
X113889831Y-122312619D02*
G01*
X112708062Y-122104242D01*
X112864345Y-121217915D01*
X114046114Y-121426292D01*
X113889831Y-122312619D01*
G37*
%TD*%
%TO.C,D22*%
G36*
X96736329Y-115937086D02*
G01*
X95554560Y-115728709D01*
X95710843Y-114842382D01*
X96892612Y-115050759D01*
X96736329Y-115937086D01*
G37*
G36*
X96163291Y-119186952D02*
G01*
X94981522Y-118978575D01*
X95137805Y-118092248D01*
X96319574Y-118300625D01*
X96163291Y-119186952D01*
G37*
%TD*%
%TO.C,D21*%
G36*
X90827483Y-114895197D02*
G01*
X89645714Y-114686820D01*
X89801997Y-113800493D01*
X90983766Y-114008870D01*
X90827483Y-114895197D01*
G37*
G36*
X90254445Y-118145063D02*
G01*
X89072676Y-117936686D01*
X89228959Y-117050359D01*
X90410728Y-117258736D01*
X90254445Y-118145063D01*
G37*
%TD*%
%TO.C,D20*%
G36*
X276387075Y-97771440D02*
G01*
X275205306Y-97979817D01*
X275049023Y-97093490D01*
X276230792Y-96885113D01*
X276387075Y-97771440D01*
G37*
G36*
X276960113Y-101021306D02*
G01*
X275778344Y-101229683D01*
X275622061Y-100343356D01*
X276803830Y-100134979D01*
X276960113Y-101021306D01*
G37*
%TD*%
%TO.C,D19*%
G36*
X258168132Y-100983931D02*
G01*
X256986363Y-101192308D01*
X256830080Y-100305981D01*
X258011849Y-100097604D01*
X258168132Y-100983931D01*
G37*
G36*
X258741170Y-104233797D02*
G01*
X257559401Y-104442174D01*
X257403118Y-103555847D01*
X258584887Y-103347470D01*
X258741170Y-104233797D01*
G37*
%TD*%
%TO.C,D18*%
G36*
X240933996Y-104022774D02*
G01*
X239752227Y-104231151D01*
X239595944Y-103344824D01*
X240777713Y-103136447D01*
X240933996Y-104022774D01*
G37*
G36*
X241507034Y-107272640D02*
G01*
X240325265Y-107481017D01*
X240168982Y-106594690D01*
X241350751Y-106386313D01*
X241507034Y-107272640D01*
G37*
%TD*%
%TO.C,D17*%
G36*
X223207457Y-107148441D02*
G01*
X222025688Y-107356818D01*
X221869405Y-106470491D01*
X223051174Y-106262114D01*
X223207457Y-107148441D01*
G37*
G36*
X223780495Y-110398307D02*
G01*
X222598726Y-110606684D01*
X222442443Y-109720357D01*
X223624212Y-109511980D01*
X223780495Y-110398307D01*
G37*
%TD*%
%TO.C,D16*%
G36*
X205480917Y-110274109D02*
G01*
X204299148Y-110482486D01*
X204142865Y-109596159D01*
X205324634Y-109387782D01*
X205480917Y-110274109D01*
G37*
G36*
X206053955Y-113523975D02*
G01*
X204872186Y-113732352D01*
X204715903Y-112846025D01*
X205897672Y-112637648D01*
X206053955Y-113523975D01*
G37*
%TD*%
%TO.C,D15*%
G36*
X152867967Y-108572356D02*
G01*
X151686198Y-108363979D01*
X151842481Y-107477652D01*
X153024250Y-107686029D01*
X152867967Y-108572356D01*
G37*
G36*
X152294929Y-111822222D02*
G01*
X151113160Y-111613845D01*
X151269443Y-110727518D01*
X152451212Y-110935895D01*
X152294929Y-111822222D01*
G37*
%TD*%
%TO.C,D14*%
G36*
X135141427Y-105446688D02*
G01*
X133959658Y-105238311D01*
X134115941Y-104351984D01*
X135297710Y-104560361D01*
X135141427Y-105446688D01*
G37*
G36*
X134568389Y-108696554D02*
G01*
X133386620Y-108488177D01*
X133542903Y-107601850D01*
X134724672Y-107810227D01*
X134568389Y-108696554D01*
G37*
%TD*%
%TO.C,D13*%
G36*
X117414888Y-102321021D02*
G01*
X116233119Y-102112644D01*
X116389402Y-101226317D01*
X117571171Y-101434694D01*
X117414888Y-102321021D01*
G37*
G36*
X116841850Y-105570887D02*
G01*
X115660081Y-105362510D01*
X115816364Y-104476183D01*
X116998133Y-104684560D01*
X116841850Y-105570887D01*
G37*
%TD*%
%TO.C,D12*%
G36*
X99688348Y-99195354D02*
G01*
X98506579Y-98986977D01*
X98662862Y-98100650D01*
X99844631Y-98309027D01*
X99688348Y-99195354D01*
G37*
G36*
X99115310Y-102445220D02*
G01*
X97933541Y-102236843D01*
X98089824Y-101350516D01*
X99271593Y-101558893D01*
X99115310Y-102445220D01*
G37*
%TD*%
%TO.C,D11*%
G36*
X93779502Y-98153465D02*
G01*
X92597733Y-97945088D01*
X92754016Y-97058761D01*
X93935785Y-97267138D01*
X93779502Y-98153465D01*
G37*
G36*
X93206464Y-101403331D02*
G01*
X92024695Y-101194954D01*
X92180978Y-100308627D01*
X93362747Y-100517004D01*
X93206464Y-101403331D01*
G37*
%TD*%
%TO.C,D10*%
G36*
X273409009Y-80881987D02*
G01*
X272227240Y-81090364D01*
X272070957Y-80204037D01*
X273252726Y-79995660D01*
X273409009Y-80881987D01*
G37*
G36*
X273982047Y-84131853D02*
G01*
X272800278Y-84340230D01*
X272643995Y-83453903D01*
X273825764Y-83245526D01*
X273982047Y-84131853D01*
G37*
%TD*%
%TO.C,D9*%
G36*
X255242160Y-84389920D02*
G01*
X254060391Y-84598297D01*
X253904108Y-83711970D01*
X255085877Y-83503593D01*
X255242160Y-84389920D01*
G37*
G36*
X255815198Y-87639786D02*
G01*
X254633429Y-87848163D01*
X254477146Y-86961836D01*
X255658915Y-86753459D01*
X255815198Y-87639786D01*
G37*
%TD*%
%TO.C,D8*%
G36*
X237981977Y-87281042D02*
G01*
X236800208Y-87489419D01*
X236643925Y-86603092D01*
X237825694Y-86394715D01*
X237981977Y-87281042D01*
G37*
G36*
X238555015Y-90530908D02*
G01*
X237373246Y-90739285D01*
X237216963Y-89852958D01*
X238398732Y-89644581D01*
X238555015Y-90530908D01*
G37*
%TD*%
%TO.C,D7*%
G36*
X220255438Y-90406710D02*
G01*
X219073669Y-90615087D01*
X218917386Y-89728760D01*
X220099155Y-89520383D01*
X220255438Y-90406710D01*
G37*
G36*
X220828476Y-93656576D02*
G01*
X219646707Y-93864953D01*
X219490424Y-92978626D01*
X220672193Y-92770249D01*
X220828476Y-93656576D01*
G37*
%TD*%
%TO.C,D6*%
G36*
X202528898Y-93532377D02*
G01*
X201347129Y-93740754D01*
X201190846Y-92854427D01*
X202372615Y-92646050D01*
X202528898Y-93532377D01*
G37*
G36*
X203101936Y-96782243D02*
G01*
X201920167Y-96990620D01*
X201763884Y-96104293D01*
X202945653Y-95895916D01*
X203101936Y-96782243D01*
G37*
%TD*%
%TO.C,D5*%
G36*
X155819986Y-91830624D02*
G01*
X154638217Y-91622247D01*
X154794500Y-90735920D01*
X155976269Y-90944297D01*
X155819986Y-91830624D01*
G37*
G36*
X155246948Y-95080490D02*
G01*
X154065179Y-94872113D01*
X154221462Y-93985786D01*
X155403231Y-94194163D01*
X155246948Y-95080490D01*
G37*
%TD*%
%TO.C,D4*%
G36*
X138093446Y-88704957D02*
G01*
X136911677Y-88496580D01*
X137067960Y-87610253D01*
X138249729Y-87818630D01*
X138093446Y-88704957D01*
G37*
G36*
X137520408Y-91954823D02*
G01*
X136338639Y-91746446D01*
X136494922Y-90860119D01*
X137676691Y-91068496D01*
X137520408Y-91954823D01*
G37*
%TD*%
%TO.C,D3*%
G36*
X120366907Y-85579289D02*
G01*
X119185138Y-85370912D01*
X119341421Y-84484585D01*
X120523190Y-84692962D01*
X120366907Y-85579289D01*
G37*
G36*
X119793869Y-88829155D02*
G01*
X118612100Y-88620778D01*
X118768383Y-87734451D01*
X119950152Y-87942828D01*
X119793869Y-88829155D01*
G37*
%TD*%
%TO.C,D2*%
G36*
X102640367Y-82453622D02*
G01*
X101458598Y-82245245D01*
X101614881Y-81358918D01*
X102796650Y-81567295D01*
X102640367Y-82453622D01*
G37*
G36*
X102067329Y-85703488D02*
G01*
X100885560Y-85495111D01*
X101041843Y-84608784D01*
X102223612Y-84817161D01*
X102067329Y-85703488D01*
G37*
%TD*%
%TO.C,D1*%
G36*
X96731521Y-81411733D02*
G01*
X95549752Y-81203356D01*
X95706035Y-80317029D01*
X96887804Y-80525406D01*
X96731521Y-81411733D01*
G37*
G36*
X96158483Y-84661599D02*
G01*
X94976714Y-84453222D01*
X95132997Y-83566895D01*
X96314766Y-83775272D01*
X96158483Y-84661599D01*
G37*
%TD*%
M02*
