%TF.GenerationSoftware,KiCad,Pcbnew,(5.1.10-1-10_14)*%
%TF.CreationDate,2021-09-19T11:37:43+09:00*%
%TF.ProjectId,Vpico,56706963-6f2e-46b6-9963-61645f706362,rev?*%
%TF.SameCoordinates,Original*%
%TF.FileFunction,Legend,Top*%
%TF.FilePolarity,Positive*%
%FSLAX46Y46*%
G04 Gerber Fmt 4.6, Leading zero omitted, Abs format (unit mm)*
G04 Created by KiCad (PCBNEW (5.1.10-1-10_14)) date 2021-09-19 11:37:43*
%MOMM*%
%LPD*%
G01*
G04 APERTURE LIST*
%ADD10C,0.150000*%
%ADD11C,0.120000*%
G04 APERTURE END LIST*
D10*
X171471428Y-144057142D02*
X171423809Y-144104761D01*
X171280952Y-144152380D01*
X171185714Y-144152380D01*
X171042857Y-144104761D01*
X170947619Y-144009523D01*
X170900000Y-143914285D01*
X170852380Y-143723809D01*
X170852380Y-143580952D01*
X170900000Y-143390476D01*
X170947619Y-143295238D01*
X171042857Y-143200000D01*
X171185714Y-143152380D01*
X171280952Y-143152380D01*
X171423809Y-143200000D01*
X171471428Y-143247619D01*
X172376190Y-144152380D02*
X171900000Y-144152380D01*
X171900000Y-143152380D01*
X173995238Y-143200000D02*
X173900000Y-143152380D01*
X173757142Y-143152380D01*
X173614285Y-143200000D01*
X173519047Y-143295238D01*
X173471428Y-143390476D01*
X173423809Y-143580952D01*
X173423809Y-143723809D01*
X173471428Y-143914285D01*
X173519047Y-144009523D01*
X173614285Y-144104761D01*
X173757142Y-144152380D01*
X173852380Y-144152380D01*
X173995238Y-144104761D01*
X174042857Y-144057142D01*
X174042857Y-143723809D01*
X173852380Y-143723809D01*
X174471428Y-144152380D02*
X174471428Y-143152380D01*
X174709523Y-143152380D01*
X174852380Y-143200000D01*
X174947619Y-143295238D01*
X174995238Y-143390476D01*
X175042857Y-143580952D01*
X175042857Y-143723809D01*
X174995238Y-143914285D01*
X174947619Y-144009523D01*
X174852380Y-144104761D01*
X174709523Y-144152380D01*
X174471428Y-144152380D01*
X176233333Y-144152380D02*
X176233333Y-143152380D01*
X176900000Y-143152380D02*
X177090476Y-143152380D01*
X177185714Y-143200000D01*
X177280952Y-143295238D01*
X177328571Y-143485714D01*
X177328571Y-143819047D01*
X177280952Y-144009523D01*
X177185714Y-144104761D01*
X177090476Y-144152380D01*
X176900000Y-144152380D01*
X176804761Y-144104761D01*
X176709523Y-144009523D01*
X176661904Y-143819047D01*
X176661904Y-143485714D01*
X176709523Y-143295238D01*
X176804761Y-143200000D01*
X176900000Y-143152380D01*
X178376190Y-143152380D02*
X178709523Y-144152380D01*
X179042857Y-143152380D01*
D11*
%TO.C,J1*%
X190330000Y-142170000D02*
X190330000Y-143500000D01*
X189000000Y-142170000D02*
X190330000Y-142170000D01*
X187730000Y-142170000D02*
X187730000Y-144830000D01*
X187730000Y-144830000D02*
X180050000Y-144830000D01*
X187730000Y-142170000D02*
X180050000Y-142170000D01*
X180050000Y-142170000D02*
X180050000Y-144830000D01*
%TO.C,U1*%
X173500000Y-79000000D02*
X194500000Y-79000000D01*
X180300000Y-130000000D02*
X173500000Y-130000000D01*
X173500000Y-81667000D02*
X176507000Y-81667000D01*
X176507000Y-81667000D02*
X176507000Y-79000000D01*
X173500000Y-79000000D02*
X173500000Y-79300000D01*
X173500000Y-81400000D02*
X173500000Y-81800000D01*
X173500000Y-84000000D02*
X173500000Y-84400000D01*
X173500000Y-86500000D02*
X173500000Y-86900000D01*
X173500000Y-89100000D02*
X173500000Y-89500000D01*
X173500000Y-91600000D02*
X173500000Y-92000000D01*
X173500000Y-94100000D02*
X173500000Y-94500000D01*
X173500000Y-96700000D02*
X173500000Y-97100000D01*
X173500000Y-99200000D02*
X173500000Y-99600000D01*
X173500000Y-101800000D02*
X173500000Y-102200000D01*
X173500000Y-104300000D02*
X173500000Y-104700000D01*
X173500000Y-106800000D02*
X173500000Y-107200000D01*
X173500000Y-109400000D02*
X173500000Y-109800000D01*
X173500000Y-111900000D02*
X173500000Y-112300000D01*
X173500000Y-114500000D02*
X173500000Y-114900000D01*
X173500000Y-117000000D02*
X173500000Y-117400000D01*
X173500000Y-119600000D02*
X173500000Y-120000000D01*
X173500000Y-122100000D02*
X173500000Y-122500000D01*
X173500000Y-124600000D02*
X173500000Y-125000000D01*
X173500000Y-127200000D02*
X173500000Y-127600000D01*
X194500000Y-94100000D02*
X194500000Y-94500000D01*
X194500000Y-99200000D02*
X194500000Y-99600000D01*
X194500000Y-106800000D02*
X194500000Y-107200000D01*
X194500000Y-114500000D02*
X194500000Y-114900000D01*
X194500000Y-84000000D02*
X194500000Y-84400000D01*
X194500000Y-81400000D02*
X194500000Y-81800000D01*
X194500000Y-89100000D02*
X194500000Y-89500000D01*
X194500000Y-122100000D02*
X194500000Y-122500000D01*
X194500000Y-127200000D02*
X194500000Y-127600000D01*
X194500000Y-124600000D02*
X194500000Y-125000000D01*
X194500000Y-109400000D02*
X194500000Y-109800000D01*
X194500000Y-104300000D02*
X194500000Y-104700000D01*
X194500000Y-91600000D02*
X194500000Y-92000000D01*
X194500000Y-96700000D02*
X194500000Y-97100000D01*
X194500000Y-117000000D02*
X194500000Y-117400000D01*
X194500000Y-101800000D02*
X194500000Y-102200000D01*
X194500000Y-79000000D02*
X194500000Y-79300000D01*
X194500000Y-86500000D02*
X194500000Y-86900000D01*
X194500000Y-111900000D02*
X194500000Y-112300000D01*
X194500000Y-119600000D02*
X194500000Y-120000000D01*
X194500000Y-130000000D02*
X187700000Y-130000000D01*
X182500000Y-130000000D02*
X182900000Y-130000000D01*
X185100000Y-130000000D02*
X185500000Y-130000000D01*
%TO.C,J1*%
D10*
X190782380Y-143833333D02*
X191496666Y-143833333D01*
X191639523Y-143880952D01*
X191734761Y-143976190D01*
X191782380Y-144119047D01*
X191782380Y-144214285D01*
X191782380Y-142833333D02*
X191782380Y-143404761D01*
X191782380Y-143119047D02*
X190782380Y-143119047D01*
X190925238Y-143214285D01*
X191020476Y-143309523D01*
X191068095Y-143404761D01*
%TO.C,U1*%
X183238095Y-103952380D02*
X183238095Y-104761904D01*
X183285714Y-104857142D01*
X183333333Y-104904761D01*
X183428571Y-104952380D01*
X183619047Y-104952380D01*
X183714285Y-104904761D01*
X183761904Y-104857142D01*
X183809523Y-104761904D01*
X183809523Y-103952380D01*
X184809523Y-104952380D02*
X184238095Y-104952380D01*
X184523809Y-104952380D02*
X184523809Y-103952380D01*
X184428571Y-104095238D01*
X184333333Y-104190476D01*
X184238095Y-104238095D01*
X187904761Y-131023809D02*
X188019047Y-131061904D01*
X188209523Y-131061904D01*
X188285714Y-131023809D01*
X188323809Y-130985714D01*
X188361904Y-130909523D01*
X188361904Y-130833333D01*
X188323809Y-130757142D01*
X188285714Y-130719047D01*
X188209523Y-130680952D01*
X188057142Y-130642857D01*
X187980952Y-130604761D01*
X187942857Y-130566666D01*
X187904761Y-130490476D01*
X187904761Y-130414285D01*
X187942857Y-130338095D01*
X187980952Y-130300000D01*
X188057142Y-130261904D01*
X188247619Y-130261904D01*
X188361904Y-130300000D01*
X188628571Y-130261904D02*
X188819047Y-131061904D01*
X188971428Y-130490476D01*
X189123809Y-131061904D01*
X189314285Y-130261904D01*
X189619047Y-131061904D02*
X189619047Y-130261904D01*
X189809523Y-130261904D01*
X189923809Y-130300000D01*
X190000000Y-130376190D01*
X190038095Y-130452380D01*
X190076190Y-130604761D01*
X190076190Y-130719047D01*
X190038095Y-130871428D01*
X190000000Y-130947619D01*
X189923809Y-131023809D01*
X189809523Y-131061904D01*
X189619047Y-131061904D01*
X190419047Y-131061904D02*
X190419047Y-130261904D01*
X190952380Y-130261904D02*
X191104761Y-130261904D01*
X191180952Y-130300000D01*
X191257142Y-130376190D01*
X191295238Y-130528571D01*
X191295238Y-130795238D01*
X191257142Y-130947619D01*
X191180952Y-131023809D01*
X191104761Y-131061904D01*
X190952380Y-131061904D01*
X190876190Y-131023809D01*
X190800000Y-130947619D01*
X190761904Y-130795238D01*
X190761904Y-130528571D01*
X190800000Y-130376190D01*
X190876190Y-130300000D01*
X190952380Y-130261904D01*
X176490476Y-131023809D02*
X176604761Y-131061904D01*
X176795238Y-131061904D01*
X176871428Y-131023809D01*
X176909523Y-130985714D01*
X176947619Y-130909523D01*
X176947619Y-130833333D01*
X176909523Y-130757142D01*
X176871428Y-130719047D01*
X176795238Y-130680952D01*
X176642857Y-130642857D01*
X176566666Y-130604761D01*
X176528571Y-130566666D01*
X176490476Y-130490476D01*
X176490476Y-130414285D01*
X176528571Y-130338095D01*
X176566666Y-130300000D01*
X176642857Y-130261904D01*
X176833333Y-130261904D01*
X176947619Y-130300000D01*
X177214285Y-130261904D02*
X177404761Y-131061904D01*
X177557142Y-130490476D01*
X177709523Y-131061904D01*
X177900000Y-130261904D01*
X178661904Y-130985714D02*
X178623809Y-131023809D01*
X178509523Y-131061904D01*
X178433333Y-131061904D01*
X178319047Y-131023809D01*
X178242857Y-130947619D01*
X178204761Y-130871428D01*
X178166666Y-130719047D01*
X178166666Y-130604761D01*
X178204761Y-130452380D01*
X178242857Y-130376190D01*
X178319047Y-130300000D01*
X178433333Y-130261904D01*
X178509523Y-130261904D01*
X178623809Y-130300000D01*
X178661904Y-130338095D01*
X179385714Y-131061904D02*
X179004761Y-131061904D01*
X179004761Y-130261904D01*
X179652380Y-131061904D02*
X179652380Y-130261904D01*
X180109523Y-131061904D02*
X179766666Y-130604761D01*
X180109523Y-130261904D02*
X179652380Y-130719047D01*
X196151597Y-99240964D02*
X196420971Y-98971590D01*
X196259346Y-99456463D02*
X195882223Y-98702216D01*
X196636470Y-99079340D01*
X196582595Y-98055719D02*
X196501783Y-98082656D01*
X196420971Y-98163468D01*
X196367096Y-98271218D01*
X196367096Y-98378967D01*
X196394033Y-98459780D01*
X196474845Y-98594467D01*
X196555658Y-98675279D01*
X196690345Y-98756091D01*
X196771157Y-98783028D01*
X196878906Y-98783028D01*
X196986656Y-98729154D01*
X197040531Y-98675279D01*
X197094406Y-98567529D01*
X197094406Y-98513654D01*
X196905844Y-98325093D01*
X196798094Y-98432842D01*
X197390717Y-98325093D02*
X196825032Y-97759407D01*
X197713966Y-98001844D01*
X197148280Y-97436158D01*
X197983340Y-97732470D02*
X197417654Y-97166784D01*
X197552341Y-97032097D01*
X197660091Y-96978223D01*
X197767841Y-96978223D01*
X197848653Y-97005160D01*
X197983340Y-97085972D01*
X198064152Y-97166784D01*
X198144964Y-97301471D01*
X198171902Y-97382284D01*
X198171902Y-97490033D01*
X198118027Y-97597783D01*
X197983340Y-97732470D01*
X196086158Y-85598155D02*
X196005346Y-85625093D01*
X195924534Y-85705905D01*
X195870659Y-85813654D01*
X195870659Y-85921404D01*
X195897597Y-86002216D01*
X195978409Y-86136903D01*
X196059221Y-86217715D01*
X196193908Y-86298528D01*
X196274720Y-86325465D01*
X196382470Y-86325465D01*
X196490219Y-86271590D01*
X196544094Y-86217715D01*
X196597969Y-86109966D01*
X196597969Y-86056091D01*
X196409407Y-85867529D01*
X196301658Y-85975279D01*
X196894280Y-85867529D02*
X196328595Y-85301844D01*
X197217529Y-85544280D01*
X196651844Y-84978595D01*
X197486903Y-85274906D02*
X196921218Y-84709221D01*
X197055905Y-84574534D01*
X197163654Y-84520659D01*
X197271404Y-84520659D01*
X197352216Y-84547597D01*
X197486903Y-84628409D01*
X197567715Y-84709221D01*
X197648528Y-84843908D01*
X197675465Y-84924720D01*
X197675465Y-85032470D01*
X197621590Y-85140219D01*
X197486903Y-85274906D01*
X196086158Y-110998155D02*
X196005346Y-111025093D01*
X195924534Y-111105905D01*
X195870659Y-111213654D01*
X195870659Y-111321404D01*
X195897597Y-111402216D01*
X195978409Y-111536903D01*
X196059221Y-111617715D01*
X196193908Y-111698528D01*
X196274720Y-111725465D01*
X196382470Y-111725465D01*
X196490219Y-111671590D01*
X196544094Y-111617715D01*
X196597969Y-111509966D01*
X196597969Y-111456091D01*
X196409407Y-111267529D01*
X196301658Y-111375279D01*
X196894280Y-111267529D02*
X196328595Y-110701844D01*
X197217529Y-110944280D01*
X196651844Y-110378595D01*
X197486903Y-110674906D02*
X196921218Y-110109221D01*
X197055905Y-109974534D01*
X197163654Y-109920659D01*
X197271404Y-109920659D01*
X197352216Y-109947597D01*
X197486903Y-110028409D01*
X197567715Y-110109221D01*
X197648528Y-110243908D01*
X197675465Y-110324720D01*
X197675465Y-110432470D01*
X197621590Y-110540219D01*
X197486903Y-110674906D01*
X196086158Y-123698155D02*
X196005346Y-123725093D01*
X195924534Y-123805905D01*
X195870659Y-123913654D01*
X195870659Y-124021404D01*
X195897597Y-124102216D01*
X195978409Y-124236903D01*
X196059221Y-124317715D01*
X196193908Y-124398528D01*
X196274720Y-124425465D01*
X196382470Y-124425465D01*
X196490219Y-124371590D01*
X196544094Y-124317715D01*
X196597969Y-124209966D01*
X196597969Y-124156091D01*
X196409407Y-123967529D01*
X196301658Y-124075279D01*
X196894280Y-123967529D02*
X196328595Y-123401844D01*
X197217529Y-123644280D01*
X196651844Y-123078595D01*
X197486903Y-123374906D02*
X196921218Y-122809221D01*
X197055905Y-122674534D01*
X197163654Y-122620659D01*
X197271404Y-122620659D01*
X197352216Y-122647597D01*
X197486903Y-122728409D01*
X197567715Y-122809221D01*
X197648528Y-122943908D01*
X197675465Y-123024720D01*
X197675465Y-123132470D01*
X197621590Y-123240219D01*
X197486903Y-123374906D01*
X170486158Y-123698155D02*
X170405346Y-123725093D01*
X170324534Y-123805905D01*
X170270659Y-123913654D01*
X170270659Y-124021404D01*
X170297597Y-124102216D01*
X170378409Y-124236903D01*
X170459221Y-124317715D01*
X170593908Y-124398528D01*
X170674720Y-124425465D01*
X170782470Y-124425465D01*
X170890219Y-124371590D01*
X170944094Y-124317715D01*
X170997969Y-124209966D01*
X170997969Y-124156091D01*
X170809407Y-123967529D01*
X170701658Y-124075279D01*
X171294280Y-123967529D02*
X170728595Y-123401844D01*
X171617529Y-123644280D01*
X171051844Y-123078595D01*
X171886903Y-123374906D02*
X171321218Y-122809221D01*
X171455905Y-122674534D01*
X171563654Y-122620659D01*
X171671404Y-122620659D01*
X171752216Y-122647597D01*
X171886903Y-122728409D01*
X171967715Y-122809221D01*
X172048528Y-122943908D01*
X172075465Y-123024720D01*
X172075465Y-123132470D01*
X172021590Y-123240219D01*
X171886903Y-123374906D01*
X170486158Y-110998155D02*
X170405346Y-111025093D01*
X170324534Y-111105905D01*
X170270659Y-111213654D01*
X170270659Y-111321404D01*
X170297597Y-111402216D01*
X170378409Y-111536903D01*
X170459221Y-111617715D01*
X170593908Y-111698528D01*
X170674720Y-111725465D01*
X170782470Y-111725465D01*
X170890219Y-111671590D01*
X170944094Y-111617715D01*
X170997969Y-111509966D01*
X170997969Y-111456091D01*
X170809407Y-111267529D01*
X170701658Y-111375279D01*
X171294280Y-111267529D02*
X170728595Y-110701844D01*
X171617529Y-110944280D01*
X171051844Y-110378595D01*
X171886903Y-110674906D02*
X171321218Y-110109221D01*
X171455905Y-109974534D01*
X171563654Y-109920659D01*
X171671404Y-109920659D01*
X171752216Y-109947597D01*
X171886903Y-110028409D01*
X171967715Y-110109221D01*
X172048528Y-110243908D01*
X172075465Y-110324720D01*
X172075465Y-110432470D01*
X172021590Y-110540219D01*
X171886903Y-110674906D01*
X170486158Y-98298155D02*
X170405346Y-98325093D01*
X170324534Y-98405905D01*
X170270659Y-98513654D01*
X170270659Y-98621404D01*
X170297597Y-98702216D01*
X170378409Y-98836903D01*
X170459221Y-98917715D01*
X170593908Y-98998528D01*
X170674720Y-99025465D01*
X170782470Y-99025465D01*
X170890219Y-98971590D01*
X170944094Y-98917715D01*
X170997969Y-98809966D01*
X170997969Y-98756091D01*
X170809407Y-98567529D01*
X170701658Y-98675279D01*
X171294280Y-98567529D02*
X170728595Y-98001844D01*
X171617529Y-98244280D01*
X171051844Y-97678595D01*
X171886903Y-97974906D02*
X171321218Y-97409221D01*
X171455905Y-97274534D01*
X171563654Y-97220659D01*
X171671404Y-97220659D01*
X171752216Y-97247597D01*
X171886903Y-97328409D01*
X171967715Y-97409221D01*
X172048528Y-97543908D01*
X172075465Y-97624720D01*
X172075465Y-97732470D01*
X172021590Y-97840219D01*
X171886903Y-97974906D01*
X170486158Y-85598155D02*
X170405346Y-85625093D01*
X170324534Y-85705905D01*
X170270659Y-85813654D01*
X170270659Y-85921404D01*
X170297597Y-86002216D01*
X170378409Y-86136903D01*
X170459221Y-86217715D01*
X170593908Y-86298528D01*
X170674720Y-86325465D01*
X170782470Y-86325465D01*
X170890219Y-86271590D01*
X170944094Y-86217715D01*
X170997969Y-86109966D01*
X170997969Y-86056091D01*
X170809407Y-85867529D01*
X170701658Y-85975279D01*
X171294280Y-85867529D02*
X170728595Y-85301844D01*
X171617529Y-85544280D01*
X171051844Y-84978595D01*
X171886903Y-85274906D02*
X171321218Y-84709221D01*
X171455905Y-84574534D01*
X171563654Y-84520659D01*
X171671404Y-84520659D01*
X171752216Y-84547597D01*
X171886903Y-84628409D01*
X171967715Y-84709221D01*
X172048528Y-84843908D01*
X172075465Y-84924720D01*
X172075465Y-85032470D01*
X172021590Y-85140219D01*
X171886903Y-85274906D01*
X195953129Y-81027309D02*
X196707377Y-81404433D01*
X196330253Y-80650186D01*
X196976751Y-80542436D02*
X197084500Y-80488561D01*
X197138375Y-80488561D01*
X197219187Y-80515499D01*
X197300000Y-80596311D01*
X197326937Y-80677123D01*
X197326937Y-80730998D01*
X197300000Y-80811810D01*
X197084500Y-81027309D01*
X196518815Y-80461624D01*
X196707377Y-80273062D01*
X196788189Y-80246125D01*
X196842064Y-80246125D01*
X196922876Y-80273062D01*
X196976751Y-80326937D01*
X197003688Y-80407749D01*
X197003688Y-80461624D01*
X196976751Y-80542436D01*
X196788189Y-80730998D01*
X197084500Y-79895938D02*
X197542436Y-80353874D01*
X197623248Y-80380812D01*
X197677123Y-80380812D01*
X197757935Y-80353874D01*
X197865685Y-80246125D01*
X197892622Y-80165312D01*
X197892622Y-80111438D01*
X197865685Y-80030625D01*
X197407749Y-79572690D01*
X198188934Y-79869001D02*
X198296683Y-79815126D01*
X198431370Y-79680439D01*
X198458308Y-79599627D01*
X198458308Y-79545752D01*
X198431370Y-79464940D01*
X198377496Y-79411065D01*
X198296683Y-79384128D01*
X198242809Y-79384128D01*
X198161996Y-79411065D01*
X198027309Y-79491877D01*
X197946497Y-79518815D01*
X197892622Y-79518815D01*
X197811810Y-79491877D01*
X197757935Y-79438003D01*
X197730998Y-79357190D01*
X197730998Y-79303316D01*
X197757935Y-79222503D01*
X197892622Y-79087816D01*
X198000372Y-79033942D01*
X195920473Y-83569966D02*
X196674720Y-83947089D01*
X196297597Y-83192842D01*
X196997969Y-83569966D02*
X197105719Y-83516091D01*
X197240406Y-83381404D01*
X197267343Y-83300592D01*
X197267343Y-83246717D01*
X197240406Y-83165905D01*
X197186531Y-83112030D01*
X197105719Y-83085093D01*
X197051844Y-83085093D01*
X196971032Y-83112030D01*
X196836345Y-83192842D01*
X196755532Y-83219780D01*
X196701658Y-83219780D01*
X196620845Y-83192842D01*
X196566971Y-83138967D01*
X196540033Y-83058155D01*
X196540033Y-83004280D01*
X196566971Y-82923468D01*
X196701658Y-82788781D01*
X196809407Y-82734906D01*
X197428967Y-82654094D02*
X197698341Y-82923468D01*
X196944094Y-82546345D02*
X197428967Y-82654094D01*
X197321218Y-82169221D01*
X198021590Y-82546345D02*
X198129340Y-82492470D01*
X198264027Y-82357783D01*
X198290964Y-82276971D01*
X198290964Y-82223096D01*
X198264027Y-82142284D01*
X198210152Y-82088409D01*
X198129340Y-82061471D01*
X198075465Y-82061471D01*
X197994653Y-82088409D01*
X197859966Y-82169221D01*
X197779154Y-82196158D01*
X197725279Y-82196158D01*
X197644467Y-82169221D01*
X197590592Y-82115346D01*
X197563654Y-82034534D01*
X197563654Y-81980659D01*
X197590592Y-81899847D01*
X197725279Y-81765160D01*
X197833028Y-81711285D01*
X195922131Y-88458308D02*
X196272317Y-88108122D01*
X196299255Y-88512183D01*
X196380067Y-88431370D01*
X196460879Y-88404433D01*
X196514754Y-88404433D01*
X196595566Y-88431370D01*
X196730253Y-88566057D01*
X196757190Y-88646870D01*
X196757190Y-88700744D01*
X196730253Y-88781557D01*
X196568629Y-88943181D01*
X196487816Y-88970118D01*
X196433942Y-88970118D01*
X196433942Y-87946497D02*
X197188189Y-88323621D01*
X196811065Y-87569374D01*
X196945752Y-87434687D02*
X197295938Y-87084500D01*
X197322876Y-87488561D01*
X197403688Y-87407749D01*
X197484500Y-87380812D01*
X197538375Y-87380812D01*
X197619187Y-87407749D01*
X197753874Y-87542436D01*
X197780812Y-87623248D01*
X197780812Y-87677123D01*
X197753874Y-87757935D01*
X197592250Y-87919560D01*
X197511438Y-87946497D01*
X197457563Y-87946497D01*
X198023248Y-87596311D02*
X198454247Y-87165312D01*
X198238748Y-86680439D02*
X198427309Y-86491877D01*
X198804433Y-86707377D02*
X198535059Y-86976751D01*
X197969374Y-86411065D01*
X198238748Y-86141691D01*
X199046870Y-86464940D02*
X198481184Y-85899255D01*
X199370118Y-86141691D01*
X198804433Y-85576006D01*
X195889847Y-90990592D02*
X196240033Y-90640406D01*
X196266971Y-91044467D01*
X196347783Y-90963654D01*
X196428595Y-90936717D01*
X196482470Y-90936717D01*
X196563282Y-90963654D01*
X196697969Y-91098341D01*
X196724906Y-91179154D01*
X196724906Y-91233028D01*
X196697969Y-91313841D01*
X196536345Y-91475465D01*
X196455532Y-91502402D01*
X196401658Y-91502402D01*
X196401658Y-90478781D02*
X197155905Y-90855905D01*
X196778781Y-90101658D01*
X196913468Y-89966971D02*
X197263654Y-89616784D01*
X197290592Y-90020845D01*
X197371404Y-89940033D01*
X197452216Y-89913096D01*
X197506091Y-89913096D01*
X197586903Y-89940033D01*
X197721590Y-90074720D01*
X197748528Y-90155532D01*
X197748528Y-90209407D01*
X197721590Y-90290219D01*
X197559966Y-90451844D01*
X197479154Y-90478781D01*
X197425279Y-90478781D01*
X196154788Y-94033773D02*
X196424162Y-93764399D01*
X196262537Y-94249272D02*
X195885414Y-93495025D01*
X196639661Y-93872149D01*
X196828223Y-93683587D02*
X196262537Y-93117902D01*
X196397224Y-92983215D01*
X196504974Y-92929340D01*
X196612723Y-92929340D01*
X196693536Y-92956277D01*
X196828223Y-93037089D01*
X196909035Y-93117902D01*
X196989847Y-93252589D01*
X197016784Y-93333401D01*
X197016784Y-93441150D01*
X196962910Y-93548900D01*
X196828223Y-93683587D01*
X197663282Y-92740778D02*
X197663282Y-92794653D01*
X197609407Y-92902402D01*
X197555532Y-92956277D01*
X197447783Y-93010152D01*
X197340033Y-93010152D01*
X197259221Y-92983215D01*
X197124534Y-92902402D01*
X197043722Y-92821590D01*
X196962910Y-92686903D01*
X196935972Y-92606091D01*
X196935972Y-92498341D01*
X196989847Y-92390592D01*
X197043722Y-92336717D01*
X197151471Y-92282842D01*
X197205346Y-92282842D01*
X197878781Y-92740778D02*
X198309780Y-92309780D01*
X197744094Y-91636345D02*
X198498341Y-92013468D01*
X198121218Y-91259221D01*
X199198714Y-91313096D02*
X198740778Y-91232284D01*
X198875465Y-91636345D02*
X198309780Y-91070659D01*
X198525279Y-90855160D01*
X198606091Y-90828223D01*
X198659966Y-90828223D01*
X198740778Y-90855160D01*
X198821590Y-90935972D01*
X198848528Y-91016784D01*
X198848528Y-91070659D01*
X198821590Y-91151471D01*
X198606091Y-91366971D01*
X199144839Y-90774348D02*
X199333401Y-90585786D01*
X199710524Y-90801285D02*
X199441150Y-91070659D01*
X198875465Y-90504974D01*
X199144839Y-90235600D01*
X199845211Y-90073975D02*
X199656650Y-90262537D01*
X199952961Y-90558849D02*
X199387276Y-89993163D01*
X199656650Y-89723789D01*
X196097722Y-95746592D02*
X196016910Y-95773529D01*
X195936097Y-95854341D01*
X195882223Y-95962091D01*
X195882223Y-96069841D01*
X195909160Y-96150653D01*
X195989972Y-96285340D01*
X196070784Y-96366152D01*
X196205471Y-96446964D01*
X196286284Y-96473902D01*
X196394033Y-96473902D01*
X196501783Y-96420027D01*
X196555658Y-96366152D01*
X196609532Y-96258402D01*
X196609532Y-96204528D01*
X196420971Y-96015966D01*
X196313221Y-96123715D01*
X196905844Y-96015966D02*
X196340158Y-95450280D01*
X196555658Y-95234781D01*
X196636470Y-95207844D01*
X196690345Y-95207844D01*
X196771157Y-95234781D01*
X196851969Y-95315593D01*
X196878906Y-95396406D01*
X196878906Y-95450280D01*
X196851969Y-95531093D01*
X196636470Y-95746592D01*
X196932781Y-94965407D02*
X196932781Y-94911532D01*
X196959719Y-94830720D01*
X197094406Y-94696033D01*
X197175218Y-94669096D01*
X197229093Y-94669096D01*
X197309905Y-94696033D01*
X197363780Y-94749908D01*
X197417654Y-94857658D01*
X197417654Y-95504155D01*
X197767841Y-95153969D01*
X197767841Y-94507471D02*
X197687028Y-94534409D01*
X197633154Y-94534409D01*
X197552341Y-94507471D01*
X197525404Y-94480534D01*
X197498467Y-94399722D01*
X197498467Y-94345847D01*
X197525404Y-94265035D01*
X197633154Y-94157285D01*
X197713966Y-94130348D01*
X197767841Y-94130348D01*
X197848653Y-94157285D01*
X197875590Y-94184223D01*
X197902528Y-94265035D01*
X197902528Y-94318910D01*
X197875590Y-94399722D01*
X197767841Y-94507471D01*
X197740903Y-94588284D01*
X197740903Y-94642158D01*
X197767841Y-94722971D01*
X197875590Y-94830720D01*
X197956402Y-94857658D01*
X198010277Y-94857658D01*
X198091089Y-94830720D01*
X198198839Y-94722971D01*
X198225776Y-94642158D01*
X198225776Y-94588284D01*
X198198839Y-94507471D01*
X198091089Y-94399722D01*
X198010277Y-94372784D01*
X197956402Y-94372784D01*
X197875590Y-94399722D01*
X196097722Y-101090592D02*
X196016910Y-101117529D01*
X195936097Y-101198341D01*
X195882223Y-101306091D01*
X195882223Y-101413841D01*
X195909160Y-101494653D01*
X195989972Y-101629340D01*
X196070784Y-101710152D01*
X196205471Y-101790964D01*
X196286284Y-101817902D01*
X196394033Y-101817902D01*
X196501783Y-101764027D01*
X196555658Y-101710152D01*
X196609532Y-101602402D01*
X196609532Y-101548528D01*
X196420971Y-101359966D01*
X196313221Y-101467715D01*
X196905844Y-101359966D02*
X196340158Y-100794280D01*
X196555658Y-100578781D01*
X196636470Y-100551844D01*
X196690345Y-100551844D01*
X196771157Y-100578781D01*
X196851969Y-100659593D01*
X196878906Y-100740406D01*
X196878906Y-100794280D01*
X196851969Y-100875093D01*
X196636470Y-101090592D01*
X196932781Y-100309407D02*
X196932781Y-100255532D01*
X196959719Y-100174720D01*
X197094406Y-100040033D01*
X197175218Y-100013096D01*
X197229093Y-100013096D01*
X197309905Y-100040033D01*
X197363780Y-100093908D01*
X197417654Y-100201658D01*
X197417654Y-100848155D01*
X197767841Y-100497969D01*
X197390717Y-99743722D02*
X197767841Y-99366598D01*
X198091089Y-100174720D01*
X196097722Y-103620592D02*
X196016910Y-103647529D01*
X195936097Y-103728341D01*
X195882223Y-103836091D01*
X195882223Y-103943841D01*
X195909160Y-104024653D01*
X195989972Y-104159340D01*
X196070784Y-104240152D01*
X196205471Y-104320964D01*
X196286284Y-104347902D01*
X196394033Y-104347902D01*
X196501783Y-104294027D01*
X196555658Y-104240152D01*
X196609532Y-104132402D01*
X196609532Y-104078528D01*
X196420971Y-103889966D01*
X196313221Y-103997715D01*
X196905844Y-103889966D02*
X196340158Y-103324280D01*
X196555658Y-103108781D01*
X196636470Y-103081844D01*
X196690345Y-103081844D01*
X196771157Y-103108781D01*
X196851969Y-103189593D01*
X196878906Y-103270406D01*
X196878906Y-103324280D01*
X196851969Y-103405093D01*
X196636470Y-103620592D01*
X196932781Y-102839407D02*
X196932781Y-102785532D01*
X196959719Y-102704720D01*
X197094406Y-102570033D01*
X197175218Y-102543096D01*
X197229093Y-102543096D01*
X197309905Y-102570033D01*
X197363780Y-102623908D01*
X197417654Y-102731658D01*
X197417654Y-103378155D01*
X197767841Y-103027969D01*
X197687028Y-101977410D02*
X197579279Y-102085160D01*
X197552341Y-102165972D01*
X197552341Y-102219847D01*
X197579279Y-102354534D01*
X197660091Y-102489221D01*
X197875590Y-102704720D01*
X197956402Y-102731658D01*
X198010277Y-102731658D01*
X198091089Y-102704720D01*
X198198839Y-102596971D01*
X198225776Y-102516158D01*
X198225776Y-102462284D01*
X198198839Y-102381471D01*
X198064152Y-102246784D01*
X197983340Y-102219847D01*
X197929465Y-102219847D01*
X197848653Y-102246784D01*
X197740903Y-102354534D01*
X197713966Y-102435346D01*
X197713966Y-102489221D01*
X197740903Y-102570033D01*
X196838375Y-106443435D02*
X196380439Y-106362622D01*
X196515126Y-106766683D02*
X195949441Y-106200998D01*
X196164940Y-105985499D01*
X196245752Y-105958561D01*
X196299627Y-105958561D01*
X196380439Y-105985499D01*
X196461251Y-106066311D01*
X196488189Y-106147123D01*
X196488189Y-106200998D01*
X196461251Y-106281810D01*
X196245752Y-106497309D01*
X196515126Y-105635312D02*
X196973062Y-106093248D01*
X197053874Y-106120186D01*
X197107749Y-106120186D01*
X197188561Y-106093248D01*
X197296311Y-105985499D01*
X197323248Y-105904687D01*
X197323248Y-105850812D01*
X197296311Y-105769999D01*
X196838375Y-105312064D01*
X197673435Y-105608375D02*
X197107749Y-105042690D01*
X197996683Y-105285126D01*
X197430998Y-104719441D01*
X196097722Y-108700592D02*
X196016910Y-108727529D01*
X195936097Y-108808341D01*
X195882223Y-108916091D01*
X195882223Y-109023841D01*
X195909160Y-109104653D01*
X195989972Y-109239340D01*
X196070784Y-109320152D01*
X196205471Y-109400964D01*
X196286284Y-109427902D01*
X196394033Y-109427902D01*
X196501783Y-109374027D01*
X196555658Y-109320152D01*
X196609532Y-109212402D01*
X196609532Y-109158528D01*
X196420971Y-108969966D01*
X196313221Y-109077715D01*
X196905844Y-108969966D02*
X196340158Y-108404280D01*
X196555658Y-108188781D01*
X196636470Y-108161844D01*
X196690345Y-108161844D01*
X196771157Y-108188781D01*
X196851969Y-108269593D01*
X196878906Y-108350406D01*
X196878906Y-108404280D01*
X196851969Y-108485093D01*
X196636470Y-108700592D01*
X196932781Y-107919407D02*
X196932781Y-107865532D01*
X196959719Y-107784720D01*
X197094406Y-107650033D01*
X197175218Y-107623096D01*
X197229093Y-107623096D01*
X197309905Y-107650033D01*
X197363780Y-107703908D01*
X197417654Y-107811658D01*
X197417654Y-108458155D01*
X197767841Y-108107969D01*
X197471529Y-107380659D02*
X197471529Y-107326784D01*
X197498467Y-107245972D01*
X197633154Y-107111285D01*
X197713966Y-107084348D01*
X197767841Y-107084348D01*
X197848653Y-107111285D01*
X197902528Y-107165160D01*
X197956402Y-107272910D01*
X197956402Y-107919407D01*
X198306589Y-107569221D01*
X196097722Y-113790592D02*
X196016910Y-113817529D01*
X195936097Y-113898341D01*
X195882223Y-114006091D01*
X195882223Y-114113841D01*
X195909160Y-114194653D01*
X195989972Y-114329340D01*
X196070784Y-114410152D01*
X196205471Y-114490964D01*
X196286284Y-114517902D01*
X196394033Y-114517902D01*
X196501783Y-114464027D01*
X196555658Y-114410152D01*
X196609532Y-114302402D01*
X196609532Y-114248528D01*
X196420971Y-114059966D01*
X196313221Y-114167715D01*
X196905844Y-114059966D02*
X196340158Y-113494280D01*
X196555658Y-113278781D01*
X196636470Y-113251844D01*
X196690345Y-113251844D01*
X196771157Y-113278781D01*
X196851969Y-113359593D01*
X196878906Y-113440406D01*
X196878906Y-113494280D01*
X196851969Y-113575093D01*
X196636470Y-113790592D01*
X196932781Y-113009407D02*
X196932781Y-112955532D01*
X196959719Y-112874720D01*
X197094406Y-112740033D01*
X197175218Y-112713096D01*
X197229093Y-112713096D01*
X197309905Y-112740033D01*
X197363780Y-112793908D01*
X197417654Y-112901658D01*
X197417654Y-113548155D01*
X197767841Y-113197969D01*
X198306589Y-112659221D02*
X197983340Y-112982470D01*
X198144964Y-112820845D02*
X197579279Y-112255160D01*
X197606216Y-112389847D01*
X197606216Y-112497597D01*
X197579279Y-112578409D01*
X196097722Y-116320592D02*
X196016910Y-116347529D01*
X195936097Y-116428341D01*
X195882223Y-116536091D01*
X195882223Y-116643841D01*
X195909160Y-116724653D01*
X195989972Y-116859340D01*
X196070784Y-116940152D01*
X196205471Y-117020964D01*
X196286284Y-117047902D01*
X196394033Y-117047902D01*
X196501783Y-116994027D01*
X196555658Y-116940152D01*
X196609532Y-116832402D01*
X196609532Y-116778528D01*
X196420971Y-116589966D01*
X196313221Y-116697715D01*
X196905844Y-116589966D02*
X196340158Y-116024280D01*
X196555658Y-115808781D01*
X196636470Y-115781844D01*
X196690345Y-115781844D01*
X196771157Y-115808781D01*
X196851969Y-115889593D01*
X196878906Y-115970406D01*
X196878906Y-116024280D01*
X196851969Y-116105093D01*
X196636470Y-116320592D01*
X196932781Y-115539407D02*
X196932781Y-115485532D01*
X196959719Y-115404720D01*
X197094406Y-115270033D01*
X197175218Y-115243096D01*
X197229093Y-115243096D01*
X197309905Y-115270033D01*
X197363780Y-115323908D01*
X197417654Y-115431658D01*
X197417654Y-116078155D01*
X197767841Y-115727969D01*
X197552341Y-114812097D02*
X197606216Y-114758223D01*
X197687028Y-114731285D01*
X197740903Y-114731285D01*
X197821715Y-114758223D01*
X197956402Y-114839035D01*
X198091089Y-114973722D01*
X198171902Y-115108409D01*
X198198839Y-115189221D01*
X198198839Y-115243096D01*
X198171902Y-115323908D01*
X198118027Y-115377783D01*
X198037215Y-115404720D01*
X197983340Y-115404720D01*
X197902528Y-115377783D01*
X197767841Y-115296971D01*
X197633154Y-115162284D01*
X197552341Y-115027597D01*
X197525404Y-114946784D01*
X197525404Y-114892910D01*
X197552341Y-114812097D01*
X196097722Y-118860592D02*
X196016910Y-118887529D01*
X195936097Y-118968341D01*
X195882223Y-119076091D01*
X195882223Y-119183841D01*
X195909160Y-119264653D01*
X195989972Y-119399340D01*
X196070784Y-119480152D01*
X196205471Y-119560964D01*
X196286284Y-119587902D01*
X196394033Y-119587902D01*
X196501783Y-119534027D01*
X196555658Y-119480152D01*
X196609532Y-119372402D01*
X196609532Y-119318528D01*
X196420971Y-119129966D01*
X196313221Y-119237715D01*
X196905844Y-119129966D02*
X196340158Y-118564280D01*
X196555658Y-118348781D01*
X196636470Y-118321844D01*
X196690345Y-118321844D01*
X196771157Y-118348781D01*
X196851969Y-118429593D01*
X196878906Y-118510406D01*
X196878906Y-118564280D01*
X196851969Y-118645093D01*
X196636470Y-118860592D01*
X197767841Y-118267969D02*
X197444592Y-118591218D01*
X197606216Y-118429593D02*
X197040531Y-117863908D01*
X197067468Y-117998595D01*
X197067468Y-118106345D01*
X197040531Y-118187157D01*
X198037215Y-117998595D02*
X198144964Y-117890845D01*
X198171902Y-117810033D01*
X198171902Y-117756158D01*
X198144964Y-117621471D01*
X198064152Y-117486784D01*
X197848653Y-117271285D01*
X197767841Y-117244348D01*
X197713966Y-117244348D01*
X197633154Y-117271285D01*
X197525404Y-117379035D01*
X197498467Y-117459847D01*
X197498467Y-117513722D01*
X197525404Y-117594534D01*
X197660091Y-117729221D01*
X197740903Y-117756158D01*
X197794778Y-117756158D01*
X197875590Y-117729221D01*
X197983340Y-117621471D01*
X198010277Y-117540659D01*
X198010277Y-117486784D01*
X197983340Y-117405972D01*
X196097722Y-121400592D02*
X196016910Y-121427529D01*
X195936097Y-121508341D01*
X195882223Y-121616091D01*
X195882223Y-121723841D01*
X195909160Y-121804653D01*
X195989972Y-121939340D01*
X196070784Y-122020152D01*
X196205471Y-122100964D01*
X196286284Y-122127902D01*
X196394033Y-122127902D01*
X196501783Y-122074027D01*
X196555658Y-122020152D01*
X196609532Y-121912402D01*
X196609532Y-121858528D01*
X196420971Y-121669966D01*
X196313221Y-121777715D01*
X196905844Y-121669966D02*
X196340158Y-121104280D01*
X196555658Y-120888781D01*
X196636470Y-120861844D01*
X196690345Y-120861844D01*
X196771157Y-120888781D01*
X196851969Y-120969593D01*
X196878906Y-121050406D01*
X196878906Y-121104280D01*
X196851969Y-121185093D01*
X196636470Y-121400592D01*
X197767841Y-120807969D02*
X197444592Y-121131218D01*
X197606216Y-120969593D02*
X197040531Y-120403908D01*
X197067468Y-120538595D01*
X197067468Y-120646345D01*
X197040531Y-120727157D01*
X197767841Y-120161471D02*
X197687028Y-120188409D01*
X197633154Y-120188409D01*
X197552341Y-120161471D01*
X197525404Y-120134534D01*
X197498467Y-120053722D01*
X197498467Y-119999847D01*
X197525404Y-119919035D01*
X197633154Y-119811285D01*
X197713966Y-119784348D01*
X197767841Y-119784348D01*
X197848653Y-119811285D01*
X197875590Y-119838223D01*
X197902528Y-119919035D01*
X197902528Y-119972910D01*
X197875590Y-120053722D01*
X197767841Y-120161471D01*
X197740903Y-120242284D01*
X197740903Y-120296158D01*
X197767841Y-120376971D01*
X197875590Y-120484720D01*
X197956402Y-120511658D01*
X198010277Y-120511658D01*
X198091089Y-120484720D01*
X198198839Y-120376971D01*
X198225776Y-120296158D01*
X198225776Y-120242284D01*
X198198839Y-120161471D01*
X198091089Y-120053722D01*
X198010277Y-120026784D01*
X197956402Y-120026784D01*
X197875590Y-120053722D01*
X196097722Y-126480592D02*
X196016910Y-126507529D01*
X195936097Y-126588341D01*
X195882223Y-126696091D01*
X195882223Y-126803841D01*
X195909160Y-126884653D01*
X195989972Y-127019340D01*
X196070784Y-127100152D01*
X196205471Y-127180964D01*
X196286284Y-127207902D01*
X196394033Y-127207902D01*
X196501783Y-127154027D01*
X196555658Y-127100152D01*
X196609532Y-126992402D01*
X196609532Y-126938528D01*
X196420971Y-126749966D01*
X196313221Y-126857715D01*
X196905844Y-126749966D02*
X196340158Y-126184280D01*
X196555658Y-125968781D01*
X196636470Y-125941844D01*
X196690345Y-125941844D01*
X196771157Y-125968781D01*
X196851969Y-126049593D01*
X196878906Y-126130406D01*
X196878906Y-126184280D01*
X196851969Y-126265093D01*
X196636470Y-126480592D01*
X197767841Y-125887969D02*
X197444592Y-126211218D01*
X197606216Y-126049593D02*
X197040531Y-125483908D01*
X197067468Y-125618595D01*
X197067468Y-125726345D01*
X197040531Y-125807157D01*
X197390717Y-125133722D02*
X197767841Y-124756598D01*
X198091089Y-125564720D01*
X196097722Y-129020592D02*
X196016910Y-129047529D01*
X195936097Y-129128341D01*
X195882223Y-129236091D01*
X195882223Y-129343841D01*
X195909160Y-129424653D01*
X195989972Y-129559340D01*
X196070784Y-129640152D01*
X196205471Y-129720964D01*
X196286284Y-129747902D01*
X196394033Y-129747902D01*
X196501783Y-129694027D01*
X196555658Y-129640152D01*
X196609532Y-129532402D01*
X196609532Y-129478528D01*
X196420971Y-129289966D01*
X196313221Y-129397715D01*
X196905844Y-129289966D02*
X196340158Y-128724280D01*
X196555658Y-128508781D01*
X196636470Y-128481844D01*
X196690345Y-128481844D01*
X196771157Y-128508781D01*
X196851969Y-128589593D01*
X196878906Y-128670406D01*
X196878906Y-128724280D01*
X196851969Y-128805093D01*
X196636470Y-129020592D01*
X197767841Y-128427969D02*
X197444592Y-128751218D01*
X197606216Y-128589593D02*
X197040531Y-128023908D01*
X197067468Y-128158595D01*
X197067468Y-128266345D01*
X197040531Y-128347157D01*
X197687028Y-127377410D02*
X197579279Y-127485160D01*
X197552341Y-127565972D01*
X197552341Y-127619847D01*
X197579279Y-127754534D01*
X197660091Y-127889221D01*
X197875590Y-128104720D01*
X197956402Y-128131658D01*
X198010277Y-128131658D01*
X198091089Y-128104720D01*
X198198839Y-127996971D01*
X198225776Y-127916158D01*
X198225776Y-127862284D01*
X198198839Y-127781471D01*
X198064152Y-127646784D01*
X197983340Y-127619847D01*
X197929465Y-127619847D01*
X197848653Y-127646784D01*
X197740903Y-127754534D01*
X197713966Y-127835346D01*
X197713966Y-127889221D01*
X197740903Y-127970033D01*
X169989722Y-129020592D02*
X169908910Y-129047529D01*
X169828097Y-129128341D01*
X169774223Y-129236091D01*
X169774223Y-129343841D01*
X169801160Y-129424653D01*
X169881972Y-129559340D01*
X169962784Y-129640152D01*
X170097471Y-129720964D01*
X170178284Y-129747902D01*
X170286033Y-129747902D01*
X170393783Y-129694027D01*
X170447658Y-129640152D01*
X170501532Y-129532402D01*
X170501532Y-129478528D01*
X170312971Y-129289966D01*
X170205221Y-129397715D01*
X170797844Y-129289966D02*
X170232158Y-128724280D01*
X170447658Y-128508781D01*
X170528470Y-128481844D01*
X170582345Y-128481844D01*
X170663157Y-128508781D01*
X170743969Y-128589593D01*
X170770906Y-128670406D01*
X170770906Y-128724280D01*
X170743969Y-128805093D01*
X170528470Y-129020592D01*
X171659841Y-128427969D02*
X171336592Y-128751218D01*
X171498216Y-128589593D02*
X170932531Y-128023908D01*
X170959468Y-128158595D01*
X170959468Y-128266345D01*
X170932531Y-128347157D01*
X171605966Y-127350473D02*
X171336592Y-127619847D01*
X171579028Y-127916158D01*
X171579028Y-127862284D01*
X171605966Y-127781471D01*
X171740653Y-127646784D01*
X171821465Y-127619847D01*
X171875340Y-127619847D01*
X171956152Y-127646784D01*
X172090839Y-127781471D01*
X172117776Y-127862284D01*
X172117776Y-127916158D01*
X172090839Y-127996971D01*
X171956152Y-128131658D01*
X171875340Y-128158595D01*
X171821465Y-128158595D01*
X169943722Y-126480592D02*
X169862910Y-126507529D01*
X169782097Y-126588341D01*
X169728223Y-126696091D01*
X169728223Y-126803841D01*
X169755160Y-126884653D01*
X169835972Y-127019340D01*
X169916784Y-127100152D01*
X170051471Y-127180964D01*
X170132284Y-127207902D01*
X170240033Y-127207902D01*
X170347783Y-127154027D01*
X170401658Y-127100152D01*
X170455532Y-126992402D01*
X170455532Y-126938528D01*
X170266971Y-126749966D01*
X170159221Y-126857715D01*
X170751844Y-126749966D02*
X170186158Y-126184280D01*
X170401658Y-125968781D01*
X170482470Y-125941844D01*
X170536345Y-125941844D01*
X170617157Y-125968781D01*
X170697969Y-126049593D01*
X170724906Y-126130406D01*
X170724906Y-126184280D01*
X170697969Y-126265093D01*
X170482470Y-126480592D01*
X171613841Y-125887969D02*
X171290592Y-126211218D01*
X171452216Y-126049593D02*
X170886531Y-125483908D01*
X170913468Y-125618595D01*
X170913468Y-125726345D01*
X170886531Y-125807157D01*
X171721590Y-125025972D02*
X172098714Y-125403096D01*
X171371404Y-124945160D02*
X171640778Y-125483908D01*
X171990964Y-125133722D01*
X169989722Y-121400592D02*
X169908910Y-121427529D01*
X169828097Y-121508341D01*
X169774223Y-121616091D01*
X169774223Y-121723841D01*
X169801160Y-121804653D01*
X169881972Y-121939340D01*
X169962784Y-122020152D01*
X170097471Y-122100964D01*
X170178284Y-122127902D01*
X170286033Y-122127902D01*
X170393783Y-122074027D01*
X170447658Y-122020152D01*
X170501532Y-121912402D01*
X170501532Y-121858528D01*
X170312971Y-121669966D01*
X170205221Y-121777715D01*
X170797844Y-121669966D02*
X170232158Y-121104280D01*
X170447658Y-120888781D01*
X170528470Y-120861844D01*
X170582345Y-120861844D01*
X170663157Y-120888781D01*
X170743969Y-120969593D01*
X170770906Y-121050406D01*
X170770906Y-121104280D01*
X170743969Y-121185093D01*
X170528470Y-121400592D01*
X171659841Y-120807969D02*
X171336592Y-121131218D01*
X171498216Y-120969593D02*
X170932531Y-120403908D01*
X170959468Y-120538595D01*
X170959468Y-120646345D01*
X170932531Y-120727157D01*
X171282717Y-120053722D02*
X171632903Y-119703536D01*
X171659841Y-120107597D01*
X171740653Y-120026784D01*
X171821465Y-119999847D01*
X171875340Y-119999847D01*
X171956152Y-120026784D01*
X172090839Y-120161471D01*
X172117776Y-120242284D01*
X172117776Y-120296158D01*
X172090839Y-120376971D01*
X171929215Y-120538595D01*
X171848402Y-120565532D01*
X171794528Y-120565532D01*
X169843722Y-118860592D02*
X169762910Y-118887529D01*
X169682097Y-118968341D01*
X169628223Y-119076091D01*
X169628223Y-119183841D01*
X169655160Y-119264653D01*
X169735972Y-119399340D01*
X169816784Y-119480152D01*
X169951471Y-119560964D01*
X170032284Y-119587902D01*
X170140033Y-119587902D01*
X170247783Y-119534027D01*
X170301658Y-119480152D01*
X170355532Y-119372402D01*
X170355532Y-119318528D01*
X170166971Y-119129966D01*
X170059221Y-119237715D01*
X170651844Y-119129966D02*
X170086158Y-118564280D01*
X170301658Y-118348781D01*
X170382470Y-118321844D01*
X170436345Y-118321844D01*
X170517157Y-118348781D01*
X170597969Y-118429593D01*
X170624906Y-118510406D01*
X170624906Y-118564280D01*
X170597969Y-118645093D01*
X170382470Y-118860592D01*
X171513841Y-118267969D02*
X171190592Y-118591218D01*
X171352216Y-118429593D02*
X170786531Y-117863908D01*
X170813468Y-117998595D01*
X170813468Y-118106345D01*
X170786531Y-118187157D01*
X171217529Y-117540659D02*
X171217529Y-117486784D01*
X171244467Y-117405972D01*
X171379154Y-117271285D01*
X171459966Y-117244348D01*
X171513841Y-117244348D01*
X171594653Y-117271285D01*
X171648528Y-117325160D01*
X171702402Y-117432910D01*
X171702402Y-118079407D01*
X172052589Y-117729221D01*
X169843722Y-116320592D02*
X169762910Y-116347529D01*
X169682097Y-116428341D01*
X169628223Y-116536091D01*
X169628223Y-116643841D01*
X169655160Y-116724653D01*
X169735972Y-116859340D01*
X169816784Y-116940152D01*
X169951471Y-117020964D01*
X170032284Y-117047902D01*
X170140033Y-117047902D01*
X170247783Y-116994027D01*
X170301658Y-116940152D01*
X170355532Y-116832402D01*
X170355532Y-116778528D01*
X170166971Y-116589966D01*
X170059221Y-116697715D01*
X170651844Y-116589966D02*
X170086158Y-116024280D01*
X170301658Y-115808781D01*
X170382470Y-115781844D01*
X170436345Y-115781844D01*
X170517157Y-115808781D01*
X170597969Y-115889593D01*
X170624906Y-115970406D01*
X170624906Y-116024280D01*
X170597969Y-116105093D01*
X170382470Y-116320592D01*
X171513841Y-115727969D02*
X171190592Y-116051218D01*
X171352216Y-115889593D02*
X170786531Y-115323908D01*
X170813468Y-115458595D01*
X170813468Y-115566345D01*
X170786531Y-115647157D01*
X172052589Y-115189221D02*
X171729340Y-115512470D01*
X171890964Y-115350845D02*
X171325279Y-114785160D01*
X171352216Y-114919847D01*
X171352216Y-115027597D01*
X171325279Y-115108409D01*
X169989722Y-113780592D02*
X169908910Y-113807529D01*
X169828097Y-113888341D01*
X169774223Y-113996091D01*
X169774223Y-114103841D01*
X169801160Y-114184653D01*
X169881972Y-114319340D01*
X169962784Y-114400152D01*
X170097471Y-114480964D01*
X170178284Y-114507902D01*
X170286033Y-114507902D01*
X170393783Y-114454027D01*
X170447658Y-114400152D01*
X170501532Y-114292402D01*
X170501532Y-114238528D01*
X170312971Y-114049966D01*
X170205221Y-114157715D01*
X170797844Y-114049966D02*
X170232158Y-113484280D01*
X170447658Y-113268781D01*
X170528470Y-113241844D01*
X170582345Y-113241844D01*
X170663157Y-113268781D01*
X170743969Y-113349593D01*
X170770906Y-113430406D01*
X170770906Y-113484280D01*
X170743969Y-113565093D01*
X170528470Y-113780592D01*
X171659841Y-113187969D02*
X171336592Y-113511218D01*
X171498216Y-113349593D02*
X170932531Y-112783908D01*
X170959468Y-112918595D01*
X170959468Y-113026345D01*
X170932531Y-113107157D01*
X171444341Y-112272097D02*
X171498216Y-112218223D01*
X171579028Y-112191285D01*
X171632903Y-112191285D01*
X171713715Y-112218223D01*
X171848402Y-112299035D01*
X171983089Y-112433722D01*
X172063902Y-112568409D01*
X172090839Y-112649221D01*
X172090839Y-112703096D01*
X172063902Y-112783908D01*
X172010027Y-112837783D01*
X171929215Y-112864720D01*
X171875340Y-112864720D01*
X171794528Y-112837783D01*
X171659841Y-112756971D01*
X171525154Y-112622284D01*
X171444341Y-112487597D01*
X171417404Y-112406784D01*
X171417404Y-112352910D01*
X171444341Y-112272097D01*
X170513096Y-108431218D02*
X170432284Y-108458155D01*
X170351471Y-108538967D01*
X170297597Y-108646717D01*
X170297597Y-108754467D01*
X170324534Y-108835279D01*
X170405346Y-108969966D01*
X170486158Y-109050778D01*
X170620845Y-109131590D01*
X170701658Y-109158528D01*
X170809407Y-109158528D01*
X170917157Y-109104653D01*
X170971032Y-109050778D01*
X171024906Y-108943028D01*
X171024906Y-108889154D01*
X170836345Y-108700592D01*
X170728595Y-108808341D01*
X171321218Y-108700592D02*
X170755532Y-108134906D01*
X170971032Y-107919407D01*
X171051844Y-107892470D01*
X171105719Y-107892470D01*
X171186531Y-107919407D01*
X171267343Y-108000219D01*
X171294280Y-108081032D01*
X171294280Y-108134906D01*
X171267343Y-108215719D01*
X171051844Y-108431218D01*
X171913841Y-108107969D02*
X172021590Y-108000219D01*
X172048528Y-107919407D01*
X172048528Y-107865532D01*
X172021590Y-107730845D01*
X171940778Y-107596158D01*
X171725279Y-107380659D01*
X171644467Y-107353722D01*
X171590592Y-107353722D01*
X171509780Y-107380659D01*
X171402030Y-107488409D01*
X171375093Y-107569221D01*
X171375093Y-107623096D01*
X171402030Y-107703908D01*
X171536717Y-107838595D01*
X171617529Y-107865532D01*
X171671404Y-107865532D01*
X171752216Y-107838595D01*
X171859966Y-107730845D01*
X171886903Y-107650033D01*
X171886903Y-107596158D01*
X171859966Y-107515346D01*
X170513096Y-105891218D02*
X170432284Y-105918155D01*
X170351471Y-105998967D01*
X170297597Y-106106717D01*
X170297597Y-106214467D01*
X170324534Y-106295279D01*
X170405346Y-106429966D01*
X170486158Y-106510778D01*
X170620845Y-106591590D01*
X170701658Y-106618528D01*
X170809407Y-106618528D01*
X170917157Y-106564653D01*
X170971032Y-106510778D01*
X171024906Y-106403028D01*
X171024906Y-106349154D01*
X170836345Y-106160592D01*
X170728595Y-106268341D01*
X171321218Y-106160592D02*
X170755532Y-105594906D01*
X170971032Y-105379407D01*
X171051844Y-105352470D01*
X171105719Y-105352470D01*
X171186531Y-105379407D01*
X171267343Y-105460219D01*
X171294280Y-105541032D01*
X171294280Y-105594906D01*
X171267343Y-105675719D01*
X171051844Y-105891218D01*
X171644467Y-105190845D02*
X171563654Y-105217783D01*
X171509780Y-105217783D01*
X171428967Y-105190845D01*
X171402030Y-105163908D01*
X171375093Y-105083096D01*
X171375093Y-105029221D01*
X171402030Y-104948409D01*
X171509780Y-104840659D01*
X171590592Y-104813722D01*
X171644467Y-104813722D01*
X171725279Y-104840659D01*
X171752216Y-104867597D01*
X171779154Y-104948409D01*
X171779154Y-105002284D01*
X171752216Y-105083096D01*
X171644467Y-105190845D01*
X171617529Y-105271658D01*
X171617529Y-105325532D01*
X171644467Y-105406345D01*
X171752216Y-105514094D01*
X171833028Y-105541032D01*
X171886903Y-105541032D01*
X171967715Y-105514094D01*
X172075465Y-105406345D01*
X172102402Y-105325532D01*
X172102402Y-105271658D01*
X172075465Y-105190845D01*
X171967715Y-105083096D01*
X171886903Y-105056158D01*
X171833028Y-105056158D01*
X171752216Y-105083096D01*
X170613096Y-103321218D02*
X170532284Y-103348155D01*
X170451471Y-103428967D01*
X170397597Y-103536717D01*
X170397597Y-103644467D01*
X170424534Y-103725279D01*
X170505346Y-103859966D01*
X170586158Y-103940778D01*
X170720845Y-104021590D01*
X170801658Y-104048528D01*
X170909407Y-104048528D01*
X171017157Y-103994653D01*
X171071032Y-103940778D01*
X171124906Y-103833028D01*
X171124906Y-103779154D01*
X170936345Y-103590592D01*
X170828595Y-103698341D01*
X171421218Y-103590592D02*
X170855532Y-103024906D01*
X171071032Y-102809407D01*
X171151844Y-102782470D01*
X171205719Y-102782470D01*
X171286531Y-102809407D01*
X171367343Y-102890219D01*
X171394280Y-102971032D01*
X171394280Y-103024906D01*
X171367343Y-103105719D01*
X171151844Y-103321218D01*
X171367343Y-102513096D02*
X171744467Y-102135972D01*
X172067715Y-102944094D01*
X170513096Y-100811218D02*
X170432284Y-100838155D01*
X170351471Y-100918967D01*
X170297597Y-101026717D01*
X170297597Y-101134467D01*
X170324534Y-101215279D01*
X170405346Y-101349966D01*
X170486158Y-101430778D01*
X170620845Y-101511590D01*
X170701658Y-101538528D01*
X170809407Y-101538528D01*
X170917157Y-101484653D01*
X170971032Y-101430778D01*
X171024906Y-101323028D01*
X171024906Y-101269154D01*
X170836345Y-101080592D01*
X170728595Y-101188341D01*
X171321218Y-101080592D02*
X170755532Y-100514906D01*
X170971032Y-100299407D01*
X171051844Y-100272470D01*
X171105719Y-100272470D01*
X171186531Y-100299407D01*
X171267343Y-100380219D01*
X171294280Y-100461032D01*
X171294280Y-100514906D01*
X171267343Y-100595719D01*
X171051844Y-100811218D01*
X171563654Y-99706784D02*
X171455905Y-99814534D01*
X171428967Y-99895346D01*
X171428967Y-99949221D01*
X171455905Y-100083908D01*
X171536717Y-100218595D01*
X171752216Y-100434094D01*
X171833028Y-100461032D01*
X171886903Y-100461032D01*
X171967715Y-100434094D01*
X172075465Y-100326345D01*
X172102402Y-100245532D01*
X172102402Y-100191658D01*
X172075465Y-100110845D01*
X171940778Y-99976158D01*
X171859966Y-99949221D01*
X171806091Y-99949221D01*
X171725279Y-99976158D01*
X171617529Y-100083908D01*
X171590592Y-100164720D01*
X171590592Y-100218595D01*
X171617529Y-100299407D01*
X170513096Y-95731218D02*
X170432284Y-95758155D01*
X170351471Y-95838967D01*
X170297597Y-95946717D01*
X170297597Y-96054467D01*
X170324534Y-96135279D01*
X170405346Y-96269966D01*
X170486158Y-96350778D01*
X170620845Y-96431590D01*
X170701658Y-96458528D01*
X170809407Y-96458528D01*
X170917157Y-96404653D01*
X170971032Y-96350778D01*
X171024906Y-96243028D01*
X171024906Y-96189154D01*
X170836345Y-96000592D01*
X170728595Y-96108341D01*
X171321218Y-96000592D02*
X170755532Y-95434906D01*
X170971032Y-95219407D01*
X171051844Y-95192470D01*
X171105719Y-95192470D01*
X171186531Y-95219407D01*
X171267343Y-95300219D01*
X171294280Y-95381032D01*
X171294280Y-95434906D01*
X171267343Y-95515719D01*
X171051844Y-95731218D01*
X171590592Y-94599847D02*
X171321218Y-94869221D01*
X171563654Y-95165532D01*
X171563654Y-95111658D01*
X171590592Y-95030845D01*
X171725279Y-94896158D01*
X171806091Y-94869221D01*
X171859966Y-94869221D01*
X171940778Y-94896158D01*
X172075465Y-95030845D01*
X172102402Y-95111658D01*
X172102402Y-95165532D01*
X172075465Y-95246345D01*
X171940778Y-95381032D01*
X171859966Y-95407969D01*
X171806091Y-95407969D01*
X170513096Y-93191218D02*
X170432284Y-93218155D01*
X170351471Y-93298967D01*
X170297597Y-93406717D01*
X170297597Y-93514467D01*
X170324534Y-93595279D01*
X170405346Y-93729966D01*
X170486158Y-93810778D01*
X170620845Y-93891590D01*
X170701658Y-93918528D01*
X170809407Y-93918528D01*
X170917157Y-93864653D01*
X170971032Y-93810778D01*
X171024906Y-93703028D01*
X171024906Y-93649154D01*
X170836345Y-93460592D01*
X170728595Y-93568341D01*
X171321218Y-93460592D02*
X170755532Y-92894906D01*
X170971032Y-92679407D01*
X171051844Y-92652470D01*
X171105719Y-92652470D01*
X171186531Y-92679407D01*
X171267343Y-92760219D01*
X171294280Y-92841032D01*
X171294280Y-92894906D01*
X171267343Y-92975719D01*
X171051844Y-93191218D01*
X171752216Y-92275346D02*
X172129340Y-92652470D01*
X171402030Y-92194534D02*
X171671404Y-92733282D01*
X172021590Y-92383096D01*
X170513096Y-90651218D02*
X170432284Y-90678155D01*
X170351471Y-90758967D01*
X170297597Y-90866717D01*
X170297597Y-90974467D01*
X170324534Y-91055279D01*
X170405346Y-91189966D01*
X170486158Y-91270778D01*
X170620845Y-91351590D01*
X170701658Y-91378528D01*
X170809407Y-91378528D01*
X170917157Y-91324653D01*
X170971032Y-91270778D01*
X171024906Y-91163028D01*
X171024906Y-91109154D01*
X170836345Y-90920592D01*
X170728595Y-91028341D01*
X171321218Y-90920592D02*
X170755532Y-90354906D01*
X170971032Y-90139407D01*
X171051844Y-90112470D01*
X171105719Y-90112470D01*
X171186531Y-90139407D01*
X171267343Y-90220219D01*
X171294280Y-90301032D01*
X171294280Y-90354906D01*
X171267343Y-90435719D01*
X171051844Y-90651218D01*
X171267343Y-89843096D02*
X171617529Y-89492910D01*
X171644467Y-89896971D01*
X171725279Y-89816158D01*
X171806091Y-89789221D01*
X171859966Y-89789221D01*
X171940778Y-89816158D01*
X172075465Y-89950845D01*
X172102402Y-90031658D01*
X172102402Y-90085532D01*
X172075465Y-90166345D01*
X171913841Y-90327969D01*
X171833028Y-90354906D01*
X171779154Y-90354906D01*
X170513096Y-80491218D02*
X170432284Y-80518155D01*
X170351471Y-80598967D01*
X170297597Y-80706717D01*
X170297597Y-80814467D01*
X170324534Y-80895279D01*
X170405346Y-81029966D01*
X170486158Y-81110778D01*
X170620845Y-81191590D01*
X170701658Y-81218528D01*
X170809407Y-81218528D01*
X170917157Y-81164653D01*
X170971032Y-81110778D01*
X171024906Y-81003028D01*
X171024906Y-80949154D01*
X170836345Y-80760592D01*
X170728595Y-80868341D01*
X171321218Y-80760592D02*
X170755532Y-80194906D01*
X170971032Y-79979407D01*
X171051844Y-79952470D01*
X171105719Y-79952470D01*
X171186531Y-79979407D01*
X171267343Y-80060219D01*
X171294280Y-80141032D01*
X171294280Y-80194906D01*
X171267343Y-80275719D01*
X171051844Y-80491218D01*
X171428967Y-79521471D02*
X171482842Y-79467597D01*
X171563654Y-79440659D01*
X171617529Y-79440659D01*
X171698341Y-79467597D01*
X171833028Y-79548409D01*
X171967715Y-79683096D01*
X172048528Y-79817783D01*
X172075465Y-79898595D01*
X172075465Y-79952470D01*
X172048528Y-80033282D01*
X171994653Y-80087157D01*
X171913841Y-80114094D01*
X171859966Y-80114094D01*
X171779154Y-80087157D01*
X171644467Y-80006345D01*
X171509780Y-79871658D01*
X171428967Y-79736971D01*
X171402030Y-79656158D01*
X171402030Y-79602284D01*
X171428967Y-79521471D01*
X170413096Y-88111218D02*
X170332284Y-88138155D01*
X170251471Y-88218967D01*
X170197597Y-88326717D01*
X170197597Y-88434467D01*
X170224534Y-88515279D01*
X170305346Y-88649966D01*
X170386158Y-88730778D01*
X170520845Y-88811590D01*
X170601658Y-88838528D01*
X170709407Y-88838528D01*
X170817157Y-88784653D01*
X170871032Y-88730778D01*
X170924906Y-88623028D01*
X170924906Y-88569154D01*
X170736345Y-88380592D01*
X170628595Y-88488341D01*
X171221218Y-88380592D02*
X170655532Y-87814906D01*
X170871032Y-87599407D01*
X170951844Y-87572470D01*
X171005719Y-87572470D01*
X171086531Y-87599407D01*
X171167343Y-87680219D01*
X171194280Y-87761032D01*
X171194280Y-87814906D01*
X171167343Y-87895719D01*
X170951844Y-88111218D01*
X171248155Y-87330033D02*
X171248155Y-87276158D01*
X171275093Y-87195346D01*
X171409780Y-87060659D01*
X171490592Y-87033722D01*
X171544467Y-87033722D01*
X171625279Y-87060659D01*
X171679154Y-87114534D01*
X171733028Y-87222284D01*
X171733028Y-87868781D01*
X172083215Y-87518595D01*
X170413096Y-83021218D02*
X170332284Y-83048155D01*
X170251471Y-83128967D01*
X170197597Y-83236717D01*
X170197597Y-83344467D01*
X170224534Y-83425279D01*
X170305346Y-83559966D01*
X170386158Y-83640778D01*
X170520845Y-83721590D01*
X170601658Y-83748528D01*
X170709407Y-83748528D01*
X170817157Y-83694653D01*
X170871032Y-83640778D01*
X170924906Y-83533028D01*
X170924906Y-83479154D01*
X170736345Y-83290592D01*
X170628595Y-83398341D01*
X171221218Y-83290592D02*
X170655532Y-82724906D01*
X170871032Y-82509407D01*
X170951844Y-82482470D01*
X171005719Y-82482470D01*
X171086531Y-82509407D01*
X171167343Y-82590219D01*
X171194280Y-82671032D01*
X171194280Y-82724906D01*
X171167343Y-82805719D01*
X170951844Y-83021218D01*
X172083215Y-82428595D02*
X171759966Y-82751844D01*
X171921590Y-82590219D02*
X171355905Y-82024534D01*
X171382842Y-82159221D01*
X171382842Y-82266971D01*
X171355905Y-82347783D01*
%TD*%
M02*
