%TF.GenerationSoftware,KiCad,Pcbnew,(5.1.10-1-10_14)*%
%TF.CreationDate,2021-09-19T11:37:43+09:00*%
%TF.ProjectId,Vpico,56706963-6f2e-46b6-9963-61645f706362,rev?*%
%TF.SameCoordinates,Original*%
%TF.FileFunction,Soldermask,Top*%
%TF.FilePolarity,Negative*%
%FSLAX46Y46*%
G04 Gerber Fmt 4.6, Leading zero omitted, Abs format (unit mm)*
G04 Created by KiCad (PCBNEW (5.1.10-1-10_14)) date 2021-09-19 11:37:43*
%MOMM*%
%LPD*%
G01*
G04 APERTURE LIST*
%ADD10C,4.000000*%
%ADD11C,2.100000*%
%ADD12C,1.900000*%
%ADD13O,1.700000X1.700000*%
%ADD14R,1.700000X1.700000*%
%ADD15R,1.700000X3.500000*%
%ADD16O,1.500000X1.500000*%
%ADD17O,1.800000X1.800000*%
%ADD18R,3.500000X1.700000*%
G04 APERTURE END LIST*
D10*
%TO.C,SW30*%
X282810196Y-105980795D03*
D11*
X277393753Y-106935860D03*
X288226639Y-105025730D03*
D12*
X287813019Y-105098662D03*
X277807373Y-106862928D03*
%TD*%
D10*
%TO.C,SW26*%
X211904038Y-118483464D03*
D11*
X206487595Y-119438529D03*
X217320481Y-117528399D03*
D12*
X216906861Y-117601331D03*
X206901215Y-119365597D03*
%TD*%
D10*
%TO.C,SW32*%
X99964324Y-125848194D03*
D11*
X94547881Y-124893129D03*
X105380767Y-126803259D03*
D12*
X104967147Y-126730327D03*
X94961501Y-124966061D03*
%TD*%
D13*
%TO.C,J1*%
X181380000Y-143500000D03*
X183920000Y-143500000D03*
X186460000Y-143500000D03*
D14*
X189000000Y-143500000D03*
%TD*%
D12*
%TO.C,SW36*%
X205421599Y-136888745D03*
X215427245Y-135124479D03*
D11*
X215840865Y-135051547D03*
X205007979Y-136961677D03*
D10*
X210424422Y-136006612D03*
%TD*%
D12*
%TO.C,SW35*%
X152572755Y-135124479D03*
X162578401Y-136888745D03*
D11*
X162992021Y-136961677D03*
X152159135Y-135051547D03*
D10*
X157575578Y-136006612D03*
%TD*%
D13*
%TO.C,U1*%
X186540000Y-128400000D03*
D15*
X186540000Y-129300000D03*
D14*
X184000000Y-128400000D03*
D15*
X184000000Y-129300000D03*
D13*
X181460000Y-128400000D03*
D15*
X181460000Y-129300000D03*
D16*
X186425000Y-83530000D03*
X181575000Y-83530000D03*
D17*
X186725000Y-80500000D03*
X181275000Y-80500000D03*
D18*
X193790000Y-128630000D03*
X193790000Y-126090000D03*
X193790000Y-123550000D03*
X193790000Y-121010000D03*
X193790000Y-118470000D03*
X193790000Y-115930000D03*
X193790000Y-113390000D03*
X193790000Y-110850000D03*
X193790000Y-108310000D03*
X193790000Y-105770000D03*
X193790000Y-103230000D03*
X193790000Y-100690000D03*
X193790000Y-98150000D03*
X193790000Y-95610000D03*
X193790000Y-93070000D03*
X193790000Y-90530000D03*
X193790000Y-87990000D03*
X193790000Y-85450000D03*
X193790000Y-82910000D03*
X193790000Y-80370000D03*
X174210000Y-128630000D03*
X174210000Y-126090000D03*
X174210000Y-123550000D03*
X174210000Y-121010000D03*
X174210000Y-118470000D03*
X174210000Y-115930000D03*
X174210000Y-113390000D03*
X174210000Y-110850000D03*
X174210000Y-108310000D03*
X174210000Y-105770000D03*
X174210000Y-103230000D03*
X174210000Y-100690000D03*
X174210000Y-98150000D03*
X174210000Y-95610000D03*
X174210000Y-93070000D03*
X174210000Y-90530000D03*
X174210000Y-87990000D03*
X174210000Y-85450000D03*
X174210000Y-82910000D03*
X174210000Y-80370000D03*
D13*
X192890000Y-80370000D03*
X192890000Y-82910000D03*
D14*
X192890000Y-85450000D03*
D13*
X192890000Y-87990000D03*
X192890000Y-90530000D03*
X192890000Y-93070000D03*
X192890000Y-95610000D03*
D14*
X192890000Y-98150000D03*
D13*
X192890000Y-100690000D03*
X192890000Y-103230000D03*
X192890000Y-105770000D03*
X192890000Y-108310000D03*
D14*
X192890000Y-110850000D03*
D13*
X192890000Y-113390000D03*
X192890000Y-115930000D03*
X192890000Y-118470000D03*
X192890000Y-121010000D03*
D14*
X192890000Y-123550000D03*
D13*
X192890000Y-126090000D03*
X192890000Y-128630000D03*
X175110000Y-128630000D03*
X175110000Y-126090000D03*
D14*
X175110000Y-123550000D03*
D13*
X175110000Y-121010000D03*
X175110000Y-118470000D03*
X175110000Y-115930000D03*
X175110000Y-113390000D03*
D14*
X175110000Y-110850000D03*
D13*
X175110000Y-108310000D03*
X175110000Y-105770000D03*
X175110000Y-103230000D03*
X175110000Y-100690000D03*
D14*
X175110000Y-98150000D03*
D13*
X175110000Y-95610000D03*
X175110000Y-93070000D03*
X175110000Y-90530000D03*
X175110000Y-87990000D03*
D14*
X175110000Y-85450000D03*
D13*
X175110000Y-82910000D03*
X175110000Y-80370000D03*
%TD*%
D10*
%TO.C,SW40*%
X285762215Y-122722527D03*
D11*
X280345772Y-123677592D03*
X291178658Y-121767462D03*
D12*
X290765038Y-121840394D03*
X280759392Y-123604660D03*
%TD*%
D10*
%TO.C,SW39*%
X268035676Y-125848194D03*
D11*
X262619233Y-126803259D03*
X273452119Y-124893129D03*
D12*
X273038499Y-124966061D03*
X263032853Y-126730327D03*
%TD*%
D10*
%TO.C,SW38*%
X250309136Y-128973861D03*
D11*
X244892693Y-129928926D03*
X255725579Y-128018796D03*
D12*
X255311959Y-128091728D03*
X245306313Y-129855994D03*
%TD*%
D10*
%TO.C,SW37*%
X232582597Y-132099528D03*
D11*
X227166154Y-133054593D03*
X237999040Y-131144463D03*
D12*
X237585420Y-131217395D03*
X227579774Y-132981661D03*
%TD*%
D10*
%TO.C,SW34*%
X135417403Y-132099528D03*
D11*
X130000960Y-131144463D03*
X140833846Y-133054593D03*
D12*
X140420226Y-132981661D03*
X130414580Y-131217395D03*
%TD*%
D10*
%TO.C,SW33*%
X117690864Y-128973861D03*
D11*
X112274421Y-128018796D03*
X123107307Y-129928926D03*
D12*
X122693687Y-129855994D03*
X112688041Y-128091728D03*
%TD*%
D10*
%TO.C,SW31*%
X82237785Y-122722527D03*
D11*
X76821342Y-121767462D03*
X87654228Y-123677592D03*
D12*
X87240608Y-123604660D03*
X77234962Y-121840394D03*
%TD*%
D10*
%TO.C,SW29*%
X265083657Y-109106462D03*
D11*
X259667214Y-110061527D03*
X270500100Y-108151397D03*
D12*
X270086480Y-108224329D03*
X260080834Y-109988595D03*
%TD*%
D10*
%TO.C,SW28*%
X247357117Y-112232129D03*
D11*
X241940674Y-113187194D03*
X252773560Y-111277064D03*
D12*
X252359940Y-111349996D03*
X242354294Y-113114262D03*
%TD*%
D10*
%TO.C,SW27*%
X229630578Y-115357796D03*
D11*
X224214135Y-116312861D03*
X235047021Y-114402731D03*
D12*
X234633401Y-114475663D03*
X224627755Y-116239929D03*
%TD*%
D10*
%TO.C,SW25*%
X156095962Y-118483464D03*
D11*
X150679519Y-117528399D03*
X161512405Y-119438529D03*
D12*
X161098785Y-119365597D03*
X151093139Y-117601331D03*
%TD*%
D10*
%TO.C,SW24*%
X138369422Y-115357796D03*
D11*
X132952979Y-114402731D03*
X143785865Y-116312861D03*
D12*
X143372245Y-116239929D03*
X133366599Y-114475663D03*
%TD*%
D10*
%TO.C,SW23*%
X120642883Y-112232129D03*
D11*
X115226440Y-111277064D03*
X126059326Y-113187194D03*
D12*
X125645706Y-113114262D03*
X115640060Y-111349996D03*
%TD*%
D10*
%TO.C,SW22*%
X102916343Y-109106462D03*
D11*
X97499900Y-108151397D03*
X108332786Y-110061527D03*
D12*
X107919166Y-109988595D03*
X97913520Y-108224329D03*
%TD*%
D10*
%TO.C,SW21*%
X85189804Y-105980795D03*
D11*
X79773361Y-105025730D03*
X90606247Y-106935860D03*
D12*
X90192627Y-106862928D03*
X80186981Y-105098662D03*
%TD*%
D10*
%TO.C,SW20*%
X279858177Y-89239063D03*
D11*
X274441734Y-90194128D03*
X285274620Y-88283998D03*
D12*
X284861000Y-88356930D03*
X274855354Y-90121196D03*
%TD*%
D10*
%TO.C,SW19*%
X262131638Y-92364730D03*
D11*
X256715195Y-93319795D03*
X267548081Y-91409665D03*
D12*
X267134461Y-91482597D03*
X257128815Y-93246863D03*
%TD*%
D10*
%TO.C,SW18*%
X244405098Y-95490397D03*
D11*
X238988655Y-96445462D03*
X249821541Y-94535332D03*
D12*
X249407921Y-94608264D03*
X239402275Y-96372530D03*
%TD*%
D10*
%TO.C,SW17*%
X226678559Y-98616065D03*
D11*
X221262116Y-99571130D03*
X232095002Y-97661000D03*
D12*
X231681382Y-97733932D03*
X221675736Y-99498198D03*
%TD*%
D10*
%TO.C,SW16*%
X208952019Y-101741732D03*
D11*
X203535576Y-102696797D03*
X214368462Y-100786667D03*
D12*
X213954842Y-100859599D03*
X203949196Y-102623865D03*
%TD*%
D10*
%TO.C,SW15*%
X159047981Y-101741732D03*
D11*
X153631538Y-100786667D03*
X164464424Y-102696797D03*
D12*
X164050804Y-102623865D03*
X154045158Y-100859599D03*
%TD*%
D10*
%TO.C,SW14*%
X141321441Y-98616065D03*
D11*
X135904998Y-97661000D03*
X146737884Y-99571130D03*
D12*
X146324264Y-99498198D03*
X136318618Y-97733932D03*
%TD*%
D10*
%TO.C,SW13*%
X123594902Y-95490397D03*
D11*
X118178459Y-94535332D03*
X129011345Y-96445462D03*
D12*
X128597725Y-96372530D03*
X118592079Y-94608264D03*
%TD*%
D10*
%TO.C,SW12*%
X105868362Y-92364730D03*
D11*
X100451919Y-91409665D03*
X111284805Y-93319795D03*
D12*
X110871185Y-93246863D03*
X100865539Y-91482597D03*
%TD*%
D10*
%TO.C,SW11*%
X88141823Y-89239063D03*
D11*
X82725380Y-88283998D03*
X93558266Y-90194128D03*
D12*
X93144646Y-90121196D03*
X83139000Y-88356930D03*
%TD*%
D10*
%TO.C,SW10*%
X276906158Y-72497331D03*
D11*
X271489715Y-73452396D03*
X282322601Y-71542266D03*
D12*
X281908981Y-71615198D03*
X271903335Y-73379464D03*
%TD*%
D10*
%TO.C,SW9*%
X259179619Y-75622998D03*
D11*
X253763176Y-76578063D03*
X264596062Y-74667933D03*
D12*
X264182442Y-74740865D03*
X254176796Y-76505131D03*
%TD*%
D10*
%TO.C,SW8*%
X241453079Y-78748666D03*
D11*
X236036636Y-79703731D03*
X246869522Y-77793601D03*
D12*
X246455902Y-77866533D03*
X236450256Y-79630799D03*
%TD*%
D10*
%TO.C,SW7*%
X223726540Y-81874333D03*
D11*
X218310097Y-82829398D03*
X229142983Y-80919268D03*
D12*
X228729363Y-80992200D03*
X218723717Y-82756466D03*
%TD*%
D10*
%TO.C,SW6*%
X206000000Y-85000000D03*
D11*
X200583557Y-85955065D03*
X211416443Y-84044935D03*
D12*
X211002823Y-84117867D03*
X200997177Y-85882133D03*
%TD*%
D10*
%TO.C,SW5*%
X162000000Y-85000000D03*
D11*
X156583557Y-84044935D03*
X167416443Y-85955065D03*
D12*
X167002823Y-85882133D03*
X156997177Y-84117867D03*
%TD*%
D10*
%TO.C,SW4*%
X144273460Y-81874333D03*
D11*
X138857017Y-80919268D03*
X149689903Y-82829398D03*
D12*
X149276283Y-82756466D03*
X139270637Y-80992200D03*
%TD*%
D10*
%TO.C,SW3*%
X126546921Y-78748666D03*
D11*
X121130478Y-77793601D03*
X131963364Y-79703731D03*
D12*
X131549744Y-79630799D03*
X121544098Y-77866533D03*
%TD*%
D10*
%TO.C,SW2*%
X108820381Y-75622998D03*
D11*
X103403938Y-74667933D03*
X114236824Y-76578063D03*
D12*
X113823204Y-76505131D03*
X103817558Y-74740865D03*
%TD*%
D10*
%TO.C,SW1*%
X91093842Y-72497331D03*
D11*
X85677399Y-71542266D03*
X96510285Y-73452396D03*
D12*
X96096665Y-73379464D03*
X86091019Y-71615198D03*
%TD*%
M02*
